<?xml version="1.0" encoding="iso-8859-1"?>
<!-- Generator: Adobe Illustrator 19.0.0, SVG Export Plug-In . SVG Version: 6.00 Build 0)  -->
<svg xmlns="http://www.w3.org/2000/svg" xmlns:xlink="http://www.w3.org/1999/xlink" version="1.1" id="Capa_1" x="0px" y="0px" viewBox="0 0 512 512" style="enable-background:new 0 0 512 512;" xml:space="preserve" width="512" height="512">
<g>
	<g>
		<path style="fill:#F6D190;" d="M402.809,232.77l-138.776-80.344c-4.969-2.877-11.097-2.877-16.065,0L109.191,232.77    c-3.532,2.045-6.151,5.359-7.323,9.268L55.597,396.276h400.806l-46.271-154.238C408.959,238.129,406.34,234.815,402.809,232.77z"/>
		<path style="fill:#E2A975;" d="M264.033,152.426c-4.969-2.877-11.097-2.877-16.066,0L109.191,232.77    c-3.532,2.045-6.151,5.359-7.323,9.268L55.597,396.276h120.242l155.647-204.798L264.033,152.426z"/>
		<path style="fill:#C38C66;" d="M336.16,396.276l0.002-0.002L180.516,191.477l-71.325,41.293c-3.532,2.045-6.151,5.359-7.323,9.268    L55.597,396.276H336.16z"/>
		<polygon style="fill:#6E4848;" points="256.001,290.799 175.839,396.276 336.16,396.276 336.162,396.273   "/>
		<path style="fill:#785353;" d="M244.389,345.921l-38.27,50.355h99.761l0.002-0.002l-38.269-50.354    C261.776,338.241,250.225,338.241,244.389,345.921z"/>
		<polygon style="fill:#F6D190;" points="256.001,290.799 240.465,270.356 128.101,396.276 175.839,396.276 256.001,290.799   "/>
		<polygon style="fill:#C38C66;" points="256.358,290.799 271.894,270.356 384.258,396.276 336.52,396.276 256.358,290.799   "/>
	</g>
	<path d="M504.5,388.776h-8.97l-49.331-164.207c-2.908-9.672-9.323-17.789-18.067-22.857l-152.308-88.178   c-12.231-7.079-27.422-7.079-39.646,0L83.871,201.712c-8.744,5.065-15.161,13.184-18.07,22.862L16.489,388.776H7.5   c-4.142,0-7.5,3.358-7.5,7.5s3.358,7.5,7.5,7.5h497c4.142,0,7.5-3.358,7.5-7.5S508.642,388.776,504.5,388.776z M479.867,388.776   h-17.884l-44.898-149.661l14.848-9.898L479.867,388.776z M387.613,388.776L281.317,269.884l28.754-37.835   c2.506-3.298,1.865-8.003-1.433-10.509c-3.297-2.507-8.002-1.865-10.509,1.433L256,278.406l-64.37-84.697L256,156.442l64.37,37.267   l-4.29,5.645c-2.506,3.298-1.865,8.003,1.433,10.509c1.356,1.031,2.951,1.529,4.533,1.529c2.264,0,4.501-1.021,5.977-2.962   l5.431-7.146l68.524,39.672l44.346,147.821H387.613z M339.881,388.776L265.42,290.8l6.651-8.751l95.421,106.727H339.881z    M144.508,388.776l95.421-106.727l6.651,8.751l-74.461,97.976H144.508z M256,303.195l65.041,85.581H190.959L256,303.195z    M420.613,214.691c1.054,0.611,2.036,1.313,2.976,2.061l-15.561,10.374L263.5,143.451v-19.056c1.657,0.529,3.272,1.229,4.81,2.119   L420.613,214.691z M243.695,126.514c1.535-0.889,3.149-1.589,4.805-2.119v19.056l-144.528,83.674l-15.56-10.373   c0.94-0.747,1.921-1.449,2.975-2.06L243.695,126.514z M80.068,229.217l14.847,9.897L62.843,346.021   c-1.19,3.968,1.061,8.148,5.028,9.339c3.968,1.19,8.149-1.061,9.339-5.029l32.813-109.376l68.524-39.672l52.137,68.601   L124.387,388.776h-58.71l1.913-6.377c1.19-3.968-1.061-8.148-5.028-9.339c-3.965-1.19-8.148,1.061-9.339,5.028l-3.206,10.688   H32.151L80.068,229.217z"/>
</g>















</svg>
