<?xml version="1.0" encoding="iso-8859-1"?>
<!-- Generator: Adobe Illustrator 19.0.0, SVG Export Plug-In . SVG Version: 6.00 Build 0)  -->
<svg xmlns="http://www.w3.org/2000/svg" xmlns:xlink="http://www.w3.org/1999/xlink" version="1.1" id="Capa_1" x="0px" y="0px" viewBox="0 0 512 512" style="enable-background:new 0 0 512 512;" xml:space="preserve" width="512" height="512">
<g>
	<g>
		<path style="fill:#5D5360;" d="M256,308.106L256,308.106c-35.418,0-64.129-28.712-64.129-64.129v-24.048h128.258v24.048    C320.129,279.394,291.418,308.106,256,308.106z"/>
		<path style="fill:#4B3F4E;" d="M231.952,268.025v-8.016c0-8.854,7.178-16.032,16.032-16.032h72.145v-24.048H191.871v24.048    c0,31.78,23.142,58.09,53.478,63.173C236.981,296.316,231.952,282.772,231.952,268.025z"/>
		<path style="fill:#FFC269;" d="M323.912,350.303l-11.799,5.899c-6.503-45.523-34.111-69.943-44.299-77.538    c-2.138-1.594-5.087-1.32-6.898,0.637c-7.249,7.831-26.122,29.412-44.996,60.868l-12.053-6.027    c-2.35-1.175-5.178-0.458-6.656,1.713c-7.356,10.809-26.485,43.634-13.355,76.459h144.29c18.83-25.107,8.172-50.214,2.66-59.927    C329.425,349.956,326.412,349.053,323.912,350.303z"/>
		<path style="fill:#FFE07D;" d="M263.792,310.641c-30.83,50.904-59.063,42.339-63.905,93.659h104.21    c2.776-49.182-22.079-82.665-32.556-94.481C269.376,307.376,265.482,307.849,263.792,310.641z"/>
		<path style="fill:#C38C66;" d="M328.145,404.299h-144.29c-13.282,0-24.048,10.767-24.048,24.048v8.016h192.387v-8.016    C352.194,415.066,341.427,404.299,328.145,404.299z"/>
		<path style="fill:#FFFFFF;" d="M259.64,351.526c-8.479,23.142-40.712,22.416-35.705,52.773h64.463    c0.76-27.63-15.409-46.603-23.248-54.145C263.378,348.449,260.486,349.217,259.64,351.526z"/>
		<path style="fill:#B57F5F;" d="M239.968,404.299h-56.113c-13.282,0-24.048,10.767-24.048,24.048v8.016h56.113v-8.016    C215.919,415.066,226.686,404.299,239.968,404.299z"/>
	</g>
	<path d="M504.5,428.864h-56.629V123.219h40.597c4.142,0,7.5-3.358,7.5-7.5s-3.358-7.5-7.5-7.5h-34.85l17.233-28.722   c2.131-3.552,0.979-8.159-2.572-10.29c-3.554-2.132-8.159-0.979-10.29,2.573l-17.617,29.362l-17.617-29.362   c-2.131-3.552-6.738-4.705-10.29-2.573c-3.552,2.131-4.704,6.738-2.572,10.29l17.233,28.722H84.875l17.233-28.722   c2.131-3.552,0.979-8.159-2.572-10.29c-3.554-2.132-8.159-0.979-10.29,2.573l-17.617,29.362L54.012,71.779   c-2.131-3.552-6.738-4.705-10.29-2.573c-3.552,2.131-4.704,6.738-2.572,10.29l17.233,28.722h-34.85c-4.142,0-7.5,3.358-7.5,7.5   s3.358,7.5,7.5,7.5h40.597v305.645H7.5c-4.142,0-7.5,3.358-7.5,7.5s3.358,7.5,7.5,7.5h497c4.142,0,7.5-3.358,7.5-7.5   S508.642,428.864,504.5,428.864z M432.871,123.219v305.645h-73.178v-0.516c0-12.071-6.817-22.575-16.801-27.878   c5.686-32.268-7.712-55.136-8.316-56.142c-2.016-3.361-6.28-4.602-9.785-2.85l-7.082,3.541   c-3.962-18.048-11.017-32.545-18.595-43.829c17.978-13.493,28.515-34.387,28.515-57.214v-16.548h0.516c4.142,0,7.5-3.358,7.5-7.5   s-3.358-7.5-7.5-7.5h-0.516v-0.516v-32.065c0-23.015-10.923-43.516-27.844-56.629H432.871z M193.496,357.272   c2.919-6.566,6.254-11.995,8.69-15.583l10.379,5.19c3.504,1.752,7.769,0.511,9.785-2.85c17.299-28.832,34.75-49.354,42.63-58.051   c10.311,8.202,33.954,31.014,39.707,71.285c0.341,2.386,1.809,4.464,3.944,5.583c2.136,1.119,4.679,1.143,6.835,0.065l9.128-4.564   c2.876,7.531,6.476,21.302,3.697,38.456c-0.049,0-0.098-0.004-0.147-0.004h-32.436c-2.608-35.089-28.987-55.371-30.188-56.274   c-2.072-1.56-4.802-1.939-7.221-1.002c-2.418,0.937-4.181,3.057-4.661,5.606c-1.859,9.875-8.334,14.563-15.833,19.991   c-8.944,6.474-19.819,14.363-19.578,31.68H188.29C185.382,384.885,187.123,371.606,193.496,357.272z M199.371,227.428h72.66   c4.142,0,7.5-3.358,7.5-7.5s-3.358-7.5-7.5-7.5h-72.66v-0.516v-32.065c0-31.225,25.404-56.629,56.629-56.629   s56.629,25.404,56.629,56.629v32.065v0.516h-8.533c-4.142,0-7.5,3.358-7.5,7.5s3.358,7.5,7.5,7.5h8.533v16.548   c0,18.076-8.359,34.623-22.619,45.291c-11.176-12.921-21.285-19.148-22.135-19.658c-2.951-1.771-6.729-1.306-9.162,1.128   c-0.618,0.618-9.852,9.927-22.48,26.322c-21.916-8.167-36.861-29.375-36.861-53.083V227.428z M233.218,396.799   c-0.217-9.679,5.159-13.575,13.384-19.529c5.903-4.273,12.824-9.283,17.436-17.373c6.472,7.41,14.994,20.116,16.613,36.902H233.218   z M183.855,411.799h144.29c9.125,0,16.548,7.423,16.548,16.548v0.516H167.307v-0.516   C167.307,419.222,174.73,411.799,183.855,411.799z M79.129,123.219h133.086c-16.921,13.113-27.844,33.614-27.844,56.629v32.065   v0.516h-0.516c-4.142,0-7.5,3.358-7.5,7.5s3.358,7.5,7.5,7.5h0.516v16.548c0,28.53,17.123,54.187,42.666,65.512   c-4.472,6.291-9.168,13.266-13.923,20.894l-9.873-4.937c-3.112-1.556-6.888-0.767-9.116,1.907   c-1.225,1.47-28.588,34.857-20.814,71.265c-12.226,4.349-21.005,16.031-21.005,29.73v0.516H79.129V123.219z"/>
</g>















</svg>
