<?xml version="1.0" encoding="iso-8859-1"?>
<!-- Generator: Adobe Illustrator 19.0.0, SVG Export Plug-In . SVG Version: 6.00 Build 0)  -->
<svg xmlns="http://www.w3.org/2000/svg" xmlns:xlink="http://www.w3.org/1999/xlink" version="1.1" id="Capa_1" x="0px" y="0px" viewBox="0 0 512 512" style="enable-background:new 0 0 512 512;" xml:space="preserve" width="512" height="512">
<g>
	<g>
		<polygon style="fill:#B57F5F;" points="55.597,119.726 15.516,151.79 55.597,183.855 256,183.855 256,119.726   "/>
		<polygon style="fill:#9F6E50;" points="25.536,159.806 55.597,183.855 256,183.855 256,159.806   "/>
		<polygon style="fill:#B57F5F;" points="456.403,55.597 496.484,87.661 456.403,119.726 256,119.726 256,55.597   "/>
		<polygon style="fill:#9F6E50;" points="256,95.68 256,119.726 456.403,119.726 486.461,95.68   "/>
		<path style="fill:#C38C66;" d="M256,7.5L256,7.5c-8.854,0-16.032,7.178-16.032,16.032V504.5h32.065V23.532    C272.032,14.678,264.854,7.5,256,7.5z"/>
		<path style="fill:#C3DDFF;" d="M199.887,183.855c0,0,2.338-21.042-16.7-31.063c-17.084-8.992-28.724-1.002-47.763-1.002    c-32.065,0-31.397-32.065-63.795-32.065h168.339v64.129H199.887z"/>
		<path style="fill:#DBEAFF;" d="M159.806,135.758c35.091-2.827,48.321,12.232,53.25,22.675c2.685,5.688,8.281,9.39,14.571,9.39    h12.34v-48.097H130.263C134.14,128.243,142.514,137.151,159.806,135.758z"/>
		<path style="fill:#DBEAFF;" d="M256,7.5L256,7.5c8.854,0,16.032,7.178,16.032,16.032v16.032h-32.065V23.532    C239.968,14.678,247.145,7.5,256,7.5z"/>
		<path style="fill:#DBEAFF;" d="M456.403,119.726l40.081-32.064l-40.08-32.065H320.129c40.832,0,30.561,32.065,76.153,32.065    c40.081,0,45.425,32.065,45.425,32.065L456.403,119.726L456.403,119.726z"/>
		<path style="fill:#C3DDFF;" d="M432.355,79.645c-21.042-13.527-53.107,5.511-64.129-24.048h-48.097    c40.832,0,30.561,32.065,76.153,32.065c40.081,0,45.425,32.065,45.425,32.065h14.696l21.671-17.336    C453.147,108.704,448.012,89.71,432.355,79.645z"/>
	</g>
	<path d="M501.169,81.805L461.088,49.74c-1.33-1.064-2.982-1.644-4.685-1.644H279.532V23.532C279.532,10.556,268.976,0,256,0   s-23.532,10.556-23.532,23.532v88.694H55.597c-1.703,0-3.355,0.58-4.685,1.644l-40.081,32.064   c-1.779,1.423-2.815,3.578-2.815,5.856s1.036,4.433,2.815,5.856l40.081,32.064c1.33,1.064,2.982,1.644,4.685,1.644h96.191   c4.142,0,7.5-3.358,7.5-7.5s-3.358-7.5-7.5-7.5H58.228L27.522,151.79l30.706-24.564h13.401c13.1,0,19.119,6.115,26.739,13.856   c8.401,8.535,17.924,18.208,37.056,18.208c7.084,0,13.187-1.003,18.571-1.888c9.665-1.588,16.648-2.736,25.699,2.027   c8.347,4.393,11.296,11.621,12.302,16.926h-8.143c-4.142,0-7.5,3.358-7.5,7.5s3.358,7.5,7.5,7.5h48.615V497h-8.532   c-4.142,0-7.5,3.358-7.5,7.5s3.358,7.5,7.5,7.5h64.129c4.142,0,7.5-3.358,7.5-7.5s-3.358-7.5-7.5-7.5h-8.532v-8.528   c0-4.142-3.358-7.5-7.5-7.5s-7.5,3.358-7.5,7.5V497h-17.064V175.323h17.064V456.4c0,4.142,3.358,7.5,7.5,7.5s7.5-3.358,7.5-7.5   V127.226h176.871c1.703,0,3.355-0.58,4.685-1.644l40.081-32.064c1.779-1.423,2.815-3.578,2.815-5.856   S502.948,83.228,501.169,81.805z M264.532,96.194h-17.064V79.129h17.064V96.194z M264.532,64.129h-17.064V47.064h17.064V64.129z    M247.468,111.194h17.064v17.064h-17.064V111.194z M256,15c4.705,0,8.532,3.827,8.532,8.532v8.532h-17.064v-8.532   C247.468,18.827,251.295,15,256,15z M207.144,176.355c-1.063-8.72-5.278-22.207-20.464-30.199   c-13.503-7.106-24.491-5.301-35.118-3.554c-5.053,0.831-10.279,1.689-16.138,1.689c-12.85,0-18.814-6.06-26.366-13.731   c-1.083-1.1-2.185-2.219-3.323-3.333h126.732v49.129H207.144z M247.468,160.323v-17.064h17.064v17.064H247.468z M279.532,63.097   h40.597c16.802,0,22.792,5.842,30.375,13.239c9.047,8.824,19.302,18.826,45.778,18.826c13.939,0,24.526,4.273,31.468,12.699   c1.212,1.471,2.204,2.952,3.026,4.365H279.532V63.097z M453.772,112.226h-6.359c-4.936-13.616-19.622-32.064-51.132-32.064   c-20.372,0-27.292-6.749-35.304-14.564c-0.847-0.826-1.706-1.663-2.589-2.501h95.383l30.706,24.565L453.772,112.226z"/>
</g>















</svg>
