<?xml version="1.0" encoding="iso-8859-1"?>
<!-- Generator: Adobe Illustrator 19.0.0, SVG Export Plug-In . SVG Version: 6.00 Build 0)  -->
<svg xmlns="http://www.w3.org/2000/svg" xmlns:xlink="http://www.w3.org/1999/xlink" version="1.1" id="Capa_1" x="0px" y="0px" viewBox="0 0 512 512" style="enable-background:new 0 0 512 512;" xml:space="preserve" width="512" height="512">
<g>
	<g>
		<path style="fill:#DAD8DB;" d="M467.954,92.374l15.466,20.622c1.478,1.97-0.503,4.655-2.818,3.816    c-24.657-8.94-101.974-35.467-155.462-37.088c-2.895-0.088-5.5-1.612-6.819-4.191c-3.516-6.87-12.531-19.935-30.256-19.935V23.532    c0,0,99.774,7.675,171.655,60.574C462.864,86.421,465.611,89.25,467.954,92.374z"/>
		<path style="fill:#C38C66;" d="M239.968,87.661v400.806c0,8.854,7.178,16.032,16.032,16.032s16.032-7.178,16.032-16.032V87.661    H239.968z"/>
		<rect x="239.968" y="95.677" style="fill:#B6B1B7;" width="32.065" height="56.113"/>
		<path style="fill:#DAD8DB;" d="M264.016,103.694h-16.032c-13.282,0-24.048-10.767-24.048-24.048V23.532    c0-8.854,7.178-16.032,16.032-16.032h32.065c8.854,0,16.032,7.178,16.032,16.032v56.113    C288.065,92.927,277.298,103.694,264.016,103.694z"/>
		<path style="fill:#DAD8DB;" d="M44.046,92.374L28.58,112.995c-1.478,1.97,0.503,4.655,2.818,3.816    c24.657-8.94,101.974-35.467,155.462-37.088c2.895-0.088,5.5-1.612,6.819-4.191c3.516-6.87,12.531-19.935,30.256-19.935V23.532    c0,0-99.774,7.675-171.655,60.574C49.136,86.421,46.389,89.25,44.046,92.374z"/>
		<path style="fill:#C8C5C9;" d="M186.86,79.723c2.895-0.088,5.5-1.613,6.819-4.192c3.515-6.87,12.531-19.935,30.256-19.935v-8.016    c-21.521,2.433-105.276,14.82-176.453,63.594C80.8,99.837,142.113,81.079,186.86,79.723z"/>
		<path style="fill:#C8C5C9;" d="M318.321,75.531c1.319,2.579,3.924,4.103,6.819,4.192c44.747,1.356,106.06,20.114,139.377,31.452    c-71.176-48.774-154.932-61.162-176.453-63.594v8.016C305.79,55.597,314.806,68.661,318.321,75.531z"/>
		<path style="fill:#C8C5C9;" d="M247.984,55.597V7.5h-8.016c-8.854,0-16.032,7.178-16.032,16.032v56.113    c0,13.282,10.767,24.048,24.048,24.048h16.032c13.282,0,24.048-10.767,24.048-24.048h-16.032    C258.751,79.645,247.984,68.878,247.984,55.597z"/>
		<rect x="239.968" y="151.79" style="fill:#B57F5F;" width="32.065" height="24.048"/>
	</g>
	<path d="M494.468,115.226l-24.048-32.064c-0.4-0.533-0.869-1.011-1.396-1.42C404.969,31.92,317.976,19.23,294.529,16.629   C291.572,7.012,282.606,0,272.032,0h-32.064c-10.574,0-19.54,7.012-22.497,16.629C194.024,19.23,107.031,31.92,42.976,81.741   c-0.526,0.409-0.996,0.887-1.396,1.42l-24.048,32.064c-2.006,2.675-1.999,6.354,0.017,9.022c1.449,1.917,3.684,2.979,5.986,2.979   c0.9,0,1.812-0.163,2.689-0.5c1.029-0.396,103.664-39.581,165.647-39.581c3.198,0,6.058-2.068,7.103-5.091   c0.227-0.656,4.933-13.831,17.462-17.819v15.41c0,11.758,6.47,22.027,16.032,27.453v60.728c0,4.142,3.358,7.5,7.5,7.5   s7.5-3.358,7.5-7.5v-8.535h17.064v329.177c0,4.705-3.828,8.532-8.532,8.532s-8.532-3.828-8.532-8.532V199.89   c0-4.142-3.358-7.5-7.5-7.5s-7.5,3.358-7.5,7.5v288.578C232.468,501.443,243.024,512,256,512s23.532-10.557,23.532-23.532v-381.37   c9.562-5.426,16.032-15.695,16.032-27.453v-15.41c12.529,3.988,17.233,17.157,17.449,17.782c1.021,3.063,3.887,5.128,7.115,5.128   c4.743,0,9.923,0.234,15.395,0.697c0.215,0.018,0.428,0.027,0.64,0.027c3.856,0,7.134-2.957,7.465-6.869   c0.349-4.127-2.714-7.756-6.842-8.105c-4.064-0.344-7.993-0.57-11.734-0.677c-3.731-7.352-12.59-20.39-29.488-23.458V31.89   c25.389,3.176,105.386,16.355,163.463,61.083l8.481,11.309c-23.716-8.074-61.799-19.991-97.901-26.764   c-4.074-0.763-7.99,1.918-8.754,5.988c-0.764,4.071,1.917,7.991,5.989,8.754c56.545,10.609,118.317,34.23,118.934,34.467   c0.878,0.338,1.789,0.5,2.689,0.5c2.302,0,4.537-1.062,5.986-2.979C496.467,121.58,496.474,117.901,494.468,115.226z    M186.948,72.217c-46.219,1.317-108.738,20.49-142.408,31.998l8.433-11.243c57.997-44.665,138.058-57.887,163.463-61.078v16.865   C199.54,51.827,190.679,64.864,186.948,72.217z M264.532,144.29h-17.064v-33.11c0.172,0.003,0.343,0.013,0.516,0.013h16.032   c0.173,0,0.344-0.01,0.516-0.013V144.29z M280.564,79.645c0,9.125-7.423,16.548-16.548,16.548h-16.032   c-9.125,0-16.548-7.424-16.548-16.548V23.532c0-4.705,3.828-8.532,8.532-8.532h32.064c4.705,0,8.532,3.828,8.532,8.532V79.645z"/>
</g>















</svg>
