<?xml version="1.0" encoding="iso-8859-1"?>
<!-- Generator: Adobe Illustrator 19.0.0, SVG Export Plug-In . SVG Version: 6.00 Build 0)  -->
<svg xmlns="http://www.w3.org/2000/svg" xmlns:xlink="http://www.w3.org/1999/xlink" version="1.1" id="Capa_1" x="0px" y="0px" viewBox="0 0 512 512" style="enable-background:new 0 0 512 512;" xml:space="preserve" width="512" height="512">
<g>
	<g>
		<rect x="183.855" y="103.694" style="fill:#DAD8DB;" width="144.29" height="64.129"/>
		<circle style="fill:#FFEAA8;" cx="256" cy="304.097" r="120.242"/>
		<circle style="fill:#FFF5D7;" cx="256" cy="304.097" r="96.194"/>
		<circle style="fill:#FFFFFF;" cx="256" cy="304.097" r="72.145"/>
		<path style="fill:#DAD8DB;" d="M304.097,71.631h-96.195c-13.282,0-24.048,10.767-24.048,24.048v72.145h144.291V95.679    C328.145,82.398,317.378,71.631,304.097,71.631z"/>
		<path style="fill:#C8C5C9;" d="M239.967,71.631h-32.065c-13.282,0-24.048,10.767-24.048,24.048v72.145h32.065V95.679    C215.918,82.398,226.685,71.631,239.967,71.631z"/>
		<path style="fill:#C8C5C9;" d="M328.145,103.694h-144.29v56.113h32.065v-8.016c0-13.282,10.767-24.048,24.048-24.048h88.177    V103.694z"/>
		<path style="fill:#6F6571;" d="M215.919,103.694v16.032c0,8.854,7.178,16.032,16.032,16.032h48.097    c8.854,0,16.032-7.178,16.032-16.032v-16.032H215.919z"/>
		<path style="fill:#FFEAA8;" d="M259.7,263.109c-1.888-3.488-6.692-3.983-9.256-0.957c-9.179,10.833-26.508,34.405-26.508,57.977    c0,8.483,3.417,16.083,8.796,21.817c-0.462-1.862-0.78-3.78-0.78-5.785c0-13.282,10.767-24.048,24.048-24.048    c13.282,0,24.048,10.767,24.048,24.048c0,1.954-0.297,3.827-0.737,5.646c4.158-4.502,7.156-10.109,8.266-16.302    C290.981,306.52,275.986,293.213,259.7,263.109z"/>
		<rect x="195.879" y="167.823" style="fill:#C8C5C9;" width="120.242" height="32.065"/>
		<rect x="195.879" y="167.823" style="fill:#B6B1B7;" width="52.105" height="32.065"/>
		<path style="fill:#5D5360;" d="M256,135.758h-24.048c-8.854,0-16.032-7.178-16.032-16.032v-16.032H256V135.758z"/>
		<path style="fill:#DAD8DB;" d="M328.145,440.371h-144.29c-13.282,0-24.048,10.767-24.048,24.048V504.5h192.387v-40.081    C352.194,451.138,341.427,440.371,328.145,440.371z"/>
		<path style="fill:#C8C5C9;" d="M231.952,440.371h-48.097c-13.282,0-24.048,10.767-24.048,24.048V504.5h48.097v-40.081    C207.903,451.138,218.67,440.371,231.952,440.371z"/>
		<path style="fill:#F6D190;" d="M280.048,376.242h-48.097c-4.427,0-8.016,3.589-8.016,8.016v24.048h64.129v-24.048    C288.065,379.831,284.476,376.242,280.048,376.242z"/>
		<rect x="191.871" y="405.762" style="fill:#C8C5C9;" width="128.258" height="34.609"/>
		<rect x="191.871" y="405.762" style="fill:#B6B1B7;" width="48.097" height="34.609"/>
	</g>
	<path d="M431.487,400.059L396.795,168.78c-3.522-23.48-23.312-40.522-47.054-40.522h-14.096v-17.064h0.516   c4.142,0,7.5-3.358,7.5-7.5s-3.358-7.5-7.5-7.5h-0.516v-0.514c0-17.396-14.152-31.548-31.548-31.548h-16.548V31.548   C287.548,14.153,273.396,0,256,0s-31.548,14.153-31.548,31.548v32.583h-16.549c-17.396,0-31.548,14.153-31.548,31.548v0.514h-0.515   c-4.142,0-7.5,3.358-7.5,7.5s3.358,7.5,7.5,7.5h0.515v17.064h-14.095c-23.743,0-43.532,17.042-47.054,40.522L80.513,400.059   c-2.403,16.022,2.282,32.251,12.854,44.527c10.572,12.276,25.927,19.317,42.128,19.317h16.825   c-0.003,0.172-0.013,0.343-0.013,0.516V497h-8.532c-4.142,0-7.5,3.358-7.5,7.5s3.358,7.5,7.5,7.5h224.451   c4.142,0,7.5-3.358,7.5-7.5s-3.358-7.5-7.5-7.5h-8.532v-32.581c0-0.173-0.01-0.344-0.013-0.516h16.825   c16.201,0,31.556-7.041,42.128-19.317C429.206,432.311,433.891,416.081,431.487,400.059z M239.452,31.548   C239.452,22.424,246.875,15,256,15s16.548,7.424,16.548,16.548v32.583h-33.097V31.548z M191.354,95.679   c0-9.125,7.423-16.548,16.548-16.548h96.194c9.125,0,16.548,7.424,16.548,16.548v0.514H191.354V95.679z M231.952,128.258   c-4.705,0-8.532-3.828-8.532-8.532v-8.532H248.5v17.064H231.952z M263.5,111.194h25.081v8.532c0,4.705-3.828,8.532-8.532,8.532   H263.5V111.194z M208.419,111.194v8.532c0,12.976,10.557,23.532,23.532,23.532h48.097c12.976,0,23.532-10.556,23.532-23.532v-8.532   h17.064v49.129h-24.566c-4.142,0-7.5,3.358-7.5,7.5s3.358,7.5,7.5,7.5h8.534v17.065h-97.226v-17.065h56.627   c4.142,0,7.5-3.358,7.5-7.5s-3.358-7.5-7.5-7.5h-72.66v-49.129H208.419z M313.778,400.806h-18.213v-16.548   c0-8.556-6.96-15.516-15.516-15.516H263.5v-9.76c15.792-3.035,28.551-15.926,31.46-32.152c2.903-16.194-5.063-28.765-15.147-44.679   c-5.227-8.248-11.15-17.597-17.104-29.504c-1.078-2.156-3.127-3.663-5.507-4.049c-2.377-0.386-4.799,0.395-6.504,2.1   c-1.399,1.399-34.261,34.661-34.261,69.432c0,11.336,4.875,22.146,13.376,29.657c5.333,4.713,11.804,7.837,18.688,9.168v9.788   h-16.548c-8.556,0-15.516,6.96-15.516,15.516v16.548h-18.213c-33.953-20.334-54.964-57.207-54.964-96.71   s21.011-76.376,54.964-96.709h115.556c33.953,20.334,54.964,57.206,54.964,96.709S347.73,380.473,313.778,400.806z    M231.436,400.806v-16.548c0-0.285,0.231-0.516,0.516-0.516h48.097c0.285,0,0.516,0.231,0.516,0.516v16.548H231.436z    M280.195,324.183c-1.611,8.987-8.332,16.527-16.695,19.314v-7.335c0-4.142-3.358-7.5-7.5-7.5s-7.5,3.358-7.5,7.5v7.374   c-3.187-1.018-6.156-2.692-8.756-4.99c-5.28-4.665-8.308-11.378-8.308-18.416c0-19.749,14.178-40.21,22.999-51.028   c4.55,8.203,8.962,15.166,12.708,21.077C277.223,306.087,281.989,314.178,280.195,324.183z M135.495,448.903   c-11.83,0-23.042-5.141-30.762-14.105c-7.719-8.964-11.141-20.815-9.386-32.514l34.692-231.279   c2.412-16.078,15.962-27.748,32.22-27.748h14.095v17.064h-0.518c-4.142,0-7.5,3.358-7.5,7.5s3.358,7.5,7.5,7.5h16.551v18.098   c-39.557,22.785-64.129,65.187-64.129,110.677c0,42.329,21.284,81.976,56.113,105.641v23.134h-0.516   c-11.758,0-22.027,6.47-27.453,16.032H135.495z M167.307,497v-32.581c0-9.125,7.423-16.548,16.548-16.548h24.048   c4.142,0,7.5-3.358,7.5-7.5s-3.358-7.5-7.5-7.5h-8.532v-17.065h113.258v17.065h-72.661c-4.142,0-7.5,3.358-7.5,7.5   s3.358,7.5,7.5,7.5h88.177c9.125,0,16.548,7.423,16.548,16.548V497H167.307z M407.268,434.798   c-7.72,8.964-18.932,14.105-30.762,14.105h-20.908c-5.426-9.562-15.695-16.032-27.453-16.032h-0.516v-23.134   c34.829-23.664,56.113-63.311,56.113-105.641c0-45.489-24.572-87.891-64.128-110.676v-18.098h16.548c4.142,0,7.5-3.358,7.5-7.5   s-3.358-7.5-7.5-7.5h-0.516v-17.064h14.096c16.258,0,29.808,11.67,32.22,27.748l34.692,231.279   C418.408,413.983,414.987,425.834,407.268,434.798z"/>
</g>















</svg>
