<?xml version="1.0" encoding="iso-8859-1"?>
<!-- Generator: Adobe Illustrator 19.0.0, SVG Export Plug-In . SVG Version: 6.00 Build 0)  -->
<svg xmlns="http://www.w3.org/2000/svg" xmlns:xlink="http://www.w3.org/1999/xlink" version="1.1" id="Capa_1" x="0px" y="0px" viewBox="0 0 512 512" style="enable-background:new 0 0 512 512;" xml:space="preserve" width="512" height="512">
<g>
	<g>
		<circle style="fill:#DAD8DB;" cx="268.024" cy="304.097" r="200.403"/>
		<circle style="fill:#F9EAC7;" cx="268.024" cy="304.097" r="160.323"/>
		<circle style="fill:#FFFFFF;" cx="268.024" cy="304.097" r="80.161"/>
		<circle style="fill:#C8C5C9;" cx="268.024" cy="87.661" r="16.032"/>
		<path style="fill:#C8C5C9;" d="M280.048,492.476c-110.68,0-200.403-89.723-200.403-200.403c0-52.281,20.036-99.87,52.828-135.551    c-39.857,36.629-64.852,89.177-64.852,147.575c0,110.68,89.724,200.403,200.403,200.403c58.399,0,110.946-24.995,147.575-64.852    C379.918,472.439,332.329,492.476,280.048,492.476z"/>
		<path style="fill:#F4DBB3;" d="M268.024,143.774c-48.355,0-91.604,21.502-120.999,55.356    c28.137-24.431,64.777-39.324,104.967-39.324c88.544,0,160.323,71.779,160.323,160.323c0,40.189-14.892,76.829-39.323,104.966    c33.853-29.395,55.356-72.644,55.356-120.998C428.347,215.553,356.568,143.774,268.024,143.774z"/>
		<path style="fill:#FF8086;" d="M280.687,332.331l-79.498,44.166c-3.598,1.999-7.563-1.967-5.564-5.564l44.166-79.498    c3.635-6.543,9.029-11.937,15.572-15.572l79.498-44.166c3.598-1.999,7.563,1.967,5.564,5.564l-44.166,79.498    C292.624,323.302,287.229,328.696,280.687,332.331z"/>
		<path style="fill:#E5646E;" d="M201.189,376.497l79.498-44.166c6.542-3.635,11.937-9.029,15.572-15.572l44.166-79.498    c1-1.799,0.507-3.69-0.684-4.881L196.308,375.813C197.499,377.005,199.39,377.496,201.189,376.497z"/>
		<circle style="fill:#6F6571;" cx="268.024" cy="304.097" r="24.048"/>
	</g>
	<g>
		<path d="M289.485,97.296c1.158-2.569,1.872-5.379,2.034-8.334c14.776-8.392,24.086-24.137,24.086-41.381    C315.605,21.344,294.26,0,268.024,0c-26.236,0-47.581,21.344-47.581,47.581c0,17.249,9.308,32.991,24.086,41.382    c0.162,2.956,0.876,5.765,2.033,8.334C144.417,107.819,63.978,192.604,60.271,296.597h-9.198v-8.532c0-4.142-3.358-7.5-7.5-7.5    s-7.5,3.358-7.5,7.5v32.065c0,4.142,3.358,7.5,7.5,7.5s7.5-3.358,7.5-7.5v-8.532h9.198C64.235,422.773,155.898,512,268.024,512    c114.638,0,207.903-93.265,207.903-207.903C475.927,196.704,394.078,108.071,289.485,97.296z M268.024,15    c17.965,0,32.581,14.615,32.581,32.581c0,10.58-5.12,20.335-13.463,26.385c-4.275-5.95-11.249-9.836-19.118-9.836    c-7.87,0-14.844,3.887-19.119,9.838c-8.344-6.05-13.462-15.803-13.462-26.386C235.443,29.615,250.059,15,268.024,15z     M259.492,87.661c0-4.705,3.828-8.532,8.533-8.532c4.705,0,8.532,3.828,8.532,8.532s-3.828,8.532-8.532,8.532    C263.319,96.194,259.492,92.366,259.492,87.661z M268.024,497c-106.367,0-192.903-86.536-192.903-192.903    s86.536-192.903,192.903-192.903s192.903,86.536,192.903,192.903S374.392,497,268.024,497z"/>
		<path d="M115.377,296.919c1.773-38.079,17.607-73.907,44.585-100.884s62.806-42.812,100.884-44.585    c37.814-1.763,74.718,10.426,103.88,34.32c3.205,2.625,7.93,2.156,10.555-1.048c2.625-3.204,2.156-7.929-1.048-10.555    c-32.034-26.246-72.553-39.638-114.085-37.7c-41.82,1.948-81.167,19.337-110.793,48.963    c-29.626,29.626-47.015,68.973-48.962,110.793c-1.935,41.535,11.454,82.051,37.7,114.085c1.482,1.81,3.635,2.747,5.806,2.747    c1.672,0,3.354-0.557,4.749-1.699c3.204-2.625,3.673-7.351,1.048-10.555C125.803,371.637,113.615,334.745,115.377,296.919z"/>
		<path d="M397.955,197.887c-2.625-3.204-7.35-3.673-10.555-1.048c-3.204,2.625-3.673,7.351-1.048,10.555    c23.893,29.163,36.081,66.055,34.319,103.881c-1.774,38.079-17.608,73.907-44.585,100.884s-62.806,42.812-100.884,44.585    c-37.825,1.767-74.719-10.426-103.88-34.319c-3.205-2.625-7.93-2.156-10.555,1.048c-2.625,3.204-2.156,7.93,1.048,10.555    c30.003,24.582,67.441,37.884,106.193,37.884c2.624,0,5.258-0.062,7.892-0.184c41.82-1.948,81.167-19.336,110.793-48.962    c29.626-29.626,47.015-68.973,48.963-110.793C437.59,270.438,424.201,229.922,397.955,197.887z"/>
		<path d="M188.671,390.953c1.244,0,2.497-0.309,3.64-0.944l92.018-51.121h0c7.774-4.319,14.166-10.711,18.486-18.486l51.121-92.018    c1.626-2.927,1.115-6.578-1.253-8.946c-2.368-2.368-6.019-2.879-8.945-1.253l-92.018,51.121    c-7.774,4.319-14.167,10.711-18.486,18.486l-51.121,92.018c-1.626,2.927-1.115,6.578,1.253,8.946    C184.809,390.199,186.729,390.953,188.671,390.953z M268.024,287.548c9.125,0,16.548,7.424,16.548,16.548    c0,9.125-7.423,16.549-16.548,16.549s-16.549-7.424-16.549-16.549C251.476,294.972,258.899,287.548,268.024,287.548z     M298.728,296.871c-2.73-11.602-11.877-20.748-23.478-23.478l52.826-29.348L298.728,296.871z M237.32,311.323    c2.73,11.601,11.877,20.748,23.478,23.478l-52.826,29.348L237.32,311.323z"/>
		<path d="M268.024,176.355c-4.142,0-7.5,3.358-7.5,7.5v8.79c-55.633,3.707-100.246,48.319-103.952,103.952h-8.79    c-4.142,0-7.5,3.358-7.5,7.5s3.358,7.5,7.5,7.5h8.794c0.961,14.296,4.669,28.163,11.079,41.316    c1.299,2.666,3.969,4.216,6.748,4.216c1.103,0,2.222-0.244,3.28-0.76c3.723-1.815,5.271-6.304,3.457-10.028    c-6.519-13.378-9.825-27.591-9.825-42.245c0-53.326,43.384-96.709,96.71-96.709c14.654,0,28.867,3.305,42.245,9.824    c3.726,1.814,8.213,0.267,10.028-3.457c1.814-3.723,0.267-8.213-3.457-10.028c-13.153-6.409-27.02-10.117-41.316-11.078v-8.794    C275.524,179.713,272.167,176.355,268.024,176.355z"/>
		<path d="M268.024,431.839c4.142,0,7.5-3.358,7.5-7.5v-8.79c55.633-3.707,100.245-48.319,103.952-103.952h8.79    c4.142,0,7.5-3.358,7.5-7.5s-3.358-7.5-7.5-7.5h-8.794c-0.961-14.296-4.669-28.163-11.079-41.316    c-1.815-3.724-6.302-5.271-10.028-3.457c-3.723,1.815-5.271,6.304-3.457,10.028c6.519,13.378,9.825,27.591,9.825,42.245    c0,53.326-43.384,96.71-96.709,96.71c-14.654,0-28.867-3.305-42.246-9.824c-3.723-1.814-8.213-0.267-10.027,3.457    s-0.267,8.213,3.457,10.028c13.153,6.409,27.02,10.117,41.316,11.078v8.794C260.524,428.481,263.882,431.839,268.024,431.839z"/>
	</g>
</g>















</svg>
