<?xml version="1.0" encoding="iso-8859-1"?>
<!-- Generator: Adobe Illustrator 19.0.0, SVG Export Plug-In . SVG Version: 6.00 Build 0)  -->
<svg xmlns="http://www.w3.org/2000/svg" xmlns:xlink="http://www.w3.org/1999/xlink" version="1.1" id="Capa_1" x="0px" y="0px" viewBox="0 0 512 512" style="enable-background:new 0 0 512 512;" xml:space="preserve" width="512" height="512">
<g>
	<g>
		<path style="fill:#C38C66;" d="M389.735,330.884l-53.574-26.787H175.839l-53.574,26.787    c-16.295,8.147-26.588,24.801-26.588,43.019V504.5h320.645V373.902C416.323,355.685,406.03,339.031,389.735,330.884z"/>
		<path style="fill:#785353;" d="M336.161,304.097H175.839l-39.656,19.827c32.23,27.596,74.06,44.302,119.817,44.302    s87.587-16.705,119.817-44.302L336.161,304.097z"/>
		<path style="fill:#F9EAC7;" d="M256,336.161L256,336.161c-84.117,0-152.307-68.19-152.307-152.306v-24.049    C103.694,75.69,171.883,7.5,256,7.5h0c84.116,0,152.306,68.19,152.306,152.306v24.049    C408.306,267.971,340.117,336.161,256,336.161z"/>
		<path style="fill:#F4DBB3;" d="M256,296.081L256,296.081c-61.981,0-112.226-50.245-112.226-112.226v-24.049    c0-61.981,50.245-112.226,112.226-112.226h0c61.981,0,112.226,50.245,112.226,112.226v24.049    C368.226,245.835,317.981,296.081,256,296.081z"/>
		<path style="fill:#F6D190;" d="M256,272.032L256,272.032c-48.699,0-88.178-39.478-88.178-88.177v-24.049    c0-48.699,39.478-88.177,88.177-88.177h0c48.699,0,88.177,39.478,88.177,88.177v24.049    C344.177,232.554,304.699,272.032,256,272.032z"/>
		<path style="fill:#ECBD83;" d="M244.16,271.232c15.778,2.131,30.783-0.103,44.226-5.421l-19.276-2.636    c-39.661-5.423-69.223-39.303-69.223-79.332l0-14.375c0-9.54,5.591-18.166,14.335-21.982    c25.071-10.944,57.604-28.377,85.321-53.765l5.192-4.755l1.624-1.487c-16.319-11.384-36.624-17.444-58.447-15.487    c-45.81,4.109-80.09,44.163-80.09,90.157v18.605C167.823,225.483,199.834,265.245,244.16,271.232z"/>
		<path style="fill:#FFFFFF;" d="M210.699,199.887c6.609,18.668,24.368,32.064,45.301,32.064s38.692-13.396,45.301-32.064H210.699z"/>
		<path style="fill:#F4DBB3;" d="M127.742,183.855v-24.049c0-80.057,61.804-145.551,140.282-151.699    C264.045,7.796,260.059,7.5,256,7.5c-84.117,0-152.306,68.19-152.306,152.306v24.049c0,84.117,68.19,152.306,152.306,152.306    c4.059,0,8.045-0.296,12.024-0.607C189.546,329.406,127.742,263.912,127.742,183.855z"/>
		<path style="fill:#785353;" d="M283.3,75.988c-8.602-2.801-17.763-4.359-27.3-4.359c-41.249,0-75.782,28.363-85.413,66.623    C190.69,131.941,243.006,112.896,283.3,75.988z"/>
	</g>
	<g>
		<path d="M391.787,324.417l-35.132-16.438c37.044-30.032,59.151-75.378,59.151-124.125v-24.049C415.807,71.689,344.118,0,256,0    S96.193,71.689,96.193,159.806v24.049c0,50.034,23.12,94.764,59.23,124.088l-35.211,16.475    c-19.461,9.105-32.036,28.872-32.036,50.357V504.5c0,4.142,3.358,7.5,7.5,7.5s7.5-3.358,7.5-7.5V374.774    c0-7.938,2.358-15.551,6.522-22.001l28.369,28.369c9.182,9.182,14.238,21.39,14.238,34.375V504.5c0,4.142,3.358,7.5,7.5,7.5    s7.5-3.358,7.5-7.5v-88.983c0-16.991-6.617-32.966-18.632-44.981l-28.649-28.649c2.039-1.478,4.216-2.795,6.544-3.884l9.526-4.457    c31.996,25.665,71.506,40.412,112.404,42.024V504.5c0,4.142,3.358,7.5,7.5,7.5s7.5-3.358,7.5-7.5V375.57    c40.892-1.613,80.41-16.362,112.403-42.024l9.528,4.458c2.327,1.089,4.504,2.406,6.544,3.884l-28.649,28.649    c-12.015,12.015-18.632,27.99-18.632,44.981V504.5c0,4.142,3.358,7.5,7.5,7.5s7.5-3.358,7.5-7.5v-88.983    c0-12.985,5.057-25.193,14.238-34.375l28.369-28.369c4.164,6.45,6.522,14.063,6.522,22.001V504.5c0,4.142,3.358,7.5,7.5,7.5    s7.5-3.358,7.5-7.5V374.774C423.823,353.289,411.248,333.523,391.787,324.417z M256,360.726    c-37.648,0-74.369-12.124-104.603-34.339l17.88-8.366c24.994,16.212,54.777,25.64,86.723,25.64    c14.266,0,28.415-1.882,42.054-5.593c3.997-1.087,6.355-5.209,5.268-9.206c-1.088-3.997-5.21-6.357-9.206-5.268    c-9.962,2.711-20.231,4.324-30.615,4.855v-49.211c49.264-3.838,88.177-45.151,88.177-95.384v-24.049    c0-52.757-42.921-95.677-95.677-95.677s-95.677,42.92-95.677,95.677v24.049c0,50.233,38.913,91.546,88.177,95.384v49.229    c-76.375-3.916-137.307-67.283-137.307-144.614v-24.049C111.193,79.96,176.153,15,256,15s144.807,64.96,144.807,144.806v24.049    c0,53.354-29.207,102.235-76.222,127.568c-3.646,1.965-5.01,6.514-3.045,10.16c1.964,3.646,6.513,5.011,10.16,3.045    c3.806-2.051,7.492-4.257,11.081-6.579l17.819,8.337C330.368,348.599,293.64,360.726,256,360.726z M175.323,159.806    c0-5.441,0.549-10.756,1.581-15.898c13.229-3.759,67.935-20.997,108.569-59.18c29.946,11.798,51.204,40.992,51.204,75.078v24.049    c0,44.485-36.192,80.677-80.677,80.677s-80.677-36.192-80.677-80.677V159.806z M182.605,126.374    C195.339,98.532,223.437,79.129,256,79.129c4.136,0,8.199,0.315,12.169,0.918C238.099,105.418,201.362,120.038,182.605,126.374z"/>
		<path d="M207.903,167.307h16.032c4.142,0,7.5-3.358,7.5-7.5s-3.358-7.5-7.5-7.5h-16.032c-4.142,0-7.5,3.358-7.5,7.5    S203.761,167.307,207.903,167.307z"/>
		<path d="M288.064,167.307h16.032c4.142,0,7.5-3.358,7.5-7.5s-3.358-7.5-7.5-7.5h-16.032c-4.142,0-7.5,3.358-7.5,7.5    S283.922,167.307,288.064,167.307z"/>
		<path d="M301.301,192.387h-90.603c-2.436,0-4.719,1.183-6.125,3.171c-1.406,1.989-1.758,4.536-0.945,6.832    c7.849,22.167,28.895,37.061,52.371,37.061s44.522-14.894,52.371-37.061c0.813-2.296,0.46-4.843-0.945-6.832    C306.021,193.57,303.737,192.387,301.301,192.387z M256,224.452c-13.303,0-25.538-6.556-33.028-17.064h66.056    C281.538,217.896,269.303,224.452,256,224.452z"/>
	</g>
</g>















</svg>
