<?xml version="1.0" encoding="iso-8859-1"?>
<!-- Generator: Adobe Illustrator 19.0.0, SVG Export Plug-In . SVG Version: 6.00 Build 0)  -->
<svg xmlns="http://www.w3.org/2000/svg" xmlns:xlink="http://www.w3.org/1999/xlink" version="1.1" id="Capa_1" x="0px" y="0px" viewBox="0 0 512 512" style="enable-background:new 0 0 512 512;" xml:space="preserve" width="512" height="512">
<g>
	<g>
		<path style="fill:#F4DBB3;" d="M328.145,304.097h-144.29l-49.143,24.571c-19.01,9.505-31.018,28.935-31.018,50.189V504.5h304.613    V378.857c0-21.254-12.008-40.684-31.018-50.189L328.145,304.097z"/>
		<path style="fill:#EAC89F;" d="M364.761,322.405l-36.616-18.308h-144.29l-36.616,18.308l3.202,2.403    C181.29,347.968,217.792,360.21,256,360.21c38.209,0,74.711-12.242,105.559-35.402L364.761,322.405z"/>
		<g>
			<path style="fill:#F9EAC7;" d="M256,336.161L256,336.161c-84.117,0-152.307-68.19-152.307-152.306v-24.049     C103.694,75.69,171.883,7.5,256,7.5h0c84.116,0,152.306,68.19,152.306,152.306v24.049     C408.306,267.971,340.117,336.161,256,336.161z"/>
		</g>
		<g>
			<path style="fill:#F4DBB3;" d="M256,296.081L256,296.081c-61.981,0-112.226-50.245-112.226-112.226v-24.049     c0-61.981,50.245-112.226,112.226-112.226h0c61.981,0,112.226,50.245,112.226,112.226v24.049     C368.226,245.835,317.981,296.081,256,296.081z"/>
		</g>
		<g>
			<path style="fill:#F4DBB3;" d="M127.742,183.855v-24.049c0-80.057,61.804-145.551,140.282-151.699     C264.045,7.796,260.059,7.5,256,7.5c-84.117,0-152.306,68.19-152.306,152.306v24.049c0,84.117,68.19,152.306,152.306,152.306     c4.059,0,8.045-0.296,12.024-0.607C189.546,329.406,127.742,263.912,127.742,183.855z"/>
		</g>
		<g>
			<path style="fill:#F6D190;" d="M256,272.032L256,272.032c-48.699,0-88.178-39.478-88.178-88.177v-24.049     c0-48.699,39.478-88.177,88.177-88.177h0c48.699,0,88.177,39.478,88.177,88.177v24.049     C344.177,232.554,304.699,272.032,256,272.032z"/>
		</g>
		<path style="fill:#ECBD83;" d="M244.16,271.232c15.778,2.131,30.783-0.103,44.226-5.421l-19.276-2.636    c-39.661-5.423-69.223-39.303-69.223-79.332v-24.027c0-5.91,3.307-11.25,8.481-14.107c20.7-11.434,39.537-25.039,56.047-40.487    l5.079-4.752l2.539-2.376v-3.477v-6.955V73.156c-16.536-3.041-34.454-2.163-53.88,8.421c-31.682,17.262-50.33,51.552-50.33,87.631    v11.546C167.823,225.483,199.834,265.245,244.16,271.232z"/>
		<circle style="fill:#C38C66;" cx="191.871" cy="344.177" r="16.032"/>
		<g>
			<path style="fill:#643C3E;" d="M247.984,87.661V72.034c-37.284,3.365-67.786,29.933-77.123,65.156     C185.31,131.218,217.947,115.767,247.984,87.661z"/>
		</g>
		<g>
			<path style="fill:#785353;" d="M343.896,154.233c-2.889-46.089-41.078-82.604-87.896-82.604c-11.928,0-23.29,2.397-33.667,6.69     C264.384,120.718,317.568,144.364,343.896,154.233z"/>
		</g>
		<circle style="fill:#C38C66;" cx="320.129" cy="344.177" r="16.032"/>
	</g>
	<g>
		<path d="M207.903,175.323h16.032c4.142,0,7.5-3.358,7.5-7.5s-3.358-7.5-7.5-7.5h-16.032c-4.142,0-7.5,3.358-7.5,7.5    S203.761,175.323,207.903,175.323z"/>
		<path d="M288.064,175.323h16.032c4.142,0,7.5-3.358,7.5-7.5s-3.358-7.5-7.5-7.5h-16.032c-4.142,0-7.5,3.358-7.5,7.5    S283.922,175.323,288.064,175.323z"/>
		<path d="M415.807,183.855v-24.049C415.807,71.689,344.118,0,256,0S96.193,71.689,96.193,159.806v24.049    c0,51.395,24.394,97.194,62.205,126.446l-25.551,11.955c-22.267,10.418-36.654,33.034-36.654,57.618V504.5    c0,4.142,3.358,7.5,7.5,7.5s7.5-3.358,7.5-7.5V379.874c0-7.34,1.685-14.447,4.745-20.862l22.13,22.13    c9.182,9.182,14.238,21.39,14.238,34.375V504.5c0,4.142,3.358,7.5,7.5,7.5s7.5-3.358,7.5-7.5v-88.983    c0-16.991-6.617-32.966-18.632-44.981l-24.105-24.105c4.113-4.349,9.046-7.974,14.635-10.588l33.485-15.667    c2.247,1.378,4.529,2.704,6.848,3.972c-6.713,4.149-11.198,11.575-11.198,20.03c0,10.354,6.724,19.16,16.032,22.3V504.5    c0,4.142,3.358,7.5,7.5,7.5s7.5-3.358,7.5-7.5v-24.564h113.258V504.5c0,4.142,3.358,7.5,7.5,7.5s7.5-3.358,7.5-7.5V366.477    c9.308-3.139,16.032-11.946,16.032-22.3c0-8.455-4.484-15.88-11.198-20.03c2.318-1.269,4.6-2.594,6.847-3.972l33.485,15.667    c5.588,2.615,10.521,6.24,14.635,10.588l-24.105,24.105c-12.015,12.016-18.632,27.99-18.632,44.981V504.5    c0,4.142,3.358,7.5,7.5,7.5s7.5-3.358,7.5-7.5v-88.983c0-12.985,5.057-25.193,14.238-34.375l22.13-22.13    c3.06,6.415,4.745,13.522,4.745,20.862V504.5c0,4.142,3.358,7.5,7.5,7.5s7.5-3.358,7.5-7.5V379.874    c0-24.583-14.388-47.2-36.654-57.618l-25.551-11.955C391.412,281.049,415.807,235.25,415.807,183.855z M191.871,335.645    c4.705,0,8.532,3.828,8.532,8.532s-3.828,8.532-8.532,8.532s-8.532-3.828-8.532-8.532S187.167,335.645,191.871,335.645z     M199.371,464.936v-57.145h113.258v57.145H199.371z M320.129,352.709c-4.705,0-8.532-3.828-8.532-8.532s3.828-8.532,8.532-8.532    s8.532,3.828,8.532,8.532S324.833,352.709,320.129,352.709z M312.629,366.477v26.314H199.371v-26.314    c9.308-3.139,16.032-11.946,16.032-22.3c0-2.057-0.267-4.052-0.765-5.955c13.199,3.54,27.062,5.439,41.362,5.439    s28.163-1.899,41.362-5.439c-0.498,1.903-0.765,3.898-0.765,5.955C296.597,354.531,303.321,363.337,312.629,366.477z     M263.5,328.469v-49.229c49.264-3.838,88.177-45.151,88.177-95.384v-24.049c0-52.757-42.921-95.677-95.677-95.677    s-95.677,42.92-95.677,95.677v24.049c0,24.515,9.261,47.83,26.078,65.651c2.842,3.012,7.589,3.151,10.602,0.307    c3.013-2.843,3.15-7.589,0.307-10.602c-14.179-15.026-21.987-34.685-21.987-55.356v-24.049c0-5.506,0.558-10.884,1.614-16.083    c8.421-2.993,36.394-13.997,63.215-36.417c40.032,31.668,84.054,46.842,96.48,50.713c0.013,0.596,0.045,1.188,0.045,1.787v24.049    c0,44.485-36.192,80.677-80.677,80.677c-12.918,0-25.256-2.959-36.669-8.794c-3.688-1.886-8.206-0.424-10.092,3.264    c-1.886,3.688-0.424,8.206,3.264,10.092c11.319,5.787,23.398,9.181,35.998,10.144v49.23    c-76.375-3.916-137.307-67.283-137.307-144.614v-24.049C111.193,79.96,176.153,15,256,15s144.807,64.96,144.807,144.806v24.049    C400.807,261.186,339.875,324.553,263.5,328.469z M218.816,88.245c3.16,3.201,6.394,6.278,9.682,9.234    c-16.69,13.519-33.856,22.426-45.263,27.504C190.805,109.229,203.353,96.313,218.816,88.245z M234.061,82.186    c6.981-1.976,14.334-3.057,21.939-3.057c38.183,0,70.232,26.672,78.554,62.357C315.21,134.684,269.899,116.221,234.061,82.186z"/>
		<path d="M217.771,211.648c-2.359,3.404-1.512,8.077,1.893,10.436c8.577,5.943,21.821,9.352,36.336,9.352    s27.759-3.409,36.336-9.352c3.405-2.359,4.252-7.032,1.893-10.436c-2.359-3.404-7.031-4.253-10.436-1.893    c-5.947,4.121-16.597,6.681-27.793,6.681s-21.846-2.56-27.793-6.681C224.803,207.396,220.129,208.243,217.771,211.648z"/>
	</g>
</g>















</svg>
