<?xml version="1.0" encoding="iso-8859-1"?>
<!-- Generator: Adobe Illustrator 19.0.0, SVG Export Plug-In . SVG Version: 6.00 Build 0)  -->
<svg xmlns="http://www.w3.org/2000/svg" xmlns:xlink="http://www.w3.org/1999/xlink" version="1.1" id="Capa_1" x="0px" y="0px" viewBox="0 0 512.001 512.001" style="enable-background:new 0 0 512.001 512.001;" xml:space="preserve" width="512" height="512">
<g>
	<g>
		<path style="fill:#F6D190;" d="M256,272.033L256,272.033c-48.699,0-88.178-39.478-88.178-88.177v-24.049    c0-48.699,39.478-88.177,88.177-88.177h0c48.699,0,88.177,39.478,88.177,88.177v24.049    C344.178,232.555,304.699,272.033,256,272.033z"/>
		<path style="fill:#ECBD83;" d="M324.02,103.694H187.981c-12.592,15.246-20.158,34.796-20.158,56.113v20.949    c0,44.73,32.015,84.493,76.343,90.478c15.776,2.13,30.779-0.104,44.222-5.422l-19.277-2.636    c-39.661-5.423-69.223-39.302-69.223-79.332v-31.499c0-8.854,7.178-16.032,16.032-16.032h122.155l2.698-0.555    C337.404,123.869,331.681,112.97,324.02,103.694z"/>
		<path style="fill:#A4CCFF;" d="M182.151,111.71h147.7C314.114,87.598,286.941,71.63,256,71.63S197.887,87.598,182.151,111.71z"/>
		<path style="fill:#A4CCFF;" d="M388.609,315.179l-31.242-14.618c-8.455-3.956-13.857-12.448-13.857-21.782v-78.891H168.491v78.891    c0,9.334-5.402,17.826-13.856,21.782l-31.243,14.618c-16.91,7.912-27.714,24.895-27.714,43.564v145.758h320.645V358.743    C416.323,340.074,405.519,323.091,388.609,315.179z"/>
		<path style="fill:#4B3F4E;" d="M168.491,199.888v78.891c0,2.865-0.563,5.627-1.513,8.226    c20.903,20.165,52.958,33.125,89.022,33.125s68.119-12.96,89.022-33.125c-0.95-2.599-1.513-5.361-1.513-8.226v-78.891H168.491z"/>
		<path style="fill:#5D5360;" d="M169.349,199.888c7.549,41.033,43.435,72.145,86.651,72.145s79.102-31.112,86.651-72.145H169.349z"/>
		<rect x="95.678" y="408.307" style="fill:#966A5B;" width="320.645" height="96.194"/>
		<path style="fill:#5D5360;" d="M343.51,240.606c-25.263,25.242-86.809,62.879-175.152,47.591    c20.92,19.454,52.323,31.933,87.642,31.933c36.064,0,68.119-12.96,89.022-33.125c-0.95-2.599-1.513-5.361-1.513-8.226V240.606z"/>
		<path style="fill:#EAC89F;" d="M261.554,7.599c-1.874-0.067-9.234-0.067-11.108,0c-82.533,2.935-146.752,73.272-146.752,155.858    v20.398c0,21.834,4.672,42.544,12.987,61.291c5.11,11.523,16.644,18.87,29.249,18.87c22.961,0,38.706-23.565,29.399-44.555    c-4.825-10.883-7.507-22.927-7.507-35.607v-24.048c0-48.693,39.486-88.099,88.177-88.108    c48.691,0.009,88.177,39.415,88.177,88.108v24.048c0,12.679-2.682,24.724-7.507,35.607c-9.306,20.99,6.439,44.555,29.399,44.555    c12.605,0,24.139-7.348,29.249-18.87c8.315-18.747,12.987-39.456,12.987-61.291v-20.398    C408.307,80.872,344.088,10.534,261.554,7.599z"/>
		<path style="fill:#D2AC8C;" d="M140.729,245.146c-8.315-18.747-12.987-39.456-12.987-61.291v-20.398    c0-80.396,60.915-148.996,140.282-155.295c-2.162-0.172-4.282-0.485-6.47-0.563c-1.874-0.067-9.234-0.067-11.108,0    c-82.533,2.935-146.752,73.272-146.752,155.858v20.398c0,21.834,4.672,42.544,12.987,61.291    c5.11,11.523,16.644,18.87,29.249,18.87c4.344,0,8.426-0.849,12.132-2.359C150.485,258.639,144.152,252.863,140.729,245.146z"/>
	</g>
	<g>
		<path d="M391.788,308.386l-31.243-14.618c-5.792-2.71-9.535-8.594-9.535-14.989v-10.235c4.703,1.93,9.8,2.973,15.061,2.973    c15.647,0,29.819-9.157,36.105-23.33c9.045-20.393,13.631-42.037,13.631-64.332v-20.398c0-42.087-15.783-82.188-44.441-112.914    C342.411,19.499,303.507,1.586,261.821,0.104c-43.83-1.554-85.3,14.317-116.784,44.701    c-31.498,30.397-48.844,71.239-48.844,115.001v24.049c0,22.294,4.586,43.938,13.631,64.332    c6.286,14.172,20.458,23.33,36.106,23.33c5.261,0,10.357-1.043,15.061-2.973v10.235c0,6.395-3.743,12.279-9.535,14.989    l-31.243,14.618c-19.46,9.105-32.035,28.872-32.035,50.357v145.758c0,4.142,3.358,7.5,7.5,7.5s7.5-3.358,7.5-7.5v-88.693h49.129    v88.693c0,4.142,3.358,7.5,7.5,7.5s7.5-3.358,7.5-7.5v-88.693H248.5v88.693c0,4.142,3.358,7.5,7.5,7.5c4.142,0,7.5-3.358,7.5-7.5    v-88.693h40.596c4.142,0,7.5-3.358,7.5-7.5s-3.358-7.5-7.5-7.5H263.5v-73.382c28.783-1.505,56.476-11.635,79.398-29.033    c2.98,3.754,6.805,6.862,11.29,8.961l31.242,14.618c2.328,1.089,4.505,2.406,6.544,3.884l-28.649,28.649    c-12.015,12.016-18.632,27.99-18.632,44.981v1.322h-8.533c-4.142,0-7.5,3.358-7.5,7.5s3.358,7.5,7.5,7.5h8.533v88.693    c0,4.142,3.358,7.5,7.5,7.5s7.5-3.358,7.5-7.5v-88.693h49.129v88.693c0,4.142,3.358,7.5,7.5,7.5s7.5-3.358,7.5-7.5V358.743    C423.823,337.257,411.248,317.491,391.788,308.386z M175.991,257.701c1.14-1.33,2.206-2.739,3.178-4.233    c1.607-2.47,2.904-5.077,3.902-7.766c17.563,20.68,43.735,33.831,72.929,33.831c1.065,0,2.125-0.021,3.181-0.056    c-26.095,7.417-54.001,7.411-83.215-0.032c0.005-0.223,0.024-0.443,0.024-0.667V257.701z M256,264.533    c-13.535,0-26.296-3.358-37.506-9.274c43.48-8.41,71.644-32.013,86.241-47.871h28.404    C323.044,240.425,292.298,264.533,256,264.533z M200.841,242.65c-10.137-9.523-17.815-21.631-21.98-35.262h104.441    C266.504,222.19,239.42,239.012,200.841,242.65z M145.93,256.517c-9.721,0-18.511-5.657-22.394-14.412    c-8.19-18.465-12.343-38.063-12.343-58.25v-24.049c0-39.654,15.719-76.663,44.26-104.208    c28.528-27.532,66.11-41.907,105.834-40.504c37.686,1.34,72.883,17.563,99.108,45.68c26.059,27.94,40.411,64.407,40.411,102.683    v20.398c0,20.186-4.153,39.784-12.343,58.25c-3.883,8.755-12.673,14.412-22.394,14.412c-8.367,0-16.092-4.197-20.665-11.228    c-4.528-6.96-5.212-15.266-1.877-22.787c5.408-12.197,8.15-25.2,8.15-38.646v-24.048c0-25.888-10.174-50.135-28.648-68.274    c-18.47-18.135-42.908-27.857-68.818-27.387c-34.386,0.629-65.983,20.594-82.46,52.104c-1.919,3.671-0.5,8.202,3.17,10.122    c3.67,1.92,8.202,0.5,10.122-3.17c0.71-1.358,1.462-2.685,2.237-3.991h138.459c7.124,12.186,10.938,26.08,10.938,40.597v24.048    c0,2.873-0.175,5.715-0.478,8.532h-160.41c-0.302-2.816-0.466-5.66-0.466-8.532v-21.125c0-3.354,0.2-6.737,0.594-10.057    c0.488-4.113-2.45-7.843-6.563-8.332c-4.107-0.486-7.843,2.45-8.332,6.563c-0.463,3.904-0.699,7.883-0.699,11.826v21.125    c0,13.447,2.742,26.449,8.15,38.646c3.335,7.521,2.65,15.826-1.877,22.787C162.022,252.32,154.297,256.517,145.93,256.517z     M314.434,104.21H198.6c14.644-15.444,34.642-24.678,55.885-25.067c21.863-0.399,42.46,7.802,58.034,23.093    C313.176,102.881,313.802,103.548,314.434,104.21z M103.178,400.807v-42.064c0-7.938,2.358-15.551,6.522-22.001l28.369,28.369    c9.182,9.182,14.238,21.39,14.238,34.375v1.322H103.178z M167.307,400.807v-1.322c0-16.991-6.617-32.966-18.632-44.981    l-28.649-28.649c2.039-1.478,4.216-2.794,6.544-3.884l31.242-14.618c4.485-2.098,8.311-5.206,11.29-8.961    c22.92,17.394,50.626,27.527,79.398,29.032v73.382H167.307z M256,312.63c-20.294,0-40.179-4.811-58.054-13.833    c7.037,0.834,14.001,1.259,20.882,1.259c20.328,0,39.947-3.642,58.688-10.918c26.469-10.278,44.677-25.485,55.061-36.078    c0.086,0.136,0.167,0.274,0.255,0.41c0.972,1.494,2.038,2.903,3.178,4.233v21.077c0,1.885,0.19,3.741,0.519,5.561    C313.75,302.608,285.318,312.63,256,312.63z M359.694,400.807v-1.322c0-12.985,5.057-25.193,14.238-34.375l28.369-28.369    c4.164,6.45,6.522,14.063,6.522,22.001v42.064H359.694z"/>
		<path d="M207.904,151.275h16.032c4.142,0,7.5-3.358,7.5-7.5s-3.358-7.5-7.5-7.5h-16.032c-4.142,0-7.5,3.358-7.5,7.5    S203.762,151.275,207.904,151.275z"/>
		<path d="M215.92,160.323c-4.142,0-7.5,3.358-7.5,7.5v8.016c0,4.142,3.358,7.5,7.5,7.5s7.5-3.358,7.5-7.5v-8.016    C223.42,163.681,220.062,160.323,215.92,160.323z"/>
		<path d="M288.065,151.275h16.032c4.142,0,7.5-3.358,7.5-7.5s-3.358-7.5-7.5-7.5h-16.032c-4.142,0-7.5,3.358-7.5,7.5    S283.923,151.275,288.065,151.275z"/>
		<path d="M296.081,160.323c-4.142,0-7.5,3.358-7.5,7.5v8.016c0,4.142,3.358,7.5,7.5,7.5s7.5-3.358,7.5-7.5v-8.016    C303.581,163.681,300.223,160.323,296.081,160.323z"/>
	</g>
</g>















</svg>
