<?xml version="1.0" encoding="iso-8859-1"?>
<!-- Generator: Adobe Illustrator 19.0.0, SVG Export Plug-In . SVG Version: 6.00 Build 0)  -->
<svg xmlns="http://www.w3.org/2000/svg" xmlns:xlink="http://www.w3.org/1999/xlink" version="1.1" id="Capa_1" x="0px" y="0px" viewBox="0 0 512 512" style="enable-background:new 0 0 512 512;" xml:space="preserve" width="512" height="512">
<g>
	<g>
		<path style="fill:#F6D190;" d="M318.934,31.541C319.264,18.362,308.67,7.5,295.487,7.5c-13.183,0-23.777,10.862-23.448,24.041    l7.415,296.605v40.081l-6.604,112.267c-0.766,13.024,9.59,24.007,22.636,24.007c13.047,0,23.402-10.983,22.636-24.007    l-6.604-112.267v-40.081L318.934,31.541z"/>
		<path style="fill:#ECBD83;" d="M296.081,7.561c-0.202-0.005-0.389-0.061-0.593-0.061c-13.184,0-23.777,10.862-23.448,24.041    l7.415,296.605v40.081l-6.605,112.267c-0.765,13.024,9.59,24.007,22.637,24.007c0.204,0,0.39-0.057,0.593-0.062V7.561z"/>
		<path style="fill:#F6D190;" d="M232.552,328.145l7.415-296.605C240.297,18.362,229.703,7.5,216.52,7.5    c-13.183,0-23.777,10.862-23.447,24.041l7.415,296.605v40.081l-6.604,112.267c-0.766,13.024,9.589,24.007,22.636,24.007    s23.403-10.983,22.636-24.007l-6.604-112.267V328.145z"/>
		<path style="fill:#ECBD83;" d="M215.919,7.562c-12.895,0.332-23.171,11.006-22.847,23.979l7.415,296.605v40.081l-6.603,112.267    c-0.754,12.818,9.28,23.604,22.035,23.944V7.562z"/>
		<path style="fill:#6F6571;" d="M216.52,384.258L216.52,384.258c-8.854,0-16.032-7.178-16.032-16.032v-40.081    c0-8.854,7.178-16.032,16.032-16.032h0c8.854,0,16.032,7.178,16.032,16.032v40.081C232.553,377.08,225.375,384.258,216.52,384.258    z"/>
		<path style="fill:#5D5360;" d="M232.552,368.226v-24.048h-32.065v24.048c0,8.854,7.179,16.032,16.032,16.032    C225.375,384.258,232.552,377.08,232.552,368.226z"/>
		<path style="fill:#6F6571;" d="M295.487,384.258L295.487,384.258c-8.854,0-16.032-7.178-16.032-16.032v-40.081    c0-8.854,7.178-16.032,16.032-16.032h0c8.854,0,16.032,7.178,16.032,16.032v40.081C311.52,377.08,304.342,384.258,295.487,384.258    z"/>
		<path style="fill:#5D5360;" d="M311.52,368.226v-24.048h-32.065v24.048c0,8.854,7.178,16.032,16.032,16.032    C304.342,384.258,311.52,377.08,311.52,368.226z"/>
	</g>
	<g>
		<path d="M216.521,0c-8.415,0-16.285,3.317-22.16,9.342c-5.875,6.024-8.995,13.975-8.785,22.387l7.413,296.511v39.767l-3.76,63.911    c-0.243,4.135,2.912,7.684,7.047,7.928c4.14,0.234,7.684-2.912,7.927-7.047l2.54-43.176c2.98,1.368,6.29,2.136,9.778,2.136    s6.798-0.769,9.778-2.136l5.371,91.312c0.248,4.216-1.21,8.229-4.108,11.302c-2.897,3.073-6.818,4.765-11.041,4.765    s-8.144-1.692-11.041-4.765c-2.897-3.072-4.356-7.086-4.108-11.302l0.945-16.07c0.243-4.135-2.912-7.684-7.047-7.927    c-4.148-0.259-7.684,2.912-7.928,7.046l-0.945,16.07c-0.486,8.261,2.491,16.452,8.168,22.473    c5.677,6.021,13.679,9.474,21.955,9.474s16.278-3.453,21.955-9.474c5.677-6.021,8.655-14.212,8.168-22.473l-6.591-112.046v-39.767    l7.413-296.511c0.21-8.412-2.909-16.363-8.785-22.387S224.936,0,216.521,0z M207.988,328.145c0-4.705,3.828-8.532,8.532-8.532    s8.532,3.828,8.532,8.532v8.532h-17.064V328.145z M205.099,19.815C208.127,16.71,212.183,15,216.521,15s8.394,1.71,11.422,4.815    s4.636,7.203,4.528,11.539l-6.877,275.081c-2.794-1.172-5.859-1.821-9.073-1.821s-6.279,0.649-9.073,1.821l-6.877-275.081    C200.462,27.018,202.07,22.92,205.099,19.815z M216.521,376.758c-4.705,0-8.532-3.828-8.532-8.533v-16.548h17.064v16.548    C225.053,372.931,221.225,376.758,216.521,376.758z"/>
		<path d="M295.487,0c-8.415,0-16.285,3.317-22.16,9.341s-8.995,13.975-8.785,22.387l7.413,296.511v39.767l-6.591,112.046    c-0.486,8.261,2.491,16.452,8.168,22.473c5.677,6.021,13.679,9.474,21.955,9.474s16.277-3.453,21.955-9.474    s8.655-14.212,8.168-22.473l-6.591-112.046v-39.767l6.41-256.418c0.104-4.141-3.169-7.582-7.31-7.685    c-4.124-0.088-7.582,3.169-7.685,7.31l-5.875,234.988c-2.794-1.172-5.859-1.821-9.073-1.821c-3.214,0-6.279,0.649-9.073,1.821    l-6.877-275.081c-0.108-4.336,1.5-8.434,4.528-11.539C287.094,16.71,291.15,15,295.487,15s8.394,1.71,11.422,4.815    s4.636,7.203,4.528,11.539l-0.201,8.02c-0.104,4.141,3.169,7.582,7.31,7.685c4.139,0.088,7.582-3.169,7.685-7.31l0.201-8.02    c0.21-8.412-2.909-16.363-8.785-22.387S303.902,0,295.487,0z M304.02,368.226c0,4.705-3.828,8.533-8.532,8.533    s-8.532-3.828-8.532-8.533v-16.548h17.064V368.226z M306.528,492.235c-2.897,3.073-6.818,4.765-11.041,4.765    s-8.144-1.692-11.041-4.765c-2.897-3.072-4.356-7.086-4.108-11.302l5.371-91.312c2.98,1.368,6.29,2.136,9.778,2.136    s6.798-0.769,9.778-2.136l5.371,91.312C310.884,485.149,309.426,489.163,306.528,492.235z M295.487,319.613    c4.705,0,8.532,3.828,8.532,8.532v8.532h-17.064v-8.532C286.955,323.44,290.783,319.613,295.487,319.613z"/>
		<path d="M167.823,448.903h-8.532V7.5c0-4.142-3.358-7.5-7.5-7.5h-8.016c-17.396,0-31.549,14.152-31.549,31.548v8.016    c0,17.396,14.153,31.548,31.549,31.548h0.516v377.791h-8.532c-4.142,0-7.5,3.358-7.5,7.5s3.358,7.5,7.5,7.5h8.532V504.5    c0,4.142,3.358,7.5,7.5,7.5s7.5-3.358,7.5-7.5v-40.597h8.532c4.142,0,7.5-3.358,7.5-7.5S171.965,448.903,167.823,448.903z     M143.774,56.113c-9.125,0-16.549-7.423-16.549-16.548v-8.016c0-9.125,7.424-16.548,16.549-16.548h0.516v41.113H143.774z"/>
		<path d="M368.226,0h-8.016c-4.142,0-7.5,3.358-7.5,7.5v441.403h-8.532c-4.142,0-7.5,3.358-7.5,7.5s3.358,7.5,7.5,7.5h8.532V504.5    c0,4.142,3.358,7.5,7.5,7.5s7.5-3.358,7.5-7.5v-40.597h8.532c4.142,0,7.5-3.358,7.5-7.5s-3.358-7.5-7.5-7.5h-8.532V71.113h0.516    c17.396,0,31.549-14.152,31.549-31.548v-8.016C399.774,14.152,385.622,0,368.226,0z M384.774,39.564    c0,9.125-7.424,16.548-16.549,16.548h-0.516V15h0.516c9.125,0,16.549,7.423,16.549,16.548V39.564z"/>
	</g>
</g>















</svg>
