<?xml version="1.0" encoding="iso-8859-1"?>
<!-- Generator: Adobe Illustrator 19.0.0, SVG Export Plug-In . SVG Version: 6.00 Build 0)  -->
<svg xmlns="http://www.w3.org/2000/svg" xmlns:xlink="http://www.w3.org/1999/xlink" version="1.1" id="Capa_1" x="0px" y="0px" viewBox="0 0 512.001 512.001" style="enable-background:new 0 0 512.001 512.001;" xml:space="preserve" width="512" height="512">
<g>
	<g>
		<polygon style="fill:#739AD6;" points="171.168,135.793 135.765,143.809 228.578,320.155 228.578,147.293   "/>
		<path style="fill:#A4CCFF;" d="M231.953,320.155l70.571,62.555c4.311,4.311,11.666,2.422,13.366-3.433l68.362-235.468H227.015    L231.953,320.155z"/>
		<path style="fill:#DBEAFF;" d="M378.018,135.793L281.629,11.865c-4.728-6.079-14.018-5.755-18.31,0.639l-84.503,123.29H378.018z"/>
		<path style="fill:#C3DDFF;" d="M239.969,111.746L270.55,7.769c-2.812,0.543-5.455,2.087-7.232,4.734l-68.021,99.243H239.969z"/>
		<path style="fill:#C3DDFF;" d="M275.102,81.25c-3.011-3.552-8.405-3.799-11.729-0.537l-63.483,63.096l121.426-8.05L275.102,81.25z    "/>
		<path style="fill:#8BB3EA;" d="M207.906,143.809l23.124,309.55c0.613,7.35,2.237,14.582,4.827,21.488l8.956,23.883    c3.16,8.425,15.401,7.361,17.059-1.483l66.27-353.438H207.906z"/>
		<path style="fill:#A4CCFF;" d="M282.052,143.809l-36.139,356.823c4.196,6.185,14.446,4.685,15.96-3.385l66.27-353.438H282.052z"/>
		<path style="fill:#A4CCFF;" d="M264.016,135.793l-47.65-74.637c-2.917-4.667-9.563-5.074-13.027-0.796l-67.575,83.448h125.847    L264.016,135.793z"/>
	</g>
	<path d="M424.331,128.293c-11.909,0-18.188,2.39-23.728,4.499c-3.835,1.459-7.276,2.762-12.869,3.278L287.549,7.26   c-3.693-4.749-9.497-7.461-15.5-7.249c-6.012,0.209-11.604,3.316-14.957,8.311l-33.614,50.063l-0.752-1.204   c-2.651-4.243-7.216-6.958-12.21-7.264c-4.995-0.308-9.856,1.834-13.004,5.723l-65.285,80.62c-0.793,0.029-1.613,0.048-2.49,0.048   c-9.136,0-13.411-1.629-18.362-3.516c-5.534-2.109-11.807-4.5-23.704-4.5c-4.142,0-7.5,3.358-7.5,7.5s3.358,7.5,7.5,7.5   c9.136,0,13.411,1.629,18.362,3.516c5.534,2.109,11.807,4.5,23.704,4.5c0.512,0,1-0.01,1.492-0.019l79.722,151.416l12.606,151.276   c0.669,8.039,2.445,15.945,5.278,23.5l8.956,23.882c2.438,6.503,8.467,10.637,15.288,10.637c0.488,0,0.981-0.021,1.476-0.064   c7.415-0.644,13.318-5.991,14.69-13.307l14.697-78.384c0.763-4.071-1.918-7.99-5.989-8.754c-4.073-0.763-7.99,1.918-8.754,5.989   l-14.697,78.384c-0.058,0.31-0.194,1.036-1.245,1.128c-1.049,0.094-1.31-0.601-1.42-0.896l-8.956-23.882   c-2.348-6.262-3.82-12.815-4.375-19.478L215.38,175.249c-0.344-4.128-3.957-7.193-8.097-6.851   c-4.127,0.344-7.195,3.969-6.851,8.097l7.335,88.015L147,149.053c2.387-0.703,4.463-1.491,6.439-2.244   c4.951-1.887,9.227-3.516,18.362-3.516s13.412,1.629,18.362,3.516c5.534,2.109,11.807,4.5,23.704,4.5   c11.899,0,18.173-2.39,23.709-4.5c4.952-1.887,9.229-3.516,18.368-3.516c9.133,0,13.407,1.629,18.356,3.516   c5.533,2.109,11.804,4.5,23.699,4.5c11.903,0,18.178-2.39,23.715-4.499c4.955-1.887,9.233-3.517,18.376-3.517   c9.151,0,13.434,1.63,18.392,3.517c4.178,1.59,8.78,3.339,15.897,4.104l-65.692,226.272c-0.031,0.105-0.082,0.282-0.367,0.355   s-0.415-0.057-0.493-0.135l-13.351-13.352l35.695-190.37c0.763-4.071-1.918-7.99-5.989-8.753c-4.072-0.764-7.991,1.918-8.754,5.989   L275.11,385.946c-0.763,4.071,1.918,7.99,5.989,8.754c0.467,0.088,0.932,0.13,1.391,0.13c3.538,0,6.688-2.515,7.363-6.119   l1.273-6.792l6.094,6.094c2.966,2.967,6.863,4.557,10.91,4.556c1.3,0,2.616-0.164,3.921-0.5c5.368-1.379,9.495-5.38,11.04-10.702   l66.905-230.45c7.142-0.762,11.755-2.514,15.941-4.108c4.958-1.887,9.241-3.517,18.392-3.517c4.142,0,7.5-3.358,7.5-7.5   S428.473,128.293,424.331,128.293z M279.644,132.793c-5.533-2.109-11.804-4.5-23.699-4.5c-11.899,0-18.173,2.39-23.709,4.5   c-4.952,1.887-9.229,3.516-18.368,3.516c-9.136,0-13.412-1.629-18.362-3.516c-5.534-2.109-11.807-4.5-23.704-4.5   c-6.467,0-11.264,0.708-15.192,1.692l52.559-64.905c0.054-0.067,0.167-0.207,0.432-0.19c0.265,0.016,0.36,0.168,0.406,0.241   l29.874,47.797c2.195,3.512,6.822,4.58,10.335,2.385c3.512-2.195,4.58-6.822,2.385-10.335l-1.233-1.973l17.261-16.941   c0.044-0.043,0.171-0.158,0.385-0.147c0.224,0.011,0.33,0.135,0.37,0.182l41.267,48.675c-3.235,0.916-7.019,1.535-12.649,1.535   C288.867,136.309,284.593,134.68,279.644,132.793z M340.091,128.293c-5.86,0-10.351,0.581-14.066,1.42L280.823,76.4   c-2.778-3.277-6.833-5.269-11.125-5.466c-4.285-0.194-8.512,1.417-11.578,4.427l-14.896,14.62l-11.037-17.659l37.356-55.637   c0.943-1.404,2.301-1.657,3.027-1.682c0.726-0.025,2.098,0.131,3.137,1.467l91.42,117.541c-1.111-0.383-2.194-0.793-3.31-1.218   C358.279,130.684,352,128.293,340.091,128.293z"/>
</g>















</svg>
