<?xml version="1.0" encoding="iso-8859-1"?>
<!-- Generator: Adobe Illustrator 19.0.0, SVG Export Plug-In . SVG Version: 6.00 Build 0)  -->
<svg xmlns="http://www.w3.org/2000/svg" xmlns:xlink="http://www.w3.org/1999/xlink" version="1.1" id="Capa_1" x="0px" y="0px" viewBox="0 0 512 512" style="enable-background:new 0 0 512 512;" xml:space="preserve" width="512" height="512">
<g>
	<g>
		<path style="fill:#ECEAEC;" d="M215.919,396.282h152.306c88.177,0,120.242-56.113,120.242-56.113H215.919V396.282z"/>
		<path style="fill:#8BB3EA;" d="M448.387,284.056H127.742c-30.99,0-56.113-25.123-56.113-56.113v-16.032    c17.709,0,32.065-14.356,32.065-32.065v-8.016H87.661c-10.442,0-19.718,4.992-25.573,12.718c-3.316,4.377-9.667,4.377-12.983,0    c-5.855-7.727-15.131-12.718-25.573-12.718H7.5v8.016c0,17.708,14.356,32.065,32.065,32.065v16.032    c0,76.375,52.001,141.283,121.705,161.877l-7.433,9.557c-4.095,5.265-0.343,12.937,6.328,12.937h24.181    c10.17,0,20.149-2.764,28.87-7.997l91.683-55.01c9.966-5.98,21.37-9.139,32.993-9.139h157.897c4.855,0,8.76-4.312,7.978-9.104    C499.416,304.405,476.277,284.056,448.387,284.056z"/>
		<circle style="fill:#5D5360;" cx="368.226" cy="324.137" r="16.032"/>
		<g>
			<path style="fill:#739AD6;" d="M71.629,235.96v-8.016v-16.032c17.709,0,32.065-14.356,32.065-32.065v-8.016H87.661     c-10.443,0-19.718,4.991-25.573,12.718c-3.316,4.377-9.667,4.377-12.983,0c-5.855-7.726-15.13-12.718-25.573-12.718H7.5v8.016     c0,17.708,14.355,32.065,32.065,32.065v16.032c0,70.448,44.341,130.927,105.916,156.076l-0.092,0.118     c5.19,2.122,10.46,4.081,15.881,5.683l27.58-35.45c2.305-2.964,5.555-4.978,9.149-5.783c-13.296-0.436-26.964-1.182-28.215-1.338     C114.452,340.323,71.629,293.169,71.629,235.96z"/>
		</g>
	</g>
	<g>
		<path d="M448.387,276.557H127.742c-26.805,0-48.613-21.808-48.613-48.613v-9.245c18.243-3.514,32.064-19.599,32.064-38.852v-8.016    c0-4.142-3.358-7.5-7.5-7.5H87.661c-12.497,0-23.997,5.719-31.552,15.69c-0.322,0.427-0.702,0.427-1.025,0    c-7.555-9.971-19.055-15.69-31.552-15.69H7.5c-4.142,0-7.5,3.358-7.5,7.5v8.016c0,19.253,13.822,35.337,32.064,38.852v9.245    c0,38.791,12.382,75.571,35.807,106.365c20.612,27.097,49.084,47.886,80.955,59.295l-0.909,1.169    c-3.667,4.715-4.315,10.977-1.691,16.343c2.625,5.366,7.965,8.699,13.938,8.699h24.181c11.527,0,22.844-3.135,32.729-9.065    l11.611-6.967h139.541c47.587,0,79.361-16.052,97.637-29.519c14.288-10.528,22.797-21.125,26.65-26.594H504.5    c4.142,0,7.5-3.358,7.5-7.5C512,305.093,483.463,276.557,448.387,276.557z M456.33,362.652    c-23.854,17.338-53.497,26.13-88.104,26.13H253.685l15.081-9.048h27.315c4.142,0,7.5-3.358,7.5-7.5s-3.358-7.5-7.5-7.5h-2.315    l14.991-8.995c8.799-5.279,18.874-8.07,29.135-8.07h79.863c-17.462,9.326-41.588,17.064-73.577,17.064h-16.032    c-4.142,0-7.5,3.358-7.5,7.5s3.358,7.5,7.5,7.5h16.032c49.293,0,81.852-17.042,100.976-32.064h28.054    C469.132,352.108,463.559,357.398,456.33,362.652z M359.693,324.137c0-4.705,3.828-8.532,8.532-8.532    c4.705,0,8.533,3.828,8.533,8.532s-3.828,8.532-8.533,8.532C363.521,332.669,359.693,328.842,359.693,324.137z M390.151,332.669    c1.034-2.647,1.608-5.523,1.608-8.532c0-12.976-10.557-23.532-23.533-23.532c-12.976,0-23.532,10.557-23.532,23.532    c0,3.009,0.574,5.885,1.608,8.532h-8.41c-12.979,0-25.723,3.53-36.853,10.208l-91.683,55.01    c-7.554,4.532-16.202,6.928-25.011,6.928h-24.181c-0.144,0-0.322,0-0.463-0.289c-0.142-0.29-0.032-0.431,0.057-0.544    l38.829-49.923c3.158-4.06,7.919-6.389,13.063-6.389h20.303c4.142,0,7.5-3.358,7.5-7.5s-3.358-7.5-7.5-7.5h-20.303    c-9.806,0-18.883,4.439-24.903,12.18l-28.176,36.227c-31.047-10.016-58.89-29.728-78.76-55.849    c-21.422-28.161-32.745-61.801-32.745-97.283v-16.032c0-4.142-3.358-7.5-7.5-7.5C26.02,204.411,15,193.392,15,179.847v-0.516    h8.532c7.76,0,14.902,3.553,19.596,9.749c3.011,3.974,7.556,6.254,12.469,6.254s9.458-2.28,12.469-6.254    c4.694-6.196,11.836-9.749,19.596-9.749h8.532v0.516c0,13.545-11.02,24.564-24.564,24.564c-4.142,0-7.5,3.358-7.5,7.5v16.032    c0,35.077,28.537,63.613,63.613,63.613h320.646c24.254,0,44.417,17.856,48.035,41.113H390.151z"/>
		<path d="M296.081,139.25c4.142,0,7.5-3.358,7.5-7.5c0-13.545,11.02-24.564,24.564-24.564c8.028,0,15.787,2.337,22.439,6.759    c3.449,2.293,8.105,1.355,10.398-2.094c2.293-3.45,1.355-8.105-2.094-10.398c-9.12-6.062-19.751-9.267-30.743-9.267    c-21.816,0-39.564,17.749-39.564,39.564C288.581,135.892,291.938,139.25,296.081,139.25z"/>
		<path d="M352.193,132.266c-13.348,0-25.303,8.452-29.75,21.031c-1.38,3.905,0.666,8.19,4.571,9.571    c3.907,1.379,8.19-0.667,9.571-4.571c2.333-6.598,8.605-11.031,15.608-11.031c9.125,0,16.548,7.423,16.548,16.548v88.177    c0,4.142,3.358,7.5,7.5,7.5s7.5-3.358,7.5-7.5v-88.177c0-9.125,7.424-16.548,16.549-16.548c7.003,0,13.275,4.433,15.608,11.031    c1.381,3.905,5.667,5.952,9.571,4.571c3.905-1.381,5.952-5.666,4.571-9.571c-4.447-12.579-16.403-21.031-29.75-21.031    c-5.341,0-10.373,1.339-14.787,3.691c5.075-16.635,20.562-28.771,38.835-28.771c13.545,0,24.564,11.02,24.564,24.564    c0,4.142,3.358,7.5,7.5,7.5s7.5-3.358,7.5-7.5c0-21.816-17.749-39.564-39.564-39.564c-27.171,0-49.837,19.597-54.643,45.396    C364.684,134.227,358.664,132.266,352.193,132.266z"/>
	</g>
</g>















</svg>
