<?xml version="1.0" encoding="iso-8859-1"?>
<!-- Generator: Adobe Illustrator 19.0.0, SVG Export Plug-In . SVG Version: 6.00 Build 0)  -->
<svg xmlns="http://www.w3.org/2000/svg" xmlns:xlink="http://www.w3.org/1999/xlink" version="1.1" id="Capa_1" x="0px" y="0px" viewBox="0 0 512.023 512.023" style="enable-background:new 0 0 512.023 512.023;" xml:space="preserve" width="512" height="512">
<g>
	<g>
		<rect x="143.774" y="7.511" style="fill:#DAD8DB;" width="32.065" height="32.065"/>
		<rect x="103.694" y="207.915" style="fill:#DAD8DB;" width="112.226" height="48.097"/>
		<rect x="55.597" y="247.995" style="fill:#C8C5C9;" width="240.484" height="72.145"/>
		<rect x="328.145" y="344.189" style="fill:#6F6571;" width="48.097" height="48.097"/>
		<rect x="71.629" y="344.189" style="fill:#6F6571;" width="48.097" height="48.097"/>
		<path style="fill:#FF8086;" d="M416.323,352.205H31.548c-4.427,0-8.016-3.589-8.016-8.016v-24.048h400.806v24.048    C424.339,348.616,420.75,352.205,416.323,352.205z"/>
		<rect x="280.048" y="199.899" style="fill:#DAD8DB;" width="112.226" height="120.242"/>
		<path style="fill:#C8C5C9;" d="M304.097,280.06v-80.161h-24.048v120.242h112.226v-24.048h-72.145    C311.275,296.092,304.097,288.914,304.097,280.06z"/>
		<rect x="55.597" y="384.27" style="fill:#FF8086;" width="80.161" height="116.234"/>
		<rect x="55.597" y="384.27" style="fill:#E5646E;" width="24.048" height="116.234"/>
		<rect x="312.113" y="384.27" style="fill:#FF8086;" width="80.161" height="116.234"/>
		<rect x="312.113" y="384.27" style="fill:#E5646E;" width="24.048" height="116.234"/>
		<rect x="256" y="280.06" style="fill:#ADA7AE;" width="24.048" height="40.081"/>
		<rect x="256" y="247.995" style="fill:#B6B1B7;" width="24.048" height="32.065"/>
	</g>
	<g>
		<path d="M499.609,259.328c-2.212-1.19-3.642-3.939-3.642-7.003V137.404l9.852-10.556c7.306-7.828,8.26-19.517,2.321-28.425    c-3.53-5.295-9.158-8.917-15.439-9.936c-6.281-1.019-12.765,0.637-17.788,4.544l-127.759,99.368h-67.106    c-4.142,0-7.5,3.358-7.5,7.5v40.597h-49.129v-32.581c0-4.142-3.358-7.5-7.5-7.5h-9.527L183.339,39.042V7.511    c0-4.142-3.358-7.5-7.5-7.5h-32.064c-4.142,0-7.5,3.358-7.5,7.5v31.53l-23.054,161.373h-9.527c-4.142,0-7.5,3.358-7.5,7.5v32.581    H55.597c-4.142,0-7.5,3.358-7.5,7.5v24.564h-8.532c-4.142,0-7.5,3.358-7.5,7.5s3.358,7.5,7.5,7.5h8.532v25.081H7.5    c-4.142,0-7.5,3.358-7.5,7.5s3.358,7.5,7.5,7.5h8.532v24.564c0,4.142,3.358,7.5,7.5,7.5h40.597v17.065h-8.532    c-4.142,0-7.5,3.358-7.5,7.5v112.691c-7.687-0.279-11.751-1.777-16.37-3.489c-5.658-2.098-12.071-4.476-24.227-4.476    c-4.142,0-7.5,3.358-7.5,7.5s3.358,7.5,7.5,7.5c9.464,0,13.889,1.641,19.012,3.54c5.658,2.098,12.071,4.476,24.227,4.476    c12.16,0,18.576-2.377,24.237-4.476c5.126-1.9,9.554-3.541,19.024-3.541c9.475,0,13.905,1.641,19.034,3.541    c5.663,2.098,12.081,4.475,24.245,4.475c12.164,0,18.583-2.377,24.245-4.475c5.129-1.9,9.559-3.541,19.034-3.541    c9.475,0,13.905,1.641,19.034,3.541c5.663,2.098,12.081,4.475,24.246,4.475c12.167,0,18.586-2.377,24.25-4.475    c5.131-1.9,9.563-3.541,19.041-3.541c9.472,0,13.9,1.641,19.028,3.541c5.661,2.098,12.078,4.475,24.24,4.475    c12.17,0,18.591-2.377,24.256-4.475c5.133-1.9,9.566-3.542,19.049-3.542c9.491,0,13.928,1.642,19.065,3.542    c5.668,2.097,12.093,4.474,24.27,4.474s18.602-2.377,24.27-4.474c5.138-1.9,9.575-3.542,19.065-3.542c4.142,0,7.5-3.358,7.5-7.5    s-3.358-7.5-7.5-7.5c-12.177,0-18.602,2.377-24.27,4.474c-4.614,1.707-8.675,3.201-16.327,3.488V384.27c0-4.142-3.358-7.5-7.5-7.5    h-8.533v-17.065h40.597c4.142,0,7.5-3.358,7.5-7.5V327.64h8.532c4.142,0,7.5-3.358,7.5-7.5s-3.358-7.5-7.5-7.5h-40.597v-72.19    l81.193-86.975v98.85c0,8.639,4.419,16.383,11.533,20.211c2.775,1.494,4.5,4.376,4.5,7.523c0,4.705-3.828,8.532-8.532,8.532    s-8.532-3.828-8.532-8.532c0-4.142-3.358-7.5-7.5-7.5s-7.5,3.358-7.5,7.5c0,12.976,10.557,23.532,23.532,23.532    S512,293.035,512,280.06C512,271.386,507.252,263.443,499.609,259.328z M182.782,141.216l5.93,41.509l-19.35-24.51    L182.782,141.216z M183.567,200.415h-47.52l23.76-30.096L183.567,200.415z M145.287,127.719l14.52-18.665l14.52,18.665    l-14.52,18.392L145.287,127.719z M178.048,108.073l-8.739-11.234l6.027-7.748L178.048,108.073z M151.274,15.011h17.064v17.064    h-17.064V15.011z M150.279,47.076h19.055l3.054,21.375l-12.581,16.173l-12.581-16.173L150.279,47.076z M144.277,89.091    l6.027,7.748l-8.739,11.234L144.277,89.091z M136.831,141.215l13.42,16.999l-19.35,24.51L136.831,141.215z M111.193,215.415    h97.226v25.081h-97.226V215.415z M63.097,255.495h209.452v17.064H63.097V255.495z M103.266,287.56h32.92l-16.46,20.575    L103.266,287.56z M104.121,312.64h-32.92l16.46-20.575L104.121,312.64z M151.791,292.066l16.46,20.575h-32.92L151.791,292.066z     M167.395,287.56h32.92l-16.46,20.575L167.395,287.56z M215.919,292.066l16.46,20.575h-32.92L215.919,292.066z M231.524,287.56    h32.92l-16.46,20.575L231.524,287.56z M272.548,301.44v11.2h-8.96L272.548,301.44z M63.097,287.56h8.96l-8.96,11.2V287.56z     M304.613,496.765c-5.748-0.524-9.294-1.831-13.245-3.295c-5.661-2.098-12.078-4.475-24.24-4.475    c-12.167,0-18.586,2.377-24.25,4.475c-5.131,1.9-9.563,3.541-19.041,3.541c-9.476,0-13.906-1.641-19.035-3.541    c-5.662-2.098-12.081-4.475-24.245-4.475s-18.583,2.377-24.245,4.475c-3.908,1.448-7.417,2.743-13.054,3.278v-40.336    c0-4.142-3.358-7.5-7.5-7.5s-7.5,3.358-7.5,7.5v39.947c-3.964-0.651-6.859-1.72-10.014-2.889    c-5.663-2.098-12.081-4.475-24.245-4.475c-12.16,0-18.576,2.377-24.237,4.476c-2.199,0.815-4.271,1.581-6.666,2.191V391.77h65.162    v32.582c0,4.142,3.358,7.5,7.5,7.5s7.5-3.358,7.5-7.5v-4.911l59.735-59.736h41.884l59.735,59.736V496.765z M79.129,376.77v-17.065    h33.097v17.065H79.129z M135.758,376.77h-8.533v-17.065h54.555l-38.522,38.523V384.27    C143.258,380.128,139.9,376.77,135.758,376.77z M304.613,384.27v13.958l-38.522-38.523h54.555v17.065h-8.532    C307.971,376.77,304.613,380.128,304.613,384.27z M384.774,391.77v103.925c-2.453-0.616-4.562-1.396-6.803-2.225    c-5.668-2.097-12.093-4.474-24.27-4.474c-12.17,0-18.591,2.377-24.257,4.475c-3.106,1.15-5.963,2.203-9.832,2.856V391.77H384.774z     M335.645,376.77v-17.065h33.097v17.065H335.645z M416.839,327.64v17.064H31.032V327.64h313.144c4.142,0,7.5-3.358,7.5-7.5    s-3.358-7.5-7.5-7.5h-56.628V207.399h97.226V312.64h-8.53c-4.142,0-7.5,3.358-7.5,7.5s3.358,7.5,7.5,7.5H416.839z     M399.774,218.484v-18.586c0-4.142-3.358-7.5-7.5-7.5h-20.688l112.536-87.528c1.77-1.376,3.962-1.937,6.176-1.578    c2.213,0.359,4.117,1.584,5.361,3.45c2.062,3.093,1.73,7.152-0.806,9.87L399.774,218.484z"/>
		<path d="M320.129,224.463h-8.016c-4.142,0-7.5,3.358-7.5,7.5s3.358,7.5,7.5,7.5h8.016c4.142,0,7.5-3.358,7.5-7.5    S324.271,224.463,320.129,224.463z"/>
		<path d="M360.209,224.463h-8.016c-4.142,0-7.5,3.358-7.5,7.5s3.358,7.5,7.5,7.5h8.016c4.142,0,7.5-3.358,7.5-7.5    S364.352,224.463,360.209,224.463z"/>
		<path d="M320.129,256.528h-8.016c-4.142,0-7.5,3.358-7.5,7.5s3.358,7.5,7.5,7.5h8.016c4.142,0,7.5-3.358,7.5-7.5    S324.271,256.528,320.129,256.528z"/>
		<path d="M360.209,256.528h-8.016c-4.142,0-7.5,3.358-7.5,7.5s3.358,7.5,7.5,7.5h8.016c4.142,0,7.5-3.358,7.5-7.5    S364.352,256.528,360.209,256.528z"/>
	</g>
</g>















</svg>
