<?xml version="1.0" encoding="iso-8859-1"?>
<!-- Generator: Adobe Illustrator 19.0.0, SVG Export Plug-In . SVG Version: 6.00 Build 0)  -->
<svg xmlns="http://www.w3.org/2000/svg" xmlns:xlink="http://www.w3.org/1999/xlink" version="1.1" id="Capa_1" x="0px" y="0px" viewBox="0 0 512 512" style="enable-background:new 0 0 512 512;" xml:space="preserve" width="512" height="512">
<g>
	<g>
		<polygon style="fill:#FF8086;" points="360.21,135.758 360.21,175.839 400.29,155.798   "/>
		<path style="fill:#A4CCFF;" d="M135.758,272.032c-61.981,0-112.226,50.245-112.226,112.226h224.452    C247.984,322.278,197.739,272.032,135.758,272.032z"/>
		<path style="fill:#8BB3EA;" d="M153.293,273.537c-5.728-0.901-11.555-1.504-17.535-1.504    c-61.981,0-112.226,50.245-112.226,112.226h35.071C58.603,328.258,99.664,281.973,153.293,273.537z"/>
		<path style="fill:#785353;" d="M175.839,296.081c-48.699,0-88.177,39.478-88.177,88.177h200.403v-88.177H175.839z"/>
		<path style="fill:#643C3E;" d="M91.067,360.21c-2.167,7.654-3.405,15.7-3.405,24.048h200.403V360.21H91.067z"/>
		<path style="fill:#FF8086;" d="M360.21,256c-70.835,0-128.258,57.423-128.258,128.258h256.516    C488.468,313.423,431.045,256,360.21,256z"/>
		<path style="fill:#E5646E;" d="M380.25,257.719c-6.546-1.03-13.205-1.719-20.04-1.719c-70.835,0-128.258,57.423-128.258,128.258    h40.081C272.032,320.258,318.959,267.361,380.25,257.719z"/>
		<rect x="143.774" y="336.161" style="fill:#4B3F4E;" width="32.065" height="48.097"/>
		<rect x="288.065" y="320.129" style="fill:#8BB3EA;" width="80.161" height="32.065"/>
		<path style="fill:#8BB3EA;" d="M471.169,320.129h-38.814v32.065h51.909C481.329,340.814,476.919,330.055,471.169,320.129z"/>
	</g>
	<g>
		<path d="M504.5,376.758h-8.743c-3.77-68.899-59.149-124.278-128.048-128.048v-68.237l35.935-17.968    c2.541-1.27,4.146-3.867,4.146-6.708s-1.605-5.438-4.146-6.708l-35.935-17.967v-3.382c0-4.142-3.358-7.5-7.5-7.5    s-7.5,3.358-7.5,7.5v120.975c-33.558,1.871-65.227,16.229-88.774,39.864H207.7c-20.86-15.728-45.668-24.048-71.942-24.048    c-63.498,0-115.599,49.69-119.484,112.226H7.5c-4.142,0-7.5,3.358-7.5,7.5s3.358,7.5,7.5,7.5h497c4.142,0,7.5-3.358,7.5-7.5    S508.642,376.758,504.5,376.758z M474.303,344.693h-34.448v-17.064h26.983C469.747,333.083,472.248,338.784,474.303,344.693z     M383.52,155.798l-15.811,7.905v-15.811L383.52,155.798z M360.209,263.5c39.791,0,75.144,19.349,97.157,49.129h-25.012    c-4.142,0-7.5,3.358-7.5,7.5v32.064c0,4.142,3.358,7.5,7.5,7.5h46.099c1.153,5.559,1.917,11.258,2.274,17.065H239.688    c0.793-13.027,3.651-25.707,8.54-37.785c1.554-3.839-0.298-8.212-4.138-9.766c-3.837-1.553-8.211,0.298-9.766,4.138    c-5.616,13.874-8.851,28.445-9.661,43.413h-41.323v-40.597c0-4.142-3.358-7.5-7.5-7.5h-32.064c-4.142,0-7.5,3.358-7.5,7.5v40.597    H95.522c3.797-40.981,38.361-73.178,80.316-73.178h75.195c-0.375,0.507-0.758,1.006-1.126,1.518    c-2.417,3.364-1.651,8.05,1.712,10.468c3.363,2.417,8.05,1.651,10.468-1.712C284.752,282.324,321.434,263.5,360.209,263.5z     M168.339,376.758h-17.064v-33.097h17.064V376.758z M39.23,343.644c0.112,0.005,0.222,0.017,0.335,0.017h16.032    c4.142,0,7.5-3.358,7.5-7.5s-3.358-7.5-7.5-7.5h-8.548c18.548-29.488,51.375-49.129,88.709-49.129    c14.983,0,29.422,3.091,42.714,9.048h-2.634c-32.175,0-60.691,15.965-78.044,40.389c-0.672-0.198-1.381-0.308-2.117-0.308h-8.016    c-4.142,0-7.5,3.358-7.5,7.5s3.358,7.5,7.5,7.5h1.553c-4.793,10.186-7.845,21.346-8.76,33.097h-49.15    C32.133,365.094,34.877,353.95,39.23,343.644z"/>
		<path d="M288.064,359.693h80.161c4.142,0,7.5-3.358,7.5-7.5v-32.064c0-4.142-3.358-7.5-7.5-7.5h-80.161    c-4.142,0-7.5,3.358-7.5,7.5v32.064C280.564,356.335,283.922,359.693,288.064,359.693z M360.726,344.693h-25.081v-17.064h25.081    V344.693z M295.564,327.629h25.081v17.064h-25.081V327.629z"/>
	</g>
</g>















</svg>
