<?xml version="1.0" encoding="iso-8859-1"?>
<!-- Generator: Adobe Illustrator 19.0.0, SVG Export Plug-In . SVG Version: 6.00 Build 0)  -->
<svg xmlns="http://www.w3.org/2000/svg" xmlns:xlink="http://www.w3.org/1999/xlink" version="1.1" id="Capa_1" x="0px" y="0px" viewBox="0 0 512 512" style="enable-background:new 0 0 512 512;" xml:space="preserve" width="512" height="512">
<g>
	<g>
		<rect x="304.097" y="199.887" style="fill:#FF8086;" width="176.355" height="144.29"/>
		<rect x="31.548" y="247.984" style="fill:#FF8086;" width="176.355" height="96.194"/>
		<rect x="304.097" y="199.887" style="fill:#DAD8DB;" width="176.355" height="48.097"/>
		<rect x="304.097" y="223.935" style="fill:#C8C5C9;" width="176.355" height="24.048"/>
		<rect x="344.177" y="247.984" style="fill:#A4CCFF;" width="32.065" height="48.097"/>
		<rect x="344.177" y="247.984" style="fill:#8BB3EA;" width="32.065" height="24.048"/>
		<rect x="304.097" y="320.129" style="fill:#E5646E;" width="176.355" height="24.048"/>
		<rect x="31.548" y="247.984" style="fill:#DAD8DB;" width="176.355" height="32.065"/>
		<rect x="31.548" y="319.608" style="fill:#E5646E;" width="176.355" height="24.569"/>
		<rect x="408.306" y="247.984" style="fill:#A4CCFF;" width="32.065" height="48.097"/>
		<rect x="408.306" y="247.984" style="fill:#8BB3EA;" width="32.065" height="24.048"/>
	</g>
	<g>
		<path d="M504.5,384.774h-32.581v-33.097h8.532c4.142,0,7.5-3.358,7.5-7.5v-144.29c0-4.142-3.358-7.5-7.5-7.5H304.097    c-4.142,0-7.5,3.358-7.5,7.5v64.128c0,4.142,3.358,7.5,7.5,7.5s7.5-3.358,7.5-7.5v-8.531h25.081v40.597c0,4.142,3.358,7.5,7.5,7.5    h32.064c4.142,0,7.5-3.358,7.5-7.5v-40.597h17.065v40.597c0,4.142,3.358,7.5,7.5,7.5h32.064c4.142,0,7.5-3.358,7.5-7.5v-40.597    h25.081v81.193H311.597v-40.598c0-4.142-3.358-7.5-7.5-7.5s-7.5,3.358-7.5,7.5v48.098c0,4.142,3.358,7.5,7.5,7.5h8.532v33.097    H293.92l-14.388-57.55V119.726c0-4.142-3.358-7.5-7.5-7.5s-7.5,3.358-7.5,7.5v24.565h-17.064v-24.565c0-4.142-3.358-7.5-7.5-7.5    s-7.5,3.358-7.5,7.5v207.496l-14.388,57.553h-18.709v-33.097h8.532c4.142,0,7.5-3.358,7.5-7.5v-96.193c0-4.142-3.358-7.5-7.5-7.5    H31.548c-4.142,0-7.5,3.358-7.5,7.5v96.193c0,4.142,3.358,7.5,7.5,7.5h8.532v33.097H7.5c-4.142,0-7.5,3.358-7.5,7.5    s3.358,7.5,7.5,7.5h497c4.142,0,7.5-3.358,7.5-7.5S508.642,384.774,504.5,384.774z M368.742,288.581h-17.064v-33.097h17.064    V288.581z M432.871,288.581h-17.064v-33.097h17.064V288.581z M311.597,240.484v-33.097h161.355v33.097H311.597z M456.919,384.774    h-33.097v-33.097h33.097V384.774z M408.823,384.774h-33.097v-33.097h33.097V384.774z M327.629,351.677h33.097v33.097h-33.097    V351.677z M247.468,320.647v-17.067h17.064v17.067H247.468z M264.532,288.581h-17.064v-33.097h17.064V288.581z M264.532,240.484    h-17.064v-33.097h17.064V240.484z M264.532,159.291v33.097h-17.064v-33.097H264.532z M245.823,335.647h20.354l12.282,49.127    h-44.918L245.823,335.647z M184.371,384.774h-33.097v-33.097h33.097V384.774z M136.274,351.677v33.097h-33.097v-33.097H136.274z     M39.048,287.548h8.53c4.142,0,7.5-3.358,7.5-7.5s-3.358-7.5-7.5-7.5h-8.53v-17.064h161.355v17.064H79.649    c-4.142,0-7.5,3.358-7.5,7.5s3.358,7.5,7.5,7.5h120.754v49.129H39.048V287.548z M55.081,351.677h33.097v33.097H55.081V351.677z"/>
		<path d="M63.613,319.613h16.032c4.142,0,7.5-3.358,7.5-7.5s-3.358-7.5-7.5-7.5H63.613c-4.142,0-7.5,3.358-7.5,7.5    S59.471,319.613,63.613,319.613z"/>
		<path d="M111.709,319.613h16.032c4.142,0,7.5-3.358,7.5-7.5s-3.358-7.5-7.5-7.5h-16.032c-4.142,0-7.5,3.358-7.5,7.5    S107.567,319.613,111.709,319.613z"/>
		<path d="M159.807,319.613h16.032c4.142,0,7.5-3.358,7.5-7.5s-3.358-7.5-7.5-7.5h-16.032c-4.142,0-7.5,3.358-7.5,7.5    S155.665,319.613,159.807,319.613z"/>
	</g>
</g>















</svg>
