<?xml version="1.0" encoding="iso-8859-1"?>
<!-- Generator: Adobe Illustrator 19.0.0, SVG Export Plug-In . SVG Version: 6.00 Build 0)  -->
<svg xmlns="http://www.w3.org/2000/svg" xmlns:xlink="http://www.w3.org/1999/xlink" version="1.1" id="Capa_1" x="0px" y="0px" viewBox="0 0 512 512" style="enable-background:new 0 0 512 512;" xml:space="preserve" width="512" height="512">
<g>
	<g>
		<path style="fill:#DBEAFF;" d="M432.355,123.734c-1.624,0-3.213,0.137-4.81,0.243c-16.604-28.86-47.681-48.339-83.367-48.339    c-10.685,0-20.929,1.814-30.532,5.03c-21.381-41.068-64.256-69.159-113.759-69.159c-65.515,0-119.457,49.155-127.204,112.577    C36.107,127.59,7.5,158.385,7.5,195.879c0,39.844,32.3,72.145,72.145,72.145h352.71c39.845,0,72.145-32.301,72.145-72.145    C504.5,156.034,472.2,123.734,432.355,123.734z"/>
		<path style="fill:#C3DDFF;" d="M7.5,195.879c0,39.844,32.3,72.145,72.145,72.145h352.71c21.34,0,40.456-9.321,53.666-24.048    h-8.365H231.952c-61.881,0-112.226-50.344-112.226-112.226c0-56.194,42.024-103.991,97.75-111.182l21.785-2.811    c-12.412-4.012-25.622-6.249-39.374-6.249c-65.515,0-119.457,49.155-127.204,112.577C36.106,127.59,7.5,158.385,7.5,195.879z"/>
	</g>
	<g>
		<path d="M432.355,275.524c43.917,0,79.645-35.729,79.645-79.646s-35.729-79.645-79.645-79.645c-0.246,0-0.489,0.002-0.729,0.007    c-0.745-1.17-1.52-2.316-2.308-3.45c0.043-0.003,0.086-0.005,0.129-0.007c-0.229-0.331-0.455-0.664-0.688-0.991    c-0.043,0.008-0.086,0.017-0.129,0.024c-19.342-27.161-50.855-43.679-84.452-43.679c-9.038,0-18.055,1.208-26.886,3.595    c-24.293-41.934-68.72-67.724-117.404-67.724c-27.563,0-54.091,8.222-76.716,23.777c-22.079,15.179-39.046,36.298-49.067,61.072    c-1.553,3.84,0.3,8.212,4.14,9.765c3.842,1.555,8.212-0.301,9.765-4.14c18.545-45.849,62.46-75.474,111.878-75.474    c45.153,0,86.194,24.953,107.106,65.122c0.174,0.335,4.59,8.62,7.645,17.914c1.038,3.158,3.972,5.161,7.124,5.161    c0.776,0,1.565-0.121,2.342-0.376c3.935-1.293,6.077-5.531,4.785-9.466c-1.339-4.076-2.864-8.049-4.555-11.918    c6.549-1.521,13.192-2.307,19.842-2.307c31.592,0,61.046,17.082,76.867,44.58c0.168,0.292,6.706,11.783,9.031,21.926    c0.781,3.406,3.918,5.632,7.258,5.632c0.619,0,1.249-0.077,1.875-0.239c4.011-1.033,6.426-5.122,5.393-9.133    c-1.265-4.912-2.881-9.658-4.8-14.226C471.95,135.382,497,162.753,497,195.879c0,35.646-29,64.646-64.645,64.646H79.645    C44,260.524,15,231.524,15,195.879c0-16.176,6.006-31.654,16.911-43.583c10.836-11.853,25.57-19.22,41.488-20.746    c4.124-0.395,7.146-4.058,6.75-8.181c-0.395-4.124-4.057-7.151-8.181-6.75c-19.623,1.88-37.78,10.957-51.128,25.556    C7.401,156.875,0,175.947,0,195.879c0,43.917,35.729,79.646,79.645,79.646H432.355z"/>
		<path d="M100.98,310.818c-2.929-2.929-7.678-2.929-10.606,0l-2.713,2.713l-2.713-2.713c-2.929-2.929-7.678-2.929-10.606,0    c-2.929,2.929-2.929,7.678,0,10.606l2.713,2.713l-2.713,2.713c-2.929,2.929-2.929,7.678,0,10.606    c1.464,1.464,3.384,2.197,5.303,2.197s3.839-0.732,5.303-2.197l2.713-2.713l2.713,2.713c1.464,1.464,3.384,2.197,5.303,2.197    s3.839-0.732,5.303-2.197c2.929-2.929,2.929-7.678,0-10.606l-2.713-2.713l2.713-2.713    C103.91,318.496,103.91,313.747,100.98,310.818z"/>
		<path d="M181.142,423.043c-2.929-2.929-7.678-2.929-10.606,0l-2.713,2.713l-2.713-2.713c-2.929-2.929-7.678-2.929-10.606,0    c-2.929,2.929-2.929,7.678,0,10.606l2.713,2.713l-2.713,2.713c-2.929,2.929-2.929,7.678,0,10.606    c1.464,1.464,3.384,2.197,5.303,2.197s3.839-0.732,5.303-2.197l2.713-2.713l2.713,2.713c1.464,1.464,3.384,2.197,5.303,2.197    s3.839-0.732,5.303-2.197c2.929-2.929,2.929-7.678,0-10.606l-2.713-2.713l2.713-2.713    C184.071,430.721,184.071,425.972,181.142,423.043z"/>
		<path d="M135.758,372.75h-0.517v-0.516c0-4.142-3.358-7.5-7.5-7.5s-7.5,3.358-7.5,7.5v0.516h-0.516c-4.142,0-7.5,3.358-7.5,7.5    s3.358,7.5,7.5,7.5h0.516v0.516c0,4.142,3.358,7.5,7.5,7.5s7.5-3.358,7.5-7.5v-0.516h0.517c4.142,0,7.5-3.358,7.5-7.5    S139.9,372.75,135.758,372.75z"/>
		<path d="M215.919,484.976h-0.516v-0.516c0-4.142-3.358-7.5-7.5-7.5s-7.5,3.358-7.5,7.5v0.516h-0.516c-4.142,0-7.5,3.358-7.5,7.5    s3.358,7.5,7.5,7.5h0.516v0.516c0,4.142,3.358,7.5,7.5,7.5s7.5-3.358,7.5-7.5v-0.516h0.516c4.142,0,7.5-3.358,7.5-7.5    S220.062,484.976,215.919,484.976z"/>
		<path d="M183.855,316.637h-0.516v-0.516c0-4.142-3.358-7.5-7.5-7.5s-7.5,3.358-7.5,7.5v0.516h-0.516c-4.142,0-7.5,3.358-7.5,7.5    s3.358,7.5,7.5,7.5h0.516v0.516c0,4.142,3.358,7.5,7.5,7.5s7.5-3.358,7.5-7.5v-0.516h0.516c4.142,0,7.5-3.358,7.5-7.5    S187.997,316.637,183.855,316.637z"/>
		<path d="M229.239,366.931c-2.929-2.929-7.678-2.929-10.606,0l-2.713,2.713l-2.713-2.713c-2.929-2.929-7.678-2.929-10.606,0    c-2.929,2.929-2.929,7.678,0,10.606l2.713,2.713l-2.713,2.713c-2.929,2.929-2.929,7.678,0,10.606    c1.464,1.464,3.384,2.197,5.303,2.197s3.839-0.732,5.303-2.197l2.713-2.713l2.713,2.713c1.464,1.464,3.384,2.197,5.303,2.197    s3.839-0.732,5.303-2.197c2.929-2.929,2.929-7.678,0-10.606l-2.713-2.713l2.713-2.713    C232.168,374.608,232.168,369.859,229.239,366.931z"/>
		<path d="M264.016,428.863H263.5v-0.516c0-4.142-3.358-7.5-7.5-7.5s-7.5,3.358-7.5,7.5v0.516h-0.516c-4.142,0-7.5,3.358-7.5,7.5    s3.358,7.5,7.5,7.5h0.516v0.516c0,4.142,3.358,7.5,7.5,7.5s7.5-3.358,7.5-7.5v-0.516h0.516c4.142,0,7.5-3.358,7.5-7.5    S268.158,428.863,264.016,428.863z"/>
		<path d="M309.4,479.156c-2.929-2.929-7.678-2.929-10.606,0l-2.713,2.713l-2.713-2.713c-2.929-2.929-7.678-2.929-10.606,0    c-2.929,2.929-2.929,7.678,0,10.606l2.713,2.713l-2.713,2.713c-2.929,2.929-2.929,7.678,0,10.606    c1.464,1.464,3.384,2.197,5.303,2.197s3.839-0.732,5.303-2.197l2.713-2.713l2.713,2.713c1.464,1.464,3.384,2.197,5.303,2.197    s3.839-0.732,5.303-2.197c2.929-2.929,2.929-7.678,0-10.606l-2.713-2.713l2.713-2.713    C312.329,486.834,312.329,482.085,309.4,479.156z"/>
		<path d="M277.335,310.818c-2.929-2.929-7.678-2.929-10.606,0l-2.713,2.713l-2.713-2.713c-2.929-2.929-7.678-2.929-10.606,0    c-2.929,2.929-2.929,7.678,0,10.606l2.713,2.713l-2.713,2.713c-2.929,2.929-2.929,7.678,0,10.606    c1.464,1.464,3.384,2.197,5.303,2.197s3.839-0.732,5.303-2.197l2.713-2.713l2.713,2.713c1.464,1.464,3.384,2.197,5.303,2.197    s3.839-0.732,5.303-2.197c2.929-2.929,2.929-7.678,0-10.606l-2.713-2.713l2.713-2.713    C280.265,318.496,280.265,313.747,277.335,310.818z"/>
		<path d="M357.497,423.043c-2.929-2.929-7.678-2.929-10.606,0l-2.713,2.713l-2.713-2.713c-2.929-2.929-7.678-2.929-10.606,0    c-2.929,2.929-2.929,7.678,0,10.606l2.713,2.713l-2.713,2.713c-2.929,2.929-2.929,7.678,0,10.606    c1.464,1.464,3.384,2.197,5.303,2.197s3.839-0.732,5.303-2.197l2.713-2.713l2.713,2.713c1.464,1.464,3.384,2.197,5.303,2.197    s3.839-0.732,5.303-2.197c2.929-2.929,2.929-7.678,0-10.606l-2.713-2.713l2.713-2.713    C360.426,430.721,360.426,425.972,357.497,423.043z"/>
		<path d="M312.113,372.75h-0.516v-0.516c0-4.142-3.358-7.5-7.5-7.5s-7.5,3.358-7.5,7.5v0.516h-0.516c-4.142,0-7.5,3.358-7.5,7.5    s3.358,7.5,7.5,7.5h0.516v0.516c0,4.142,3.358,7.5,7.5,7.5s7.5-3.358,7.5-7.5v-0.516h0.516c4.142,0,7.5-3.358,7.5-7.5    S316.255,372.75,312.113,372.75z"/>
		<path d="M392.274,484.976h-0.516v-0.516c0-4.142-3.358-7.5-7.5-7.5s-7.5,3.358-7.5,7.5v0.516h-0.517c-4.142,0-7.5,3.358-7.5,7.5    s3.358,7.5,7.5,7.5h0.517v0.516c0,4.142,3.358,7.5,7.5,7.5s7.5-3.358,7.5-7.5v-0.516h0.516c4.142,0,7.5-3.358,7.5-7.5    S396.417,484.976,392.274,484.976z"/>
		<path d="M360.209,316.637h-0.516v-0.516c0-4.142-3.358-7.5-7.5-7.5s-7.5,3.358-7.5,7.5v0.516h-0.516c-4.142,0-7.5,3.358-7.5,7.5    s3.358,7.5,7.5,7.5h0.516v0.516c0,4.142,3.358,7.5,7.5,7.5s7.5-3.358,7.5-7.5v-0.516h0.516c4.142,0,7.5-3.358,7.5-7.5    S364.352,316.637,360.209,316.637z"/>
		<path d="M405.594,366.931c-2.929-2.929-7.678-2.929-10.606,0l-2.713,2.713l-2.713-2.713c-2.929-2.929-7.678-2.929-10.606,0    c-2.929,2.929-2.929,7.678,0,10.606l2.713,2.713l-2.713,2.713c-2.929,2.929-2.929,7.678,0,10.606    c1.464,1.464,3.384,2.197,5.303,2.197s3.839-0.732,5.303-2.197l2.713-2.713l2.713,2.713c1.464,1.464,3.384,2.197,5.303,2.197    s3.839-0.732,5.303-2.197c2.929-2.929,2.929-7.678,0-10.606l-2.713-2.713l2.713-2.713    C408.523,374.608,408.523,369.859,405.594,366.931z"/>
		<path d="M440.371,428.863h-0.516v-0.516c0-4.142-3.358-7.5-7.5-7.5s-7.5,3.358-7.5,7.5v0.516h-0.516c-4.142,0-7.5,3.358-7.5,7.5    s3.358,7.5,7.5,7.5h0.516v0.516c0,4.142,3.358,7.5,7.5,7.5s7.5-3.358,7.5-7.5v-0.516h0.516c4.142,0,7.5-3.358,7.5-7.5    S444.513,428.863,440.371,428.863z"/>
		<path d="M485.755,479.156c-2.929-2.929-7.678-2.929-10.606,0l-2.713,2.713l-2.713-2.713c-2.929-2.929-7.678-2.929-10.606,0    c-2.929,2.929-2.929,7.678,0,10.606l2.713,2.713l-2.713,2.713c-2.929,2.929-2.929,7.678,0,10.606    c1.464,1.464,3.384,2.197,5.303,2.197s3.839-0.732,5.303-2.197l2.713-2.713l2.713,2.713c1.464,1.464,3.384,2.197,5.303,2.197    s3.839-0.732,5.303-2.197c2.929-2.929,2.929-7.678,0-10.606l-2.713-2.713l2.713-2.713    C488.684,486.834,488.684,482.085,485.755,479.156z"/>
		<path d="M453.69,310.818c-2.929-2.929-7.678-2.929-10.606,0l-2.713,2.713l-2.713-2.713c-2.929-2.929-7.678-2.929-10.606,0    c-2.929,2.929-2.929,7.678,0,10.606l2.713,2.713l-2.713,2.713c-2.929,2.929-2.929,7.678,0,10.606    c1.464,1.464,3.384,2.197,5.303,2.197s3.839-0.732,5.303-2.197l2.713-2.713l2.713,2.713c1.464,1.464,3.384,2.197,5.303,2.197    s3.839-0.732,5.303-2.197c2.929-2.929,2.929-7.678,0-10.606l-2.713-2.713l2.713-2.713    C456.62,318.496,456.62,313.747,453.69,310.818z"/>
		<path d="M488.468,372.75h-0.516v-0.516c0-4.142-3.358-7.5-7.5-7.5s-7.5,3.358-7.5,7.5v0.516h-0.516c-4.142,0-7.5,3.358-7.5,7.5    s3.358,7.5,7.5,7.5h0.516v0.516c0,4.142,3.358,7.5,7.5,7.5s7.5-3.358,7.5-7.5v-0.516h0.516c4.142,0,7.5-3.358,7.5-7.5    S492.61,372.75,488.468,372.75z"/>
	</g>
</g>















</svg>
