<?xml version="1.0" encoding="iso-8859-1"?>
<!-- Generator: Adobe Illustrator 19.0.0, SVG Export Plug-In . SVG Version: 6.00 Build 0)  -->
<svg xmlns="http://www.w3.org/2000/svg" xmlns:xlink="http://www.w3.org/1999/xlink" version="1.1" id="Capa_1" x="0px" y="0px" viewBox="0 0 512 512" style="enable-background:new 0 0 512 512;" xml:space="preserve" width="512" height="512">
<g>
	<g>
		<path style="fill:#966A5B;" d="M403.168,175.848c-17.157,0.644-35.329,8.393-49.788,22.853    c-7.076,7.076-13.403,16.934-17.219,25.235l8.016,40.081c0,0,32.065-8.016,49.283-25.235    c14.459-14.459,22.209-32.631,22.853-49.788C416.591,181.608,410.553,175.571,403.168,175.848z"/>
		<path style="fill:#785353;" d="M413.305,180.351c1.973,2.312,3.133,5.332,3.008,8.642c-0.644,17.157-8.394,35.329-22.853,49.788    c-11.997,11.997-31.174,19.514-41.719,22.978l-2.147-10.734c3.469-10.894,8.899-23.037,15.68-32.624    C378.164,200.179,395.251,187.276,413.305,180.351z"/>
		<path style="fill:#966A5B;" d="M108.832,175.848c17.157,0.644,35.329,8.393,49.788,22.853    c7.076,7.076,13.403,16.934,17.219,25.235l-8.016,40.081c0,0-32.065-8.016-49.283-25.235    c-14.459-14.459-22.209-32.631-22.853-49.788C95.409,181.608,101.447,175.571,108.832,175.848z"/>
		<path style="fill:#785353;" d="M98.695,180.351c-1.973,2.312-3.133,5.332-3.008,8.642c0.644,17.157,8.394,35.329,22.853,49.788    c11.997,11.997,31.174,19.514,41.719,22.978l2.147-10.734c-3.469-10.894-8.899-23.037-15.68-32.624    C133.836,200.179,116.749,187.276,98.695,180.351z"/>
		<path style="fill:#B57F5F;" d="M256,472.435L256,472.435c-57.554,0-104.21-46.656-104.21-104.21v-80.161    c0-57.553,46.656-104.21,104.21-104.21h0c57.553,0,104.21,46.656,104.21,104.21v80.161    C360.21,425.779,313.553,472.435,256,472.435z"/>
		<path style="fill:#966A5B;" d="M175.839,368.226v-80.161c0-53.481,40.305-97.493,92.185-103.463    c-3.951-0.455-7.951-0.747-12.024-0.747c-57.553,0-104.21,46.656-104.21,104.21v80.161c0,57.553,46.656,104.21,104.21,104.21    c4.073,0,8.073-0.293,12.024-0.747C216.144,465.718,175.839,421.706,175.839,368.226z"/>
		<path style="fill:#D19A6E;" d="M227.894,187.799l23.599,29.628c2.487,3.123,7.242,3.092,9.688-0.063l22.925-29.564    c-8.953-2.506-18.353-3.944-28.106-3.944S236.847,185.293,227.894,187.799z"/>
		<path style="fill:#ECEAEC;" d="M256,504.5L256,504.5c-30.99,0-56.113-25.123-56.113-56.113v-40.081    c0-13.282,10.767-24.048,24.048-24.048h64.129c13.282,0,24.048,10.767,24.048,24.048v40.081    C312.113,479.377,286.99,504.5,256,504.5z"/>
		<circle style="fill:#4B3F4E;" cx="167.823" cy="288.065" r="16.032"/>
		<circle style="fill:#4B3F4E;" cx="344.177" cy="288.065" r="16.032"/>
		<path style="fill:#DAD8DB;" d="M231.952,424.339c0,13.282,10.767,24.048,24.048,24.048c13.282,0,24.048-10.767,24.048-24.048    H231.952z"/>
		<path style="fill:#966A5B;" d="M167.379,135.758H151.79l56.113,79.263h41.614l-43.241-59.456    C197.226,143.121,182.767,135.758,167.379,135.758z"/>
		<path style="fill:#966A5B;" d="M346.154,135.758h15.589l-56.113,79.263h-41.614l43.241-59.456    C316.308,143.121,330.767,135.758,346.154,135.758z"/>
	</g>
	<path d="M508.099,22.561C501.476,8.645,487.787,0,472.375,0h-72.084c-4.142,0-7.5,3.358-7.5,7.5s3.358,7.5,7.5,7.5h46.022   l-11.245,11.245c-2.929,2.929-2.929,7.678,0,10.606c1.464,1.464,3.384,2.197,5.303,2.197s3.839-0.732,5.303-2.197L467.526,15h4.849   c9.714,0,18.005,5.236,22.18,14.007s3.01,18.508-3.115,26.047l-20.399,25.106h-22.084c-8.703,0-16.884-3.389-23.038-9.542   l-20.325-20.325c-2.929-2.929-7.678-2.929-10.606,0c-2.929,2.929-2.929,7.678,0,10.606l20.325,20.325   c8.986,8.987,20.935,13.936,33.645,13.936h9.897l-26.891,33.097h-87.341c-17.728,0-34.536,8.56-44.963,22.896l-20.137,27.688   c-15.398-3.291-31.642-3.292-47.043-0.001l-20.136-27.688c-10.427-14.337-27.235-22.896-44.963-22.896H80.038L53.147,95.161h9.897   c12.709,0,24.658-4.949,33.644-13.936L117.013,60.9c2.929-2.929,2.929-7.678,0-10.606c-2.929-2.929-7.678-2.929-10.606,0   L86.081,70.619c-6.153,6.154-14.334,9.542-23.037,9.542H40.959L20.56,55.055c-6.125-7.539-7.29-17.276-3.115-26.047   S29.911,15,39.625,15h4.849l21.852,21.852c1.464,1.464,3.384,2.197,5.303,2.197s3.839-0.732,5.303-2.197   c2.929-2.929,2.929-7.678,0-10.606L65.687,15h46.022c4.142,0,7.5-3.358,7.5-7.5s-3.358-7.5-7.5-7.5H39.625   C24.213,0,10.524,8.645,3.901,22.561S-0.8,52.552,8.918,64.514l61.729,75.974c1.424,1.753,3.563,2.771,5.821,2.771h50.541   c13.283,0,25.741,6.51,33.326,17.414c1.457,2.095,3.791,3.218,6.164,3.218c1.478,0,2.971-0.436,4.276-1.343   c3.4-2.366,4.24-7.04,1.874-10.44c-2.261-3.251-4.855-6.198-7.692-8.848h2.422c12.945,0,25.218,6.25,32.832,16.719l43.241,59.456   c2.91,4.001,7.601,6.39,12.548,6.39s9.639-2.389,12.548-6.39l43.241-59.456c7.614-10.469,19.887-16.719,32.832-16.719h2.422   c-2.837,2.651-5.431,5.597-7.692,8.848l-41.412,59.53c-2.366,3.4-1.526,8.074,1.874,10.439c1.305,0.908,2.798,1.344,4.276,1.344   c2.373,0,4.707-1.123,6.164-3.218l5.622-8.081c17.095,13.501,29.021,32.29,34.094,53.134c-1.854-0.471-3.794-0.723-5.792-0.723   c-12.976,0-23.532,10.557-23.532,23.532s10.557,23.532,23.532,23.532c3.009,0,5.885-0.574,8.532-1.608v58.237   c0,28.284-12.161,54.615-33.097,72.853V415.9c0-9.55,1.531-18.986,4.552-28.047l3.08-9.24c1.31-3.93-0.814-8.177-4.744-9.487   c-3.931-1.309-8.177,0.814-9.487,4.744l-3.08,9.24c-3.531,10.593-5.321,21.625-5.321,32.791v32.487   c0,9.125-9.222,16.548-20.556,16.548c-8.618,0-16.003-4.296-19.053-10.364c13.022-3.885,22.545-15.964,22.545-30.232   c0-4.142-3.358-7.5-7.5-7.5s-7.5,3.358-7.5,7.5c0,9.125-7.423,16.548-16.548,16.548s-16.548-7.423-16.548-16.548   c0-4.142-3.358-7.5-7.5-7.5s-7.5,3.358-7.5,7.5c0,14.268,9.523,26.347,22.545,30.232c-3.051,6.068-10.435,10.364-19.053,10.364   c-11.334,0-20.556-7.423-20.556-16.548V415.9c0-11.165-1.791-22.198-5.321-32.791l-3.08-9.24c-1.31-3.93-5.558-6.054-9.487-4.744   c-3.93,1.31-6.053,5.557-4.744,9.487l3.08,9.24c3.021,9.061,4.552,18.498,4.552,28.047v25.179   c-20.936-18.237-33.097-44.568-33.097-72.853v-58.237c2.647,1.034,5.523,1.608,8.532,1.608c12.976,0,23.532-10.557,23.532-23.532   s-10.557-23.532-23.532-23.532c-2.002,0-3.946,0.253-5.803,0.726c5.06-20.876,16.98-39.621,34.107-53.134l5.62,8.078   c1.458,2.095,3.791,3.218,6.164,3.218c1.478,0,2.971-0.436,4.276-1.344c3.4-2.365,4.24-7.04,1.874-10.439l-22.296-32.052   c-2.365-3.4-7.039-4.24-10.439-1.874c-3.4,2.365-4.24,7.04-1.874,10.439l8.094,11.636c-3.848,2.985-7.467,6.202-10.854,9.616   c-3.568-5.729-7.819-11.091-12.733-16.005c-15.177-15.178-35.154-24.306-54.81-25.044c-5.591-0.205-11.077,1.938-15.031,5.892   s-6.101,9.432-5.89,15.03c0.738,19.655,9.866,39.632,25.044,54.81c9.66,9.66,21.117,16.852,33.408,21.02   c-1.567,7.473-2.388,15.159-2.388,22.96v80.162c0,37.398,18.397,71.838,49.34,92.678C199.461,490.006,225.208,512,256,512   s56.539-21.994,62.37-51.096c30.942-20.84,49.34-55.281,49.34-92.678v-80.162c0-7.786-0.822-15.471-2.396-22.949   c12.308-4.168,23.789-11.369,33.45-21.031c15.178-15.178,24.307-35.156,25.044-54.81c0.21-5.598-1.937-11.076-5.89-15.03   c-3.954-3.954-9.429-6.102-15.032-5.892c-19.654,0.738-39.632,9.867-54.81,25.044c-4.921,4.921-9.178,10.292-12.749,16.031   c-3.391-3.426-7.025-6.643-10.877-9.635l27.214-39.121c7.585-10.904,20.043-17.414,33.326-17.414h50.541   c2.258,0,4.396-1.018,5.821-2.771l61.729-75.974C512.8,52.552,514.723,36.477,508.099,22.561z M256.417,210.61   c-0.05,0.069-0.155,0.212-0.417,0.212s-0.367-0.144-0.417-0.212l-13.291-18.274c9.065-1.276,18.352-1.276,27.416,0L256.417,210.61z    M167.823,279.532c4.705,0,8.532,3.828,8.532,8.532s-3.828,8.532-8.532,8.532s-8.532-3.828-8.532-8.532   S163.118,279.532,167.823,279.532z M123.877,233.478c-12.533-12.533-20.063-28.85-20.661-44.766   c-0.055-1.463,0.48-2.834,1.508-3.861s2.407-1.563,3.861-1.508c15.917,0.598,32.234,8.129,44.766,20.662   c5.259,5.258,9.603,11.111,12.977,17.429c-6.62,8.906-11.87,18.749-15.584,29.199C140.912,247.165,131.708,241.309,123.877,233.478   z M256,497c-15.359,0-29.067-7.168-37.983-18.325c3.153,0.815,6.481,1.26,9.926,1.26c11.389,0,21.544-4.776,28.057-12.188   c6.512,7.412,16.668,12.188,28.057,12.188c3.445,0,6.773-0.445,9.926-1.26C285.067,489.832,271.359,497,256,497z M344.177,296.597   c-4.705,0-8.532-3.828-8.532-8.532s3.828-8.532,8.532-8.532s8.532,3.828,8.532,8.532S348.882,296.597,344.177,296.597z    M358.683,204.004c12.533-12.533,28.85-20.063,44.766-20.662c1.46-0.048,2.834,0.481,3.862,1.508   c1.027,1.027,1.563,2.398,1.508,3.861c-0.598,15.916-8.128,32.233-20.662,44.766c-7.84,7.84-17.07,13.712-26.926,17.178   c-3.713-10.428-8.956-20.259-15.557-29.16C349.052,215.154,353.407,209.28,358.683,204.004z"/>
</g>















</svg>
