<?xml version="1.0" encoding="iso-8859-1"?>
<!-- Generator: Adobe Illustrator 19.0.0, SVG Export Plug-In . SVG Version: 6.00 Build 0)  -->
<svg xmlns="http://www.w3.org/2000/svg" xmlns:xlink="http://www.w3.org/1999/xlink" version="1.1" id="Capa_1" x="0px" y="0px" viewBox="0 0 512 512" style="enable-background:new 0 0 512 512;" xml:space="preserve" width="512" height="512">
<g>
	<g>
		<path style="fill:#B57F5F;" d="M504.5,256h-48.097v-32.065C494.881,223.936,504.5,256,504.5,256z"/>
		<path style="fill:#966A5B;" d="M7.5,256h48.097v-32.065C17.12,223.936,7.5,256,7.5,256z"/>
		<ellipse style="fill:#E2A975;" cx="256" cy="256" rx="208.419" ry="192.387"/>
		<path style="fill:#D19A6E;" d="M288.065,416.323c-115.107,0-208.419-86.135-208.419-192.387    c0-42.458,14.932-81.681,40.169-113.503C75.599,145.711,47.581,197.819,47.581,256c0,106.252,93.313,192.387,208.419,192.387    c69.11,0,130.333-31.073,168.251-78.884C387.719,398.651,340.142,416.323,288.065,416.323z"/>
		<path style="fill:#F6D190;" d="M256,223.936c-59.952,0-112.226,72.145-112.226,136.274c0,55.34,52.274,88.177,112.226,88.177    s112.226-32.838,112.226-88.177C368.226,296.081,315.952,223.936,256,223.936z"/>
		<path style="fill:#ECBD83;" d="M288.065,424.339c-59.952,0-112.226-32.838-112.226-88.177c0-36.665,17.126-75.893,42.967-102.817    c-42.811,21.474-75.032,76.557-75.032,126.866c0,55.34,52.274,88.177,112.226,88.177c38.096,0,73.032-13.302,93.485-37.169    C331.601,419.778,310.371,424.339,288.065,424.339z"/>
		<circle style="fill:#4B3F4E;" cx="163.815" cy="235.96" r="28.056"/>
		<circle style="fill:#4B3F4E;" cx="348.186" cy="235.96" r="28.056"/>
		<path style="fill:#5D5360;" d="M264.562,301.839l13.827-16.593c7.025-8.43,1.031-21.23-9.943-21.23h-24.891    c-10.974,0-16.969,12.799-9.943,21.23l13.827,16.593C251.894,307.186,260.106,307.186,264.562,301.839z"/>
	</g>
	<g>
		<path d="M511.776,254.181c-3.14-12.563-16.32-35.886-44.033-37.631c-8.266-38.454-28.609-73.787-59.281-102.1    c-40.755-37.62-94.9-58.338-152.462-58.338s-111.707,20.718-152.462,58.338c-30.672,28.313-51.014,63.646-59.281,102.1    c-27.714,1.745-40.893,25.068-44.033,37.631c-0.561,2.24-0.057,4.614,1.364,6.435S5.191,263.5,7.5,263.5h32.744    c0.927,23.425,6.187,46.216,15.702,67.849c1.667,3.792,6.093,5.514,9.885,3.846c3.792-1.667,5.514-6.093,3.846-9.885    C59.991,303.289,55.081,279.97,55.081,256c0-101.947,90.132-184.887,200.919-184.887S456.92,154.053,456.92,256    c0,33.454-9.706,64.862-26.663,91.964l-106.917-50.645c-3.743-1.773-8.215-0.177-9.988,3.567    c-1.773,3.743-0.176,8.215,3.567,9.988l39.891,18.896c1.926,7.707,3.158,15.345,3.656,22.809l-19.893-14.468    c-3.349-2.437-8.04-1.696-10.477,1.654c-2.437,3.35-1.696,8.041,1.654,10.477l26.343,19.158c-0.569,0.819-1.227,1.579-1.979,2.276    c-4.225,3.917-11.107,5.73-19.386,5.103c-8.909-0.674-20.445-7.173-32.657-14.053c-15.737-8.866-32.01-18.033-48.07-18.033    s-32.333,9.167-48.07,18.033c-12.212,6.88-23.748,13.379-32.657,14.053c-8.278,0.626-15.161-1.186-19.386-5.103    c-0.752-0.697-1.41-1.457-1.979-2.276l26.343-19.158c3.35-2.436,4.091-7.127,1.654-10.477c-2.436-3.35-7.126-4.091-10.477-1.654    l-19.885,14.462c0.508-7.509,1.749-15.168,3.664-22.811l39.875-18.888c3.744-1.773,5.341-6.245,3.567-9.988    c-1.772-3.744-6.247-5.34-9.988-3.567l-27.037,12.807c5.384-13.313,12.718-26.115,21.669-37.455    c20.684-26.206,47.184-41.235,72.708-41.235c30.256,0,61.1,20.65,82.507,55.239c2.18,3.522,6.802,4.61,10.324,2.431    c3.522-2.18,4.61-6.802,2.431-10.324c-1.549-2.502-3.146-4.937-4.785-7.308c0.567,0.027,1.136,0.043,1.709,0.043    c19.606,0,35.556-15.951,35.556-35.557s-15.95-35.556-35.556-35.556s-35.557,15.95-35.557,35.556c0,0.103,0.007,0.204,0.008,0.307    c-17.641-12.793-37.155-19.83-56.637-19.83c-19.306,0-38.875,7.029-56.639,19.913c0.001-0.13,0.01-0.259,0.01-0.389    c0-19.606-15.951-35.556-35.557-35.556s-35.556,15.95-35.556,35.556s15.95,35.557,35.556,35.557c0.576,0,1.149-0.016,1.719-0.044    c-10.114,14.608-17.931,30.977-22.931,47.663L36.354,369.464c-3.744,1.773-5.341,6.245-3.567,9.988    c1.282,2.707,3.975,4.292,6.783,4.292c1.076,0,2.168-0.233,3.205-0.724l33.697-15.962c6.389,8.842,13.445,17.113,21.089,24.775    L83.25,402.241c-3.35,2.436-4.091,7.127-1.654,10.477c1.468,2.019,3.753,3.089,6.072,3.089c1.529,0,3.073-0.466,4.405-1.435    l16.656-12.113c39.479,34.164,91.699,53.629,147.272,53.629c55.129,0,107.115-19.015,147.215-53.67l16.713,12.155    c1.332,0.969,2.875,1.435,4.405,1.435c2.318,0,4.604-1.071,6.072-3.089c2.437-3.35,1.696-8.041-1.654-10.477l-14.335-10.426    c7.808-7.79,14.885-16.052,21.176-24.728l33.634,15.932c1.037,0.491,2.129,0.724,3.205,0.724c2.808,0,5.501-1.585,6.783-4.292    c1.773-3.743,0.176-8.215-3.567-9.988l-31.633-14.984c16.912-27.571,26.461-58.596,27.742-90.98H504.5    c2.31,0,4.49-1.064,5.912-2.884S512.337,256.422,511.776,254.181z M41.626,231.941c-0.704,5.472-1.161,10.996-1.381,16.559H18.842    C22.693,241.935,29.715,233.98,41.626,231.941z M348.186,215.403c11.334,0,20.556,9.222,20.556,20.556    c0,11.335-9.222,20.557-20.556,20.557c-11.335,0-20.557-9.222-20.557-20.557C327.629,224.625,336.851,215.403,348.186,215.403z     M143.258,235.96c0-11.334,9.222-20.556,20.556-20.556c11.335,0,20.557,9.222,20.557,20.556c0,11.335-9.222,20.557-20.557,20.557    C152.48,256.516,143.258,247.295,143.258,235.96z M176.405,391.737c12.235-0.926,25.181-8.22,38.888-15.941    c14.051-7.917,28.582-16.102,40.707-16.102s26.656,8.186,40.707,16.102c13.707,7.722,26.653,15.016,38.888,15.941    c1.429,0.108,2.837,0.162,4.222,0.162c5.338,0,10.324-0.798,14.785-2.341c-5.092,11.307-13.306,21.252-24.452,29.452    c-19.177,14.108-45.511,21.878-74.15,21.878s-54.973-7.77-74.15-21.878c-11.147-8.2-19.361-18.147-24.453-29.456    C163.016,391.498,169.465,392.263,176.405,391.737z M90.259,360.527l47.964-22.72c-1.279,7.556-1.948,15.068-1.948,22.402    c0,1.145,0.029,2.282,0.072,3.416l-26.511,19.281C102.76,375.987,96.211,368.514,90.259,360.527z M138.621,380.518    c3.248,13.686,9.823,26.226,19.385,36.986c-13.173-6.771-25.51-14.925-36.783-24.333L138.621,380.518z M354.244,417.225    c9.428-10.698,15.916-23.139,19.136-36.707l17.287,12.573C379.577,402.324,367.363,410.429,354.244,417.225z M402.055,382.827    l-26.4-19.2c0.042-1.134,0.072-2.272,0.072-3.417c0-7.324-0.64-14.812-1.907-22.382l47.843,22.662    C415.752,368.4,409.195,375.868,402.055,382.827z M471.755,248.5c-0.22-5.565-0.677-11.091-1.381-16.565    c11.978,2.029,18.992,9.99,22.825,16.565H471.755z"/>
		<path d="M256,327.629c4.142,0,7.5-3.358,7.5-7.5v-5.301l20.651-24.781c5.133-6.16,6.209-14.498,2.808-21.759    c-3.401-7.261-10.495-11.772-18.513-11.772h-24.891c-8.019,0-15.113,4.511-18.514,11.772c-3.401,7.261-2.325,15.599,2.808,21.759    l20.651,24.781v5.301C248.5,324.271,251.858,327.629,256,327.629z M238.625,274.651c0.441-0.942,1.805-3.135,4.93-3.135h24.891    c3.124,0,4.488,2.192,4.929,3.135c0.442,0.942,1.252,3.394-0.748,5.794L256,300.398l-16.627-19.953    C237.373,278.045,238.184,275.593,238.625,274.651z"/>
	</g>
</g>















</svg>
