<?xml version="1.0" encoding="iso-8859-1"?>
<!-- Generator: Adobe Illustrator 19.0.0, SVG Export Plug-In . SVG Version: 6.00 Build 0)  -->
<svg xmlns="http://www.w3.org/2000/svg" xmlns:xlink="http://www.w3.org/1999/xlink" version="1.1" id="Capa_1" x="0px" y="0px" viewBox="0 0 512 512" style="enable-background:new 0 0 512 512;" xml:space="preserve" width="512" height="512">
<g>
	<g>
		<path style="fill:#DBEAFF;" d="M362.184,374.631L420.412,90.77c0.876-4.27,6.977-4.27,7.853,0l58.228,283.861    c1.02,4.971-2.778,9.627-7.853,9.627H370.037C364.962,384.258,361.165,379.602,362.184,374.631z"/>
		<path style="fill:#C3DDFF;" d="M423.67,87.671c-1.499,0.241-2.876,1.241-3.258,3.099l-58.228,283.861    c-1.02,4.971,2.778,9.627,7.853,9.627H478.64c5.075,0,8.873-4.656,7.853-9.627l-1.314-6.405h-50.041    c-18.759,0-33.512-16.033-31.954-34.727L423.67,87.671z"/>
		<rect x="159.806" y="207.903" style="fill:#E2A975;" width="32.065" height="80.161"/>
		<rect x="159.806" y="207.903" style="fill:#D19A6E;" width="32.065" height="24.048"/>
		<polygon style="fill:#E2A975;" points="384.258,304.097 272.032,223.935 159.806,304.097 159.806,440.371 384.258,440.371   "/>
		<rect x="159.806" y="400.29" style="fill:#B57F5F;" width="224.452" height="40.081"/>
		<polygon style="fill:#D19A6E;" points="384.258,304.097 272.032,223.935 159.806,304.097 159.806,341.483 272.032,264.553     384.258,341.484   "/>
		<path style="fill:#DBEAFF;" d="M409.375,290.889l-128.258-88.177c-5.472-3.765-12.697-3.765-18.169,0L134.69,290.889    c-7.296,5.014-9.143,14.995-4.125,22.295c5.006,7.288,14.987,9.151,22.295,4.125l119.173-81.93l119.173,81.93    c2.775,1.91,5.938,2.822,9.069,2.822c5.104,0,10.118-2.427,13.226-6.948C418.518,305.884,416.671,295.903,409.375,290.889z"/>
		<path style="fill:#DBEAFF;" d="M94.139,400.29H17.055c-4.984,0-8.76-4.501-7.894-9.409L51.65,150.109    c0.779-4.415,7.115-4.415,7.894,0l42.489,240.772C102.899,395.79,99.123,400.29,94.139,400.29z"/>
		<path style="fill:#DBEAFF;" d="M183.855,119.726c-17.709,0-32.065-14.356-32.065-32.065c0-2.467,0.338-4.844,0.865-7.151    c-14.254,3.259-24.913,15.957-24.913,31.199c0,17.708,14.356,32.065,32.065,32.065c15.242,0,27.941-10.659,31.199-24.913    C188.699,119.388,186.322,119.726,183.855,119.726z"/>
		<rect x="199.887" y="360.21" style="fill:#8BB3EA;" width="56.113" height="40.081"/>
		<rect x="199.887" y="328.145" style="fill:#739AD6;" width="56.113" height="32.065"/>
		<path style="fill:#C3DDFF;" d="M55.393,146.829c-1.708,0.083-3.369,1.158-3.743,3.28L9.16,390.881    c-0.866,4.908,2.91,9.409,7.894,9.409h77.085c4.984,0,8.76-4.501,7.894-9.409l-1.169-6.623H73.838    c-18.548,0-33.227-15.69-31.993-34.197L55.393,146.829z"/>
		<rect x="288.065" y="360.21" style="fill:#8BB3EA;" width="56.113" height="40.081"/>
		<rect x="288.065" y="328.145" style="fill:#739AD6;" width="56.113" height="32.065"/>
	</g>
	<g>
		<path d="M504.5,432.871h-72.661v-41.113h56.629c2.253,0,4.387-1.013,5.812-2.759c1.425-1.747,1.988-4.041,1.536-6.248    L431.686,70.122c-0.716-3.488-3.786-5.993-7.347-5.993s-6.631,2.505-7.347,5.993l-38.994,190.093l-92.629-63.683    c-7.977-5.489-18.696-5.488-26.67-0.001l-59.328,40.788v-21.915h0.516c4.142,0,7.5-3.358,7.5-7.5s-3.358-7.5-7.5-7.5h-48.097    c-4.142,0-7.5,3.358-7.5,7.5s3.358,7.5,7.5,7.5h0.516v54.272l-21.865,15.032c-5.181,3.56-8.664,8.925-9.808,15.106    c-1.144,6.18,0.188,12.437,3.748,17.616c3.557,5.179,8.919,8.662,15.098,9.809c1.448,0.269,2.9,0.401,4.342,0.401    c2.913,0,5.781-0.546,8.485-1.604v106.835h-89.21V407.79h40.597c2.217,0,4.321-0.98,5.746-2.679    c1.425-1.699,2.025-3.941,1.64-6.124L62.982,126.438c-0.632-3.584-3.747-6.196-7.386-6.196s-6.753,2.612-7.386,6.196    L0.114,398.987c-0.385,2.183,0.215,4.425,1.64,6.124c1.425,1.699,3.528,2.679,5.746,2.679h40.597v25.081H7.5    c-4.142,0-7.5,3.357-7.5,7.5c0,4.142,3.358,7.5,7.5,7.5h497c4.142,0,7.5-3.358,7.5-7.5C512,436.229,508.642,432.871,504.5,432.871    z M16.439,392.79l39.157-221.892L94.754,392.79H63.097v-16.548c0-4.143-3.358-7.5-7.5-7.5s-7.5,3.357-7.5,7.5v16.548H16.439z     M416.839,432.871h-25.081v-41.113h25.081V432.871z M424.339,108.953l54.934,267.805h-47.434V360.21c0-4.143-3.358-7.5-7.5-7.5    s-7.5,3.357-7.5,7.5v16.548h-25.081v-50.727c2.697,1.052,5.574,1.6,8.517,1.6c7.761,0,15.016-3.813,19.406-10.199    c3.562-5.181,4.893-11.438,3.749-17.618c-1.144-6.181-4.627-11.546-9.806-15.106l-22.206-15.267L424.339,108.953z     M167.307,215.403h17.064v32.228l-17.064,11.732V215.403z M142.217,312.49c-2.24-0.416-4.183-1.677-5.472-3.555    c-1.292-1.88-1.776-4.149-1.361-6.391c0.415-2.24,1.676-4.185,3.555-5.475L267.2,208.89c2.891-1.99,6.775-1.989,9.668,0.002    l128.259,88.178c1.877,1.29,3.139,3.234,3.554,5.474c0.415,2.241-0.068,4.511-1.361,6.391c-1.591,2.314-4.225,3.696-7.045,3.696    c-1.725,0-3.391-0.519-4.82-1.502l-19.213-13.209c-3.414-2.346-8.083-1.481-10.429,1.931c-2.347,3.414-1.482,8.083,1.931,10.43    l9.015,6.198v76.312h-25.081v-64.645c0-4.143-3.358-7.5-7.5-7.5h-56.113c-4.142,0-7.5,3.357-7.5,7.5v64.645H263.5v-64.645    c0-4.143-3.358-7.5-7.5-7.5h-56.113c-4.142,0-7.5,3.357-7.5,7.5v64.645h-25.081v-76.313l104.726-71.998l68.704,47.233    c3.415,2.347,8.083,1.481,10.429-1.931c2.347-3.414,1.482-8.083-1.931-10.429l-72.953-50.154c-2.56-1.76-5.938-1.759-8.498,0    l-119.174,81.931C146.728,312.422,144.457,312.904,142.217,312.49z M295.564,392.79v-25.08h41.113v25.08H295.564z M336.677,352.71    h-41.113v-17.064h41.113V352.71z M207.387,392.79v-25.08H248.5v25.08H207.387z M248.5,352.71h-41.113v-17.064H248.5V352.71z     M167.307,432.871V407.79h209.452v25.081H167.307z"/>
		<path d="M159.807,151.274c18.537,0,34.373-12.642,38.511-30.742c0.575-2.516-0.184-5.15-2.008-6.975    c-1.825-1.825-4.46-2.583-6.975-2.008c-1.991,0.455-3.783,0.676-5.479,0.676c-13.545,0-24.564-11.02-24.564-24.564    c0-1.697,0.221-3.489,0.676-5.479c0.575-2.516-0.184-5.15-2.008-6.975s-4.458-2.584-6.975-2.008    c-18.101,4.138-30.742,19.974-30.742,38.511C120.242,133.525,137.99,151.274,159.807,151.274z M144.579,92.448    c2.181,17.996,16.493,32.309,34.489,34.489c-4.52,5.769-11.51,9.337-19.261,9.337c-13.545,0-24.565-11.02-24.565-24.564    C135.242,103.958,138.81,96.968,144.579,92.448z"/>
	</g>
</g>















</svg>
