<?xml version="1.0" encoding="iso-8859-1"?>
<!-- Generator: Adobe Illustrator 19.0.0, SVG Export Plug-In . SVG Version: 6.00 Build 0)  -->
<svg xmlns="http://www.w3.org/2000/svg" xmlns:xlink="http://www.w3.org/1999/xlink" version="1.1" id="Capa_1" x="0px" y="0px" viewBox="0 0 512 512" style="enable-background:new 0 0 512 512;" xml:space="preserve" width="512" height="512">
<g>
	<g>
		<path style="fill:#5D5360;" d="M504.5,288.566c0,115.107-111.257,155.814-248.5,155.814S7.5,403.672,7.5,288.566    S118.757,67.621,256,67.621S504.5,173.459,504.5,288.566z"/>
		<path style="fill:#6F6571;" d="M256,348.185c-29.393,0-58.785-64.129-88.177-64.129h176.355    C314.785,284.056,285.392,348.185,256,348.185z"/>
		<path style="fill:#4B3F4E;" d="M304.097,428.347c-137.243,0-248.5-40.707-248.5-155.814c0-82.873,57.675-160.932,141.191-198.157    C88.144,99.359,7.5,190.579,7.5,288.566c0,115.107,111.257,155.814,248.5,155.814c61.738,0,118.173-8.277,161.632-27.819    C383.592,424.691,345.018,428.347,304.097,428.347z"/>
		<path style="fill:#6F6571;" d="M167.823,284.056c29.392,0,58.785,64.129,88.177,64.129c29.392,0,58.785-64.129,88.177-64.129    H167.823z"/>
		<path style="fill:#DAD8DB;" d="M486.184,208.175c-22.174-47.747-63.073-88.728-114.725-113.916    c-25.823,14.374-43.314,41.913-43.314,73.564c0,46.485,37.683,84.169,84.169,84.169    C444.176,251.992,471.891,234.281,486.184,208.175z"/>
		<path style="fill:#DAD8DB;" d="M25.816,208.175c14.292,26.106,42.008,43.817,73.869,43.817c46.486,0,84.169-37.684,84.169-84.169    c0-31.651-17.491-59.19-43.313-73.564C88.889,119.447,47.99,160.428,25.816,208.175z"/>
		<path style="fill:#C8C5C9;" d="M58.393,241.029c9.609-54.681,43.637-105.027,92.264-140.067    c-3.212-2.451-6.564-4.726-10.115-6.702C88.889,119.447,47.99,160.428,25.816,208.175    C33.364,221.962,44.723,233.297,58.393,241.029z"/>
		<circle style="fill:#4B3F4E;" cx="99.685" cy="256" r="20.04"/>
		<circle style="fill:#4B3F4E;" cx="412.315" cy="256" r="20.04"/>
		<path style="fill:#9B959D;" d="M167.823,284.056c29.392,0,58.785-64.129,88.177-64.129c29.392,0,58.785,64.129,88.177,64.129    H167.823z"/>
		<path style="fill:#857E87;" d="M315.444,268.024H276.35c-24.497,0-44.357-11.842-44.394-36.315    c-21.378,18.501-42.756,52.347-64.133,52.347h40.081c16.032,0,32.065,64.129,48.097,64.129s32.065-64.129,48.097-64.129h40.081    C334.6,284.056,325.022,277.206,315.444,268.024z"/>
	</g>
	<g>
		<path d="M436.759,129.376C387.592,84.716,323.397,60.121,256,60.121S124.408,84.716,75.241,129.376    C27.424,172.811,0,230.833,0,288.565c0,56.908,25.802,99.856,76.688,127.654c43.317,23.662,103.646,35.66,179.312,35.66    s135.995-11.998,179.312-35.66C486.198,388.422,512,345.473,512,288.565C512,230.833,484.576,172.811,436.759,129.376z     M428.121,403.055c-41.086,22.444-98.996,33.824-172.121,33.824s-131.034-11.38-172.121-33.824    C38.174,378.088,15,339.568,15,288.565c0-21.752,4.236-43.58,12.264-64.554c11.413,14.668,27.119,25.671,44.899,31.272    c-0.006,0.239-0.018,0.477-0.018,0.717c0,15.186,12.354,27.541,27.541,27.541c15.186,0,27.54-12.354,27.54-27.541    s-12.354-27.541-27.54-27.541c-9.64,0-18.133,4.982-23.055,12.503c-17.543-5.534-32.671-17.362-42.336-33.1    c11.968-24.573,29.223-47.573,51.032-67.382c16.618-15.095,35.067-27.746,54.818-37.787c22.411,13.955,36.21,38.621,36.21,65.13    c0,24.465-11.833,47.669-31.655,62.071c-3.351,2.435-4.094,7.125-1.659,10.476c1.468,2.02,3.754,3.092,6.074,3.092    c1.528,0,3.071-0.466,4.402-1.433c23.692-17.215,37.837-44.955,37.837-74.206c0-28.5-13.342-55.216-35.51-72.442    C187.087,82.12,221.082,75.121,256,75.121s68.913,6.999,100.155,20.26c-22.168,17.226-35.51,43.941-35.51,72.442    c0,29.253,14.147,56.995,37.843,74.21c1.331,0.967,2.874,1.433,4.402,1.433c2.319,0,4.606-1.072,6.074-3.092    c2.435-3.351,1.691-8.042-1.66-10.476c-19.824-14.402-31.66-37.607-31.66-62.074c0-26.509,13.799-51.175,36.21-65.13    c19.751,10.041,38.2,22.692,54.818,37.787c21.809,19.81,39.064,42.81,51.032,67.382c-9.664,15.738-24.793,27.566-42.336,33.1    c-4.922-7.521-13.415-12.503-23.055-12.503c-15.186,0-27.54,12.354-27.54,27.541s12.354,27.541,27.54,27.541    c15.186,0,27.541-12.354,27.541-27.541c0-0.24-0.012-0.478-0.018-0.717c17.78-5.601,33.485-16.603,44.899-31.272    C492.764,244.986,497,266.814,497,288.565C497,339.568,473.826,378.088,428.121,403.055z M87.145,256    c0-6.915,5.625-12.541,12.541-12.541c6.915,0,12.54,5.625,12.54,12.541s-5.625,12.541-12.54,12.541    C92.771,268.541,87.145,262.915,87.145,256z M424.855,256c0,6.915-5.625,12.541-12.541,12.541c-6.915,0-12.54-5.625-12.54-12.541    s5.625-12.541,12.54-12.541C419.229,243.459,424.855,249.085,424.855,256z"/>
		<path d="M352.193,276.557h-8.006c-0.003,0-0.006,0-0.01,0c-11.397,0-25.206-15.064-38.56-29.632    c-15.546-16.959-31.622-34.497-49.617-34.497s-34.071,17.537-49.618,34.497c-13.354,14.568-27.163,29.632-38.56,29.632    c-0.003,0-0.006,0-0.01,0h-8.006c-4.142,0-7.5,3.358-7.5,7.5s3.358,7.5,7.5,7.5h8.016c11.397,0,25.206,15.064,38.56,29.632    c15.546,16.959,31.622,34.497,49.618,34.497s34.071-17.537,49.617-34.497c13.354-14.568,27.163-29.632,38.56-29.632h8.016    c4.142,0,7.5-3.358,7.5-7.5S356.335,276.557,352.193,276.557z M217.44,257.06c13.354-14.568,27.163-29.632,38.56-29.632    s25.206,15.064,38.56,29.632c6.229,6.796,12.544,13.681,19.033,19.497H313.1c-18.188,0-33.972,12.324-38.383,29.968l-6.072,24.288    c-1.453,5.813-6.653,9.873-12.645,9.873s-11.191-4.06-12.645-9.873l-6.072-24.287c-4.411-17.645-20.194-29.969-38.383-29.969    h-0.494C204.896,270.741,211.21,263.855,217.44,257.06z M217.44,311.053c-6.229-6.796-12.544-13.681-19.033-19.497h0.493    c11.292,0,21.092,7.651,23.831,18.607l2.261,9.043C222.471,316.539,219.948,313.789,217.44,311.053z M294.56,311.053    c-2.508,2.736-5.032,5.487-7.553,8.154l2.261-9.045c2.739-10.955,12.539-18.606,23.831-18.606h0.493    C307.104,297.372,300.789,304.258,294.56,311.053z"/>
	</g>
</g>















</svg>
