<?xml version="1.0" encoding="iso-8859-1"?>
<!-- Generator: Adobe Illustrator 19.0.0, SVG Export Plug-In . SVG Version: 6.00 Build 0)  -->
<svg xmlns="http://www.w3.org/2000/svg" xmlns:xlink="http://www.w3.org/1999/xlink" version="1.1" id="Capa_1" x="0px" y="0px" viewBox="0 0 511.996 511.996" style="enable-background:new 0 0 511.996 511.996;" xml:space="preserve" width="512" height="512">
<g>
	<g>
		<path style="fill:#B3E59F;" d="M39.565,332.151c-8.846,0-16.032,7.186-16.032,16.032c0,8.846,7.186,16.032,16.032,16.032    s16.032-7.186,16.032-16.032C55.597,339.337,48.41,332.151,39.565,332.151z"/>
		<path style="fill:#B3E59F;" d="M111.71,292.07c-8.846,0-16.032,7.186-16.032,16.032s7.186,16.032,16.032,16.032    s16.032-7.186,16.032-16.032S120.556,292.07,111.71,292.07z"/>
		<rect x="111.71" y="227.941" style="fill:#5D5360;" width="128.258" height="56.113"/>
		<polygon style="fill:#4B3F4E;" points="400.29,284.054 384.258,227.941 111.71,227.941 111.71,260.006 239.968,260.006     239.968,284.054   "/>
		<path style="fill:#ECEAEC;" d="M432.355,211.909h-16.032c-8.854,0-16.032-7.178-16.032-16.032v0    c0-8.854,7.178-16.032,16.032-16.032h16.032V211.909z"/>
		<path style="fill:#B3E59F;" d="M247.984,332.151c-8.846,0-16.032,7.186-16.032,16.032c0,8.846,7.186,16.032,16.032,16.032    s16.032-7.186,16.032-16.032C264.016,339.337,256.83,332.151,247.984,332.151z"/>
		<path style="fill:#6F6571;" d="M111.71,203.893c-13.282,0-24.048,10.767-24.048,24.048c0,4.427,3.589,8.016,8.016,8.016h168.339    v-32.065H111.71z"/>
		<g>
			<rect x="239.968" y="203.893" style="fill:#5D5360;" width="24.048" height="32.065"/>
		</g>
		<path style="fill:#B3E59F;" d="M368.401,179.845h-88.352c-8.854,0-16.032,7.178-16.032,16.032v40.081H396.15    c5.755,0,9.635-5.884,7.368-11.174l-13.013-30.364C386.715,185.578,378.021,179.845,368.401,179.845z"/>
		<path style="fill:#5D5360;" d="M344.177,316.119h-56.113c-13.282,0-24.048-10.767-24.048-24.048v0    c0-13.282,10.767-24.048,24.048-24.048h56.113c13.282,0,24.048,10.767,24.048,24.048v0    C368.226,305.352,357.459,316.119,344.177,316.119z"/>
		<circle style="fill:#4B3F4E;" cx="344.177" cy="292.07" r="24.048"/>
		<path style="fill:#95D6A4;" d="M370.308,208.751c-1.263-2.947-4.161-4.858-7.368-4.858h-98.924v32.065h117.952L370.308,208.751z"/>
	</g>
	<path d="M509.812,334.89c-2.912-2.932-7.656-2.946-10.598-0.044c-0.221,0.219-22.58,21.869-58.843,21.869h-3.403l-41.623-113.258   h0.805c5.231,0,10.074-2.607,12.954-6.975c2.879-4.367,3.369-9.845,1.308-14.654l-1.562-3.644c2.35,0.789,4.861,1.224,7.473,1.224   h16.032c4.142,0,7.5-3.358,7.5-7.5v-32.064c0-4.142-3.358-7.5-7.5-7.5h-16.032c-9.659,0-17.975,5.852-21.596,14.195   c-5.618-8.535-15.086-13.895-25.504-14.165l-6.13-16.68c-3.389-9.22-12.265-15.415-22.088-15.415h-28.892   c-4.142,0-7.5,3.358-7.5,7.5s3.358,7.5,7.5,7.5h28.892c3.562,0,6.78,2.246,8.009,5.589l4.217,11.476h-73.183   c-12.976,0-23.532,10.557-23.532,23.532v0.516H111.709c-17.396,0-31.548,14.152-31.548,31.548c0,8.556,6.96,15.516,15.516,15.516   h8.532v33.097H87.661c-4.42,0-8.576-1.721-11.701-4.847l-9.961-9.961c-5.958-5.958-13.881-9.24-22.308-9.24H7.5   c-4.142,0-7.5,3.358-7.5,7.5s3.358,7.5,7.5,7.5h36.19c4.42,0,8.576,1.721,11.702,4.847l9.961,9.961   c5.958,5.958,13.881,9.24,22.308,9.24h2.062c0,0-62.273,36.451-62.424,36.555c-6.752,4.141-11.267,11.59-11.267,20.074   c0,12.976,10.557,23.532,23.532,23.532h208.419c12.976,0,23.532-10.557,23.532-23.532c0-10.934-7.496-20.149-17.618-22.779   l-103.59-33.85h106.221c-0.003,0.172-0.013,0.343-0.013,0.516c0,17.396,14.152,31.548,31.548,31.548h56.113   c17.396,0,31.548-14.152,31.548-31.548c0-0.173-0.01-0.344-0.013-0.516h21.328l23.947,65.161h-68.794c-4.142,0-7.5,3.358-7.5,7.5   s3.358,7.5,7.5,7.5h88.178c42.696,0,68.36-25.173,69.432-26.245C512.726,342.548,512.724,337.822,509.812,334.89z M416.323,187.345   h8.532v17.064h-8.532c-4.705,0-8.532-3.828-8.532-8.532S411.618,187.345,416.323,187.345z M271.516,195.877   c0-4.705,3.828-8.532,8.532-8.532h88.353c6.629,0,12.599,3.937,15.21,10.03l13.013,30.364c0.038,0.089,0.109,0.255-0.043,0.487   s-0.333,0.232-0.431,0.232H271.516V195.877z M119.209,243.457h8.534c4.142,0,7.5-3.358,7.5-7.5s-3.358-7.5-7.5-7.5H95.677   c-0.285,0-0.516-0.231-0.516-0.516c0-9.125,7.423-16.548,16.548-16.548h144.807v17.064h-96.71c-4.142,0-7.5,3.358-7.5,7.5   s3.358,7.5,7.5,7.5h72.662v33.097H119.209V243.457z M54.157,329.742l34.088-19.944c0.873,12.186,11.06,21.836,23.464,21.836   c12.976,0,23.532-10.557,23.532-23.532c0-2.051-0.265-4.042-0.761-5.94l95.29,31.138c-3.322,4.058-5.319,9.241-5.319,14.882   c0,3.009,0.574,5.885,1.608,8.532H61.489c1.034-2.647,1.608-5.523,1.608-8.532C63.097,340.717,59.597,334.056,54.157,329.742z    M111.709,299.57c4.705,0,8.532,3.828,8.532,8.532s-3.828,8.532-8.532,8.532s-8.532-3.828-8.532-8.532   S107.005,299.57,111.709,299.57z M39.564,339.651c4.705,0,8.532,3.828,8.532,8.532s-3.828,8.532-8.532,8.532   s-8.532-3.828-8.532-8.532S34.86,339.651,39.564,339.651z M247.984,356.715c-4.705,0-8.532-3.828-8.532-8.532   s3.828-8.532,8.532-8.532c0.647,0,1.274,0.079,1.88,0.216l0.082,0.027c0.114,0.037,0.228,0.051,0.342,0.083   c3.588,1.009,6.229,4.302,6.229,8.208C256.516,352.888,252.688,356.715,247.984,356.715z M271.516,292.07   c0-9.125,7.423-16.548,16.548-16.548h29.268c-2.979,4.814-4.703,10.483-4.703,16.548s1.725,11.734,4.703,16.548h-29.268   C278.939,308.619,271.516,301.195,271.516,292.07z M344.177,308.619c-9.125,0-16.548-7.423-16.548-16.548   s7.423-16.548,16.548-16.548s16.548,7.423,16.548,16.548S353.302,308.619,344.177,308.619z M371.63,276.554   c-5.426-9.562-15.695-16.032-27.453-16.032h-56.113c-11.758,0-22.027,6.47-27.453,16.032h-13.144v-33.097h131.897l12.163,33.097   H371.63z"/>
</g>















</svg>
