<?xml version="1.0" encoding="iso-8859-1"?>
<!-- Generator: Adobe Illustrator 19.0.0, SVG Export Plug-In . SVG Version: 6.00 Build 0)  -->
<svg xmlns="http://www.w3.org/2000/svg" xmlns:xlink="http://www.w3.org/1999/xlink" version="1.1" id="Capa_1" x="0px" y="0px" viewBox="0 0 512.003 512.003" style="enable-background:new 0 0 512.003 512.003;" xml:space="preserve" width="512" height="512">
<g>
	<g>
		<path style="fill:#FFE07D;" d="M416.075,492.478H95.928c-9.833,0-18.676-5.987-22.328-15.117l-19.907-49.766    c-3.99-9.975-5.033-20.886-3.004-31.437l31.971-166.251c2.903-15.097,16.114-26.009,31.488-26.009h283.706    c15.374,0,28.584,10.912,31.488,26.009l31.971,166.251c2.029,10.55,0.986,21.461-3.004,31.437l-19.907,49.766    C434.751,486.491,425.908,492.478,416.075,492.478z"/>
		<path style="fill:#FFD064;" d="M461.313,396.158l-3.059-15.906H53.749l-3.059,15.906c-1.029,5.351-1.253,10.792-0.718,16.159    h412.06C462.565,406.95,462.342,401.508,461.313,396.158z"/>
		<path style="fill:#6F6571;" d="M49.972,412.317c0.52,5.216,1.755,10.362,3.721,15.278L73.6,477.361    c3.652,9.13,12.495,15.117,22.329,15.117h320.146c9.833,0,18.677-5.987,22.329-15.117l19.906-49.766    c1.966-4.916,3.202-10.062,3.721-15.278H49.972z"/>
		<path style="fill:#A4CCFF;" d="M296.082,460.414h-80.161c-8.854,0-16.032-7.178-16.032-16.032V251.994    c0-8.854,7.178-16.032,16.032-16.032h80.161c8.854,0,16.032,7.178,16.032,16.032v192.387    C312.114,453.236,304.936,460.414,296.082,460.414z"/>
		<path style="fill:#DAD8DB;" d="M296.082,163.817h-80.161c-8.854,0-16.032,7.178-16.032,16.032v24.048h112.226v-24.048    C312.114,170.994,304.936,163.817,296.082,163.817z"/>
		<circle style="fill:#DAD8DB;" cx="344.179" cy="51.591" r="24.048"/>
		<path style="fill:#A4CCFF;" d="M430.507,235.962h-70.296c-8.854,0-16.032,7.178-16.032,16.032V364.22    c0,8.854,7.178,16.032,16.032,16.032h98.043L430.507,235.962z"/>
		<path style="fill:#A4CCFF;" d="M53.748,380.252h98.043c8.854,0,16.032-7.178,16.032-16.032V251.994    c0-8.855-7.178-16.032-16.032-16.032H81.496L53.748,380.252z"/>
		<path style="fill:#8BB3EA;" d="M151.792,235.962H81.496l-4.625,24.048h90.952v-8.016    C167.824,243.139,160.646,235.962,151.792,235.962z"/>
		<path style="fill:#8BB3EA;" d="M360.211,235.962h70.295l4.625,24.048h-90.952v-8.016    C344.179,243.139,351.357,235.962,360.211,235.962z"/>
		<path style="fill:#8BB3EA;" d="M312.114,260.01H199.888v-8.016c0-8.854,7.178-16.032,16.032-16.032h80.161    c8.854,0,16.032,7.178,16.032,16.032V260.01z"/>
		<path style="fill:#C8C5C9;" d="M215.921,163.817h8.016v40.081h-24.048v-24.048C199.888,170.995,207.066,163.817,215.921,163.817z"/>
		<path style="fill:#5D5360;" d="M438.404,477.361l3.573-8.931H70.028l3.572,8.931c3.652,9.13,12.496,15.117,22.329,15.117h320.146    C425.908,492.478,434.752,486.491,438.404,477.361z"/>
	</g>
	<path d="M511.865,18.101c-0.787-4.067-4.722-6.727-8.789-5.938L372.373,37.461c-5.193-10.318-15.877-17.418-28.194-17.418   c-16.523,0-30.11,12.771-31.433,28.958L6.076,108.357c-4.066,0.787-6.725,4.722-5.938,8.789c0.694,3.585,3.834,6.076,7.355,6.076   c0.473,0,0.952-0.045,1.434-0.138l306.173-59.26c3.84,9.094,11.829,16.02,21.579,18.407v57.537   c0,13.011-10.169,23.685-22.976,24.508c-4.315-4.876-10.613-7.959-17.621-7.959h-80.161c-12.976,0-23.532,10.557-23.532,23.532   v16.548h-78.24c-18.937,0-35.276,13.497-38.853,32.093L43.324,394.742c-2.304,11.984-1.127,24.308,3.406,35.639l19.906,49.767   c4.819,12.047,16.317,19.831,29.292,19.831h320.146c12.975,0,24.473-7.784,29.292-19.832l19.906-49.766   c4.533-11.331,5.71-23.654,3.406-35.639L436.707,228.49c-3.576-18.596-19.916-32.093-38.853-32.093h-78.24v-16.548   c0-0.413-0.011-0.824-0.032-1.233c18.257-3.503,32.097-19.585,32.097-38.848V82.231c13.63-3.337,23.806-15.549,24.036-30.139   L505.927,26.89C509.993,26.103,512.652,22.168,511.865,18.101z M431.44,474.576c-2.528,6.319-8.559,10.402-15.365,10.402H95.928   c-6.806,0-12.837-4.083-15.365-10.402l-19.906-49.767c-0.656-1.639-1.219-3.306-1.69-4.992h133.422v24.564   c0,12.976,10.557,23.532,23.532,23.532h80.161c12.976,0,23.532-10.557,23.532-23.532v-24.564h133.422   c-0.471,1.687-1.034,3.353-1.69,4.993L431.44,474.576z M296.082,243.462c4.705,0,8.532,3.828,8.532,8.532v192.387   c0,4.705-3.828,8.532-8.532,8.532h-32.581V243.462H296.082z M248.501,452.913h-32.581c-4.705,0-8.532-3.828-8.532-8.532V251.994   c0-4.705,3.828-8.532,8.532-8.532h32.581V452.913z M421.223,228.462h-61.014c-12.976,0-23.532,10.557-23.532,23.532v8.015   c0,4.142,3.358,7.5,7.5,7.5s7.5-3.358,7.5-7.5v-8.015c0-4.705,3.828-8.532,8.532-8.532h64.101l24.864,129.291h-88.965   c-4.705,0-8.532-3.828-8.532-8.532v-72.147c0-4.142-3.358-7.5-7.5-7.5s-7.5,3.358-7.5,7.5v72.147   c0,12.976,10.557,23.532,23.532,23.532h91.85l1.889,9.822c0.462,2.402,0.736,4.823,0.834,7.242H319.614V251.994   c0-12.976-10.557-23.532-23.532-23.532h-80.161c-12.976,0-23.532,10.557-23.532,23.532v152.823H57.221   c0.098-2.42,0.372-4.84,0.834-7.242l1.889-9.822H71.63c4.142,0,7.5-3.358,7.5-7.5s-3.358-7.5-7.5-7.5h-8.802l24.864-129.291h64.1   c4.705,0,8.532,3.828,8.532,8.532V364.22c0,4.705-3.828,8.532-8.532,8.532h-48.098c-4.142,0-7.5,3.358-7.5,7.5s3.358,7.5,7.5,7.5   h48.098c12.976,0,23.532-10.557,23.532-23.532V251.994c0-12.976-10.557-23.532-23.532-23.532H90.78   c3.222-10.038,12.611-17.064,23.369-17.064h283.706C408.612,211.397,418.001,218.424,421.223,228.462z M207.389,196.397v-16.548   c0-4.705,3.828-8.532,8.532-8.532h80.161c4.705,0,8.532,3.828,8.532,8.532v16.548H207.389z M344.179,68.139   c-9.125,0-16.548-7.423-16.548-16.548s7.423-16.548,16.548-16.548s16.548,7.423,16.548,16.548S353.304,68.139,344.179,68.139z"/>
</g>















</svg>
