<?xml version="1.0" encoding="iso-8859-1"?>
<!-- Generator: Adobe Illustrator 19.0.0, SVG Export Plug-In . SVG Version: 6.00 Build 0)  -->
<svg xmlns="http://www.w3.org/2000/svg" xmlns:xlink="http://www.w3.org/1999/xlink" version="1.1" id="Capa_1" x="0px" y="0px" viewBox="0 0 512 512" style="enable-background:new 0 0 512 512;" xml:space="preserve" width="512" height="512">
<g>
	<g>
		<polygon style="fill:#ECEAEC;" points="504.5,143.774 71.629,199.887 71.629,7.5 504.5,63.613   "/>
		<path style="fill:#DAD8DB;" d="M95.677,95.677v-85.06L71.629,7.5v192.387L504.5,143.774l0,0v-16.032H127.742    C110.033,127.742,95.677,113.386,95.677,95.677z"/>
		<path style="fill:#ECEAEC;" d="M20.84,7.72C12.957,9.002,7.5,16.404,7.5,24.39l0,480.11h32.065V23.532    C39.565,13.795,30.884,6.085,20.84,7.72z"/>
		<rect x="7.5" y="296.081" style="fill:#FF8086;" width="32.065" height="128.258"/>
		<rect x="7.5" y="39.565" style="fill:#FF8086;" width="32.065" height="128.258"/>
		<polygon style="fill:#FF8086;" points="71.629,199.887 159.806,188.457 159.806,18.93 71.629,7.5   "/>
		<path style="fill:#E5646E;" d="M71.629,199.887l88.177-11.43v-60.715h-32.065c-17.709,0-32.065-14.356-32.065-32.065v-85.06    L71.629,7.5V199.887z"/>
		<polygon style="fill:#FF8086;" points="244.778,177.442 331.352,166.219 331.352,41.168 244.778,29.945   "/>
		<polygon style="fill:#E5646E;" points="244.778,177.442 331.352,166.219 331.352,127.742 244.778,127.742   "/>
		<polygon style="fill:#FF8086;" points="504.5,63.613 417.926,52.39 417.926,154.997 504.5,143.774 504.5,143.774 504.5,63.613       "/>
		<polygon style="fill:#E5646E;" points="417.926,154.997 504.5,143.774 504.5,143.774 504.5,127.742 417.926,127.742   "/>
	</g>
	<path d="M505.464,56.175L72.593,0.062c-2.137-0.275-4.294,0.38-5.915,1.804C65.058,3.29,64.129,5.343,64.129,7.5v24.564H47.064   v-8.532C47.064,10.557,36.508,0,23.532,0S0,10.557,0,23.532V504.5c0,4.142,3.358,7.5,7.5,7.5s7.5-3.358,7.5-7.5v-72.661h17.064   V504.5c0,4.142,3.358,7.5,7.5,7.5s7.5-3.358,7.5-7.5V215.919c0-4.142-3.358-7.5-7.5-7.5s-7.5,3.358-7.5,7.5v72.661H15V175.323   h17.064v8.532c0,4.142,3.358,7.5,7.5,7.5s7.5-3.358,7.5-7.5v-8.532h17.064v24.564c0,2.157,0.929,4.21,2.549,5.634   c1.377,1.21,3.139,1.866,4.951,1.866c0.32,0,0.643-0.021,0.964-0.062l432.871-56.113c3.738-0.485,6.536-3.668,6.536-7.438V63.613   C512,59.843,509.202,56.66,505.464,56.175z M338.853,49.703l71.574,9.278v89.426l-71.574,9.278V49.703z M323.853,159.629   l-71.574,9.278V38.48l71.574,9.278V159.629z M23.532,15c4.705,0,8.532,3.828,8.532,8.532v8.532H15v-8.532   C15,18.828,18.828,15,23.532,15z M32.064,303.581v113.258H15V303.581H32.064z M15,160.323V47.064h17.064v113.258H15z    M47.064,160.323V47.064h17.064v113.258H47.064z M79.129,16.035l71.575,9.278v14.251c0,4.142,3.358,7.5,7.5,7.5s7.5-3.358,7.5-7.5   V27.258l71.574,9.278v134.315l-71.574,9.278V71.632c0-4.142-3.358-7.5-7.5-7.5s-7.5,3.358-7.5,7.5v110.442l-71.575,9.278V16.035z    M497,137.184l-71.573,9.278V60.925L497,70.203V137.184z"/>
</g>















</svg>
