<?xml version="1.0" encoding="iso-8859-1"?>
<!-- Generator: Adobe Illustrator 19.0.0, SVG Export Plug-In . SVG Version: 6.00 Build 0)  -->
<svg xmlns="http://www.w3.org/2000/svg" xmlns:xlink="http://www.w3.org/1999/xlink" version="1.1" id="Capa_1" x="0px" y="0px" viewBox="0 0 512 512" style="enable-background:new 0 0 512 512;" xml:space="preserve" width="512" height="512">
<g>
	<g>
		<circle style="fill:#C3DDFF;" cx="256" cy="256" r="248.5"/>
		<path style="fill:#A4CCFF;" d="M324.789,435.711c-137.243,0-248.5-111.258-248.5-248.5c0-51.034,15.405-98.459,41.788-137.923    C51.414,93.856,7.5,169.791,7.5,256c0,137.242,111.257,248.5,248.5,248.5c86.209,0,162.144-43.914,206.712-110.577    C423.249,420.306,375.823,435.711,324.789,435.711z"/>
		<path style="fill:#CCF49F;" d="M338.394,21.547l-30.957,21.357l-5.926-1.839c-8.306-2.577-17.356-0.47-23.67,5.511l-32.805,29.88    l24.733,24.45c5.143,3.413,10.94,6.354,16.019,6.7l8.637,0.589c7.747,0.528,14.762,4.764,18.836,11.373l18.819,30.529    c2.853,4.63,8.288,6.996,13.623,5.929l0.602-0.12c7.812-1.562,15.491,3.226,17.525,10.929l15.082,57.1    c-11.638-2.134-21.058,9.4-16.644,20.377l13.638,35.067l10.354,8.016l-7.838,16.502c-2.91,6.126-1.652,13.421,3.145,18.216    l9.368,9.37l-14.343,71.149c-1.131,5.605-7.556,8.307-12.353,5.192l-18.986-13.593c-7.773-5.565-17.902-6.627-26.66-2.796v0    c-3.558,1.78-6.397,4.455-7.987,7.454l-32.372,61.029c-3.107,5.856-3.658,12.735-1.525,19.01l8.503,23.804    c13.332-1.563,26.318-4.24,38.92-7.826l15.316-4.864C435.633,455.761,504.5,363.956,504.5,256    C504.5,147.647,435.128,55.544,338.394,21.547z"/>
		<path style="fill:#CCF49F;" d="M70.645,333.974l27.222,1.877c2.697,0.186,5.223-1.332,6.326-3.8l23.23-52.015    c2.517-5.635-2.011-11.881-8.15-11.242l-12.02,1.252c-3.809,0.397-7.053,2.942-8.345,6.547l-10.578,29.507l-1.711-0.531    c-9.32-2.893-19.041,3.143-20.583,12.779l-1.309,8.18C64.128,330.268,66.868,333.714,70.645,333.974z"/>
		<path style="fill:#FFFFFF;" d="M215.522,305.983l-31.432-15.547c-8.401-4.155-18.558-0.25-22.012,8.462l-22.979,57.971    l-17.564,3.1c-9.918,1.75-17.695,9.495-19.485,19.406l-4.2,23.238c-1.183,6.546,5.555,11.672,11.548,8.787l21.685-10.441h36.64    c8.722,0,16.761-4.723,21.007-12.342l33.69-60.458C226.879,320.154,223.735,310.046,215.522,305.983z"/>
		<path style="fill:#FFFFFF;" d="M127.035,219.369l4.674,9.681c1.194,2.473,3.951,3.779,6.621,3.136l20.336-4.896    c5.418-1.304,7.885-7.603,4.794-12.24l-11.288-16.932c-1.965-2.948-6.083-3.479-8.732-1.124l-14.51,12.898    C126.25,212.273,125.477,216.142,127.035,219.369z"/>
		<circle style="fill:#B3E59F;" cx="202.559" cy="445.047" r="14.028"/>
		<path style="fill:#CCF49F;" d="M154.887,51.621c0.935,10.665-5.291,20.664-15.275,24.528l-13.749,5.322    c-7.107,2.751-14.766,3.774-22.346,2.984L78.82,81.819c-38.925,39.592-64.676,92.151-70.177,150.62l36.266,10.2l26.849,28.287    c5.906,6.222,15.663,6.693,22.141,1.068l5.623-4.883c4.942-4.292,6.779-11.157,4.641-17.343l-8.88-25.687    c-3.869-11.191-1.254-23.604,6.8-32.285l37.816-40.758c6.059-6.53,13.586-11.524,21.958-14.568l31.986-11.631    c12.007-4.366,18.504-17.358,14.794-29.583l-23.247-77.516c-11.19,3.312-22.041,7.397-32.512,12.181L154.887,51.621z"/>
		<path style="fill:#B3E59F;" d="M91.719,273.543c-9.966-26.894-15.429-55.972-15.429-86.332c0-36.866,8.139-71.796,22.548-103.255    l-19.905-2.124c-38.958,39.592-64.7,92.139-70.206,150.632l36.182,10.176l26.849,28.287    C77.037,276.489,85.378,277.42,91.719,273.543z"/>
		<path style="fill:#B3E59F;" d="M104.193,332.051l7.547-16.899c-5.897-9.799-11.144-20.033-15.667-30.651l-7.744,21.599    l-1.711-0.531c-9.32-2.893-19.041,3.143-20.583,12.779l-1.309,8.181c-0.598,3.738,2.141,7.184,5.919,7.445l27.222,1.877    C100.564,336.038,103.091,334.52,104.193,332.051z"/>
		<path style="fill:#B3E59F;" d="M43.328,316.072l1.581-12.644l-33.141-1.719c2.377,12.776,5.709,25.211,9.96,37.22l6.669-3.511    C36.524,332.167,42.242,324.757,43.328,316.072z"/>
		<path style="fill:#DBEAFF;" d="M140.346,353.721l-1.248,3.148l-17.564,3.1c-9.918,1.75-17.695,9.495-19.485,19.406l-4.2,23.238    c-1.183,6.546,5.555,11.672,11.548,8.787l21.685-10.441h36.64c6.867,0,13.232-3.004,17.734-7.968    C168.877,381.743,153.734,368.541,140.346,353.721z"/>
		<path style="fill:#B3E59F;" d="M462.348,394.148c-35.747,23.809-78.027,38.498-123.561,41.037l-17.01,0.45    c-10.003-0.119-19.853-0.846-29.538-2.114l-14.003,26.399c-3.107,5.856-3.658,12.735-1.525,19.01l8.503,23.804    c25.27-1.991,54.236-12.691,54.236-12.691l0,0C390.032,472.014,432.918,437.976,462.348,394.148z"/>
	</g>
	<g>
		<path d="M437.02,74.98C388.667,26.629,324.38,0,256,0S123.333,26.629,74.98,74.98C26.629,123.333,0,187.62,0,256    s26.629,132.667,74.98,181.02C123.333,485.371,187.62,512,256,512s132.667-26.629,181.02-74.98    C485.371,388.667,512,324.38,512,256S485.371,123.333,437.02,74.98z M147.416,52.276c0.64,7.294-3.683,14.235-10.512,16.879    l-13.749,5.322c-5.971,2.312-12.492,3.181-18.861,2.519l-8.646-0.901c15.549-13.895,32.609-25.574,50.798-34.876L147.416,52.276z     M81.55,89.724l21.19,2.192c1.898,0.198,3.805,0.296,5.713,0.296c6.859,0,13.72-1.269,20.117-3.746l13.749-5.322    c13.019-5.04,21.259-18.271,20.039-32.178l-1.45-16.535c6.298-2.704,12.704-5.151,19.218-7.303l21.334,70.305    c2.552,8.411-1.919,17.353-10.18,20.357l-31.986,11.631c-9.447,3.436-18.055,9.146-24.893,16.516l-37.817,40.758    c-9.958,10.733-13.173,25.998-8.39,39.836l8.879,25.688c1.145,3.31,0.175,6.933-2.469,9.229l-5.624,4.883    c-3.457,3.001-8.632,2.752-11.783-0.568l-26.849-28.288c-0.914-0.962-2.066-1.666-3.34-2.037l-30.242-8.821    C22.97,175.257,45.4,127.605,81.55,89.724z M95.389,308.632l11.101-30.965l13.56-1.413c0.118-0.012,0.296-0.03,0.471,0.211    c0.175,0.241,0.102,0.405,0.054,0.513l-22.929,51.34l-25.331-1.747l1.126-7.038c0.397-2.48,1.791-4.576,3.925-5.901    c2.133-1.325,4.629-1.645,7.03-0.9l1.711,0.531C89.943,314.456,94.034,312.412,95.389,308.632z M20.908,309.412l15.57,0.994    l-0.592,4.736c-0.73,5.837-4.509,10.832-9.896,13.146C24.047,322.078,22.343,315.785,20.908,309.412z M426.413,426.413    c-25.962,25.962-56.808,45.258-90.461,57.058l-6.157-16.418c-0.678-1.808-0.721-3.813-0.121-5.648l9.609-29.391    c1.287-3.937-0.861-8.172-4.798-9.459c-3.938-1.287-8.172,0.861-9.459,4.798l-9.609,29.392c-1.653,5.059-1.535,10.59,0.333,15.575    l5.879,15.675c-10.343,2.909-20.915,5.124-31.658,6.631l-6.157-18.109c-1.462-4.301-1.08-9.069,1.048-13.082l32.372-61.029    c1.187-2.237,3.289-3.822,5.767-4.348l9.374-1.989l27.782,18.046c2.569,1.669,5.523,2.52,8.496,2.52    c2.046,0,4.102-0.403,6.046-1.22c4.768-2.004,8.225-6.228,9.248-11.298l14.344-71.148c0.497-2.462-0.272-5.01-2.049-6.786    l-9.37-9.37c-2.546-2.546-3.218-6.442-1.674-9.694l4.442-9.351l33.329,21.331c1.252,0.801,2.652,1.184,4.036,1.184    c2.472,0,4.893-1.221,6.324-3.458c2.233-3.489,1.215-8.127-2.274-10.36l-48.08-30.771L369.262,241.6    c-1.5-3.728,0.298-6.55,1.141-7.59c0.842-1.041,3.228-3.384,7.221-2.686c2.52,0.441,5.086-0.433,6.815-2.316    s2.379-4.517,1.727-6.988l-15.083-57.1c-3.042-11.514-14.573-18.701-26.248-16.368l-4.359,0.872l-0.567-0.92    c-2.174-3.526-6.795-4.623-10.32-2.449c-3.526,2.174-4.623,6.794-2.449,10.32l3.306,5.363c1.646,2.67,4.779,4.033,7.855,3.419    l9.476-1.895c3.918-0.785,7.784,1.628,8.804,5.49l12.808,48.486c-4.093,1.305-7.782,3.802-10.64,7.33    c-5.231,6.458-6.503,14.917-3.402,22.628l14.606,36.318c0.583,1.448,1.602,2.678,2.916,3.519l4.037,2.584l-5.256,11.065    c-4.261,8.97-2.406,19.715,4.616,26.736l6.526,6.527l-13.549,67.206c-0.019,0.093-0.063,0.311-0.355,0.434    c-0.292,0.124-0.479,0.002-0.559-0.05l-15.195-9.87l6.63-1.406c4.052-0.86,6.64-4.841,5.781-8.893    c-0.859-4.052-4.839-6.637-8.893-5.781l-36.762,7.798c-6.834,1.45-12.632,5.821-15.906,11.993l-32.372,61.029    c-4.058,7.65-4.786,16.74-1.999,24.938l5.08,14.939C268.503,496.755,262.271,497,256,497c-64.374,0-124.894-25.068-170.413-70.587    C61.315,402.14,42.861,373.6,30.919,342.487l0.264-0.106c10.659-4.264,18.164-13.989,19.587-25.379l1.581-12.644    c0.257-2.052-0.345-4.119-1.664-5.712c-1.318-1.593-3.236-2.571-5.3-2.703l-27.377-1.747C16.027,281.678,15,268.919,15,256    c0-4.739,0.153-9.455,0.422-14.148l25.441,7.42l25.454,26.818c4.627,4.875,10.835,7.349,17.068,7.349    c1.787,0,3.572-0.225,5.327-0.634l-5.233,14.598c-4.879-0.335-9.79,0.855-14.025,3.485c-5.8,3.601-9.746,9.533-10.825,16.274    l-2.422,15.141c-0.333,2.08,0.224,4.204,1.535,5.852c1.311,1.649,3.254,2.67,5.355,2.815l38.745,2.672    c0.174,0.012,0.347,0.018,0.519,0.018c2.941,0,5.633-1.727,6.846-4.441l25.065-56.125c2.288-5.122,1.688-10.892-1.605-15.434    c-3.292-4.542-8.586-6.908-14.17-6.326l-7.031,0.732c1.48-4.7,1.481-9.847-0.214-14.749l-8.879-25.688    c-2.97-8.592-0.974-18.07,5.209-24.734l37.817-40.758c5.226-5.632,11.803-9.996,19.023-12.622l31.986-11.631    c15.749-5.727,24.273-22.774,19.408-38.81l-21.299-70.189C214.341,17.695,234.962,15,256,15c22.665,0,44.848,3.121,66.071,9.135    l-15.823,10.548l-2.515-0.781c-10.882-3.375-22.777-0.606-31.048,7.228l-27.568,26.117l-11.435-10.495    c-3.052-2.802-7.797-2.597-10.597,0.454c-2.801,3.052-2.598,7.796,0.454,10.597l42.553,39.055    c5.255,4.823,12.069,7.747,19.187,8.233l8.636,0.588c5.318,0.363,10.164,3.289,12.961,7.826l2.948,4.784    c1.417,2.3,3.875,3.566,6.392,3.566c1.342,0,2.701-0.36,3.928-1.116c3.526-2.173,4.623-6.793,2.45-10.32l-2.949-4.785    c-5.333-8.651-14.571-14.229-24.71-14.92l-8.635-0.588c-3.734-0.255-7.308-1.789-10.064-4.318l-20.039-18.392l26.806-25.395    c4.338-4.109,10.577-5.563,16.286-3.791l5.926,1.839c2.159,0.668,4.503,0.331,6.383-0.923l28.609-19.073    c31.998,11.908,61.343,30.653,86.206,55.516C471.932,131.106,497,191.626,497,256S471.932,380.894,426.413,426.413z"/>
		<path d="M218.848,299.261l-31.433-15.547c-5.876-2.906-12.758-3.224-18.877-0.872c-6.12,2.353-11.016,7.198-13.432,13.293    l-7.712,19.456c-1.526,3.851,0.358,8.209,4.208,9.736c3.849,1.524,8.209-0.357,9.736-4.208l7.712-19.456    c0.889-2.242,2.618-3.954,4.87-4.819c2.252-0.866,4.683-0.753,6.845,0.316l31.433,15.547c2.114,1.045,3.664,2.862,4.364,5.114    c0.701,2.252,0.454,4.627-0.694,6.688l-33.691,60.458c-2.919,5.239-8.458,8.493-14.455,8.493h-36.64    c-1.126,0-2.239,0.254-3.253,0.743l-21.685,10.44c-0.133,0.064-0.355,0.171-0.67-0.068c-0.314-0.239-0.27-0.482-0.244-0.627    l4.2-23.238c1.227-6.789,6.615-12.155,13.409-13.354l17.563-3.1c2.564-0.452,4.709-2.202,5.669-4.622l4.068-10.264    c1.526-3.851-0.358-8.209-4.208-9.736c-3.849-1.526-8.209,0.357-9.736,4.208l-2.525,6.37l-13.438,2.372    c-12.951,2.285-23.224,12.516-25.563,25.457l-4.2,23.239c-1.051,5.816,1.218,11.653,5.922,15.232    c2.786,2.12,6.107,3.206,9.459,3.206c2.307,0,4.629-0.515,6.8-1.56l20.143-9.698h34.928c11.434,0,21.993-6.204,27.558-16.191    l33.69-60.458c3.167-5.683,3.847-12.232,1.915-18.444C228.953,307.154,224.678,302.145,218.848,299.261z"/>
		<path d="M171.236,225.155c1.847-4.717,1.272-10.05-1.538-14.265l-15.008-22.512c-1.204-1.806-3.13-3.001-5.282-3.278    c-2.15-0.28-4.318,0.391-5.941,1.833l-19.522,17.353c-5.158,4.585-6.665,12.128-3.665,18.343L127,236.548    c1.273,2.636,3.926,4.24,6.752,4.24c0.582,0,1.171-0.068,1.757-0.209l24.911-5.997    C165.345,233.396,169.388,229.873,171.236,225.155z M157.269,219.686c-0.098,0.25-0.274,0.293-0.359,0.313l-19.03,4.581    l-4.09-8.472c0,0,0,0,0,0c-0.1-0.207-0.049-0.458,0.122-0.61l13.08-11.626l10.227,15.34    C157.266,219.284,157.367,219.435,157.269,219.686z"/>
		<path d="M156.531,251.28c-4.082,0.703-6.822,4.581-6.12,8.663c0.628,3.652,3.798,6.229,7.383,6.229c0.422,0,0.85-0.036,1.28-0.109    l15.531-2.672c4.082-0.703,6.822-4.581,6.12-8.663c-0.703-4.083-4.58-6.822-8.663-6.12L156.531,251.28z"/>
		<path d="M195.703,271.876l7.515,6.012c1.383,1.106,3.037,1.644,4.68,1.644c2.2,0,4.38-0.964,5.861-2.815    c2.587-3.234,2.063-7.954-1.171-10.542l-7.515-6.012c-3.234-2.588-7.954-2.063-10.542,1.171S192.468,269.289,195.703,271.876z"/>
		<path d="M325.258,258.19c1.292,0.881,2.762,1.302,4.216,1.302c2.397,0,4.753-1.147,6.205-3.278l3.925-5.761    c2.332-3.423,1.448-8.089-1.976-10.421c-3.423-2.333-8.089-1.447-10.421,1.976l-3.925,5.761    C320.951,251.192,321.835,255.858,325.258,258.19z"/>
		<path d="M337.629,291.696c-3.897,1.403-5.919,5.7-4.516,9.597l12.024,33.4c1.101,3.058,3.983,4.961,7.057,4.961    c0.843,0,1.701-0.143,2.54-0.445c3.897-1.403,5.919-5.7,4.516-9.597l-12.024-33.4    C345.823,292.315,341.528,290.292,337.629,291.696z"/>
		<path d="M202.559,423.519c-11.871,0-21.528,9.657-21.528,21.528s9.658,21.528,21.528,21.528s21.528-9.658,21.528-21.528    S214.43,423.519,202.559,423.519z M202.559,451.575c-3.6,0-6.528-2.929-6.528-6.528s2.929-6.528,6.528-6.528    s6.528,2.928,6.528,6.528S206.159,451.575,202.559,451.575z"/>
		<path d="M288.797,329.009c-0.629-4.094-4.455-6.9-8.553-6.272c-4.094,0.629-6.902,4.459-6.272,8.553l1.336,8.684    c0.57,3.708,3.765,6.361,7.403,6.361c0.379,0,0.763-0.029,1.149-0.088c4.094-0.629,6.902-4.459,6.272-8.553L288.797,329.009z"/>
		<path d="M279.532,256c0-4.142-3.358-7.5-7.5-7.5H263.5v-8.532c0-4.142-3.358-7.5-7.5-7.5s-7.5,3.358-7.5,7.5v8.532h-8.532    c-4.142,0-7.5,3.358-7.5,7.5s3.358,7.5,7.5,7.5h8.532v8.532c0,4.142,3.358,7.5,7.5,7.5s7.5-3.358,7.5-7.5V263.5h8.532    C276.174,263.5,279.532,260.142,279.532,256z"/>
	</g>
</g>















</svg>
