<?xml version="1.0" encoding="iso-8859-1"?>
<!-- Generator: Adobe Illustrator 19.0.0, SVG Export Plug-In . SVG Version: 6.00 Build 0)  -->
<svg xmlns="http://www.w3.org/2000/svg" xmlns:xlink="http://www.w3.org/1999/xlink" version="1.1" id="Capa_1" x="0px" y="0px" viewBox="0 0 512 512" style="enable-background:new 0 0 512 512;" xml:space="preserve" width="512" height="512">
<g>
	<g>
		<circle style="fill:#C3DDFF;" cx="256" cy="256" r="248.5"/>
		<path style="fill:#A4CCFF;" d="M324.789,435.711c-137.243,0-248.5-111.258-248.5-248.5c0-51.034,15.405-98.459,41.788-137.923    C51.414,93.856,7.5,169.791,7.5,256c0,137.242,111.257,248.5,248.5,248.5c86.209,0,162.144-43.914,206.712-110.577    C423.249,420.306,375.823,435.711,324.789,435.711z"/>
		<g>
			<path style="fill:#FFFFFF;" d="M442.769,279.427l-23.04-48.383c-2.251-4.725-3.552-9.844-3.836-15.069l-2.591-47.953     c-0.632-11.688-7.539-22.064-18.079-27.154c-47.279-22.833-177.592-73.589-196.673,49.62l-45.146,14.257     c-3.629,1.146-7.548,0.963-11.055-0.515l-57.812-23.256l6.901,17.721c2.115,5.658,5.785,10.604,10.588,14.267l15.433,11.77     c4.236,3.231,6.59,8.356,6.282,13.675l-2.836,48.905c-0.327,5.636,5.121,9.835,10.488,8.085l11.879-3.874     c0,0,0.501,18.083,18.936,41.487c16.807,21.604,47.812,41.359,104.057,29.945c7.929-1.609,15.87,2.753,18.509,10.4l11.1,32.161     c2.35,6.81,8.922,11.169,16.116,10.78c30.096-1.632,106.425-16.327,132.495-121.088     C445.802,289.929,445.109,284.339,442.769,279.427z"/>
		</g>
		<path style="fill:#EDF4FF;" d="M185.736,247.107l23.111-11.388c4.832-2.381,8.146-7.03,8.82-12.375l1.713-13.585    c1.059-8.393-4.586-16.165-12.896-17.753l-8.304-1.4l-44.776,14.14c-1.236,0.39-2.508,0.57-3.783,0.653l14.26,33.568    C167.47,247.458,177.466,251.182,185.736,247.107z"/>
		<g>
			<path style="fill:#EDF4FF;" d="M271.471,327.37c-0.056-0.053-12.209-10.468-22.768-19.516l-21.859,16.561     c-6.76,5.07-10.381,13.302-9.549,21.711l1.887,19.065c13.305,1.853,28.85,1.467,47.086-2.233c4.691-0.952,9.359,0.227,12.959,2.9     l2.172-15.409C282.7,341.489,278.539,332.923,271.471,327.37z"/>
		</g>
	</g>
	<g>
		<path d="M437.02,74.98C388.667,26.629,324.38,0,256,0S123.333,26.629,74.98,74.98C26.629,123.333,0,187.62,0,256    s26.629,132.667,74.98,181.02C123.333,485.371,187.62,512,256,512s132.667-26.629,181.02-74.98    C485.371,388.667,512,324.38,512,256S485.371,123.333,437.02,74.98z M426.413,426.413C380.894,471.932,320.374,497,256,497    s-124.894-25.068-170.413-70.587S15,320.374,15,256S40.068,131.106,85.587,85.587S191.626,15,256,15    s124.894,25.068,170.413,70.587S497,191.626,497,256S471.932,380.894,426.413,426.413z"/>
		<path d="M256,279.532c4.142,0,7.5-3.358,7.5-7.5V263.5h8.532c4.142,0,7.5-3.358,7.5-7.5s-3.358-7.5-7.5-7.5H263.5v-8.532    c0-4.142-3.358-7.5-7.5-7.5s-7.5,3.358-7.5,7.5v8.532h-8.532c-4.142,0-7.5,3.358-7.5,7.5s3.358,7.5,7.5,7.5h8.532v8.532    C248.5,276.174,251.858,279.532,256,279.532z"/>
		<path d="M449.541,276.202l-24.402-51.244c-0.933-1.96-1.466-4.054-1.583-6.222l-0.581-10.741    c-0.224-4.136-3.752-7.304-7.894-7.084c-4.136,0.224-7.308,3.758-7.084,7.894l0.581,10.741c0.224,4.133,1.239,8.124,3.019,11.861    l24.402,51.244c1.646,3.457,2.076,7.275,1.212,10.75c-24.727,99.355-96.089,113.807-125.624,115.409    c-3.909,0.208-7.364-2.095-8.621-5.738l-11.1-32.161c-1.041-3.015-2.673-5.682-4.709-7.942l1.664-11.441    c1.72-11.823-3.539-23.823-13.396-30.572l-43.243-29.607c-3.418-2.34-8.085-1.466-10.426,1.951    c-2.34,3.418-1.466,8.085,1.951,10.426l9.526,6.522l-10.942,8.207c-8.796,6.597-13.57,17.491-12.458,28.431l0.934,9.183    c-17.365-4.275-31.625-13.504-42.638-27.661c-2.542-3.269-7.255-3.857-10.525-1.314c-3.269,2.543-3.857,7.255-1.314,10.525    c16.962,21.802,50.081,45.169,111.536,32.676c4.238-0.864,8.479,1.507,9.86,5.51l11.1,32.161    c3.273,9.483,12.342,15.857,22.338,15.856c0.423,0,0.849-0.011,1.275-0.035c14.65-0.794,43.412-4.849,71.438-23.072    c33.347-21.683,56.201-56.569,67.929-103.693C453.467,290.183,452.677,282.789,449.541,276.202z M264.837,355.595    c-14.063,2.859-26.984,3.811-38.747,2.89l-1.334-13.118c-0.583-5.738,1.92-11.453,6.535-14.913l15.011-11.258l20.647,14.137    c5.171,3.54,7.929,9.835,7.027,16.036l-0.877,6.03C270.415,354.991,267.626,355.028,264.837,355.595z"/>
		<path d="M154.321,303.202c-2.753-7.523-3.634-12.815-3.64-12.851c-0.344-2.168-1.62-4.077-3.493-5.223    c-1.872-1.146-4.153-1.414-6.24-0.733l-11.878,3.874c-0.085,0.027-0.259,0.084-0.475-0.082s-0.205-0.35-0.2-0.438l3.328-57.413    c0.145-2.488-0.957-4.886-2.939-6.397l-22.208-16.938c-3.684-2.81-6.489-6.59-8.112-10.93l-0.978-2.616l41.95,17.688    c1.674,0.705,3.414,1.203,5.182,1.504l12.355,29.24c2.511,5.941,7.417,10.641,13.462,12.893c2.642,0.984,5.424,1.472,8.204,1.472    c3.58,0,7.155-0.811,10.412-2.416l23.111-11.388c7.114-3.506,11.954-10.296,12.946-18.164l1.714-13.586    c1.55-12.287-6.765-23.733-18.928-26.058l-0.649-0.124c5.689-27.845,18.302-47.07,37.564-57.187    c45.453-23.875,118.051,6.239,147.153,20.294c8.061,3.893,13.368,11.865,13.851,20.805l0.365,6.749    c0.224,4.135,3.74,7.305,7.894,7.084c4.136-0.224,7.308-3.758,7.084-7.894l-0.365-6.749c-0.778-14.396-9.326-27.233-22.306-33.502    c-17.421-8.413-44.228-19.761-73.008-26.049c-35.735-7.807-65.222-5.794-87.644,5.982c-24.227,12.725-39.66,36.488-45.914,70.669    l-40.772,12.876c-1.93,0.608-4.02,0.511-5.885-0.274l-55.001-23.19l-8.601-23.008c-1.45-3.879-5.769-5.85-9.652-4.398    c-3.88,1.45-5.849,5.771-4.399,9.651l16.803,44.947c2.614,6.991,7.132,13.078,13.066,17.604l19.038,14.521l-3.097,53.433    c-0.297,5.124,1.952,10.053,6.017,13.187c4.065,3.134,9.404,4.055,14.283,2.463l4.16-1.356c0.61,2.109,1.384,4.533,2.354,7.184    c1.112,3.04,3.985,4.925,7.044,4.925c0.856,0,1.727-0.147,2.577-0.458C153.745,311.399,155.744,307.091,154.321,303.202z     M211.94,208.819l-1.714,13.586c-0.36,2.853-2.115,5.314-4.694,6.585l-23.111,11.388c-2.129,1.049-4.527,1.171-6.75,0.342    c-2.224-0.828-3.957-2.488-4.881-4.674l-10.784-25.522l38.997-12.315l6.074,1.161C209.487,200.214,212.501,204.365,211.94,208.819    z"/>
	</g>
</g>















</svg>
