<?xml version="1.0" encoding="iso-8859-1"?>
<!-- Generator: Adobe Illustrator 19.0.0, SVG Export Plug-In . SVG Version: 6.00 Build 0)  -->
<svg xmlns="http://www.w3.org/2000/svg" xmlns:xlink="http://www.w3.org/1999/xlink" version="1.1" id="Capa_1" x="0px" y="0px" viewBox="0 0 511.998 511.998" style="enable-background:new 0 0 511.998 511.998;" xml:space="preserve" width="512" height="512">
<g>
	<g>
		<polygon style="fill:#EDF4FF;" points="219.331,293.563 218.877,302.592 208.106,351.206 304.299,401.699 304.299,338.163   "/>
		<polygon style="fill:#EDF4FF;" points="333.324,416.481 306.291,399.463 264.218,434.096 264.218,499.895 333.563,445.426   "/>
		<polygon style="fill:#EDF4FF;" points="424.54,183.854 224.138,248.968 224.138,312.895 424.54,247.78   "/>
		<polygon style="fill:#EDF4FF;" points="103.896,101.331 424.54,214.89 424.54,141.098 103.896,27.54   "/>
		<polygon style="fill:#CCF49F;" points="224.138,312.895 424.54,247.78 424.54,211.91 224.138,277.024   "/>
		<polygon style="fill:#CCF49F;" points="103.896,101.331 424.54,214.89 424.54,180.51 103.896,66.952   "/>
		<polygon style="fill:#CCF49F;" points="208.106,351.206 304.299,401.699 304.299,364.625 215.464,317.994   "/>
		<polygon style="fill:#CCF49F;" points="329.128,413.839 264.218,464.824 264.218,499.895 333.563,445.426 333.324,416.481   "/>
	</g>
	<path d="M431.636,225.857V122.355c0-4.142-3.358-7.5-7.5-7.5s-7.5,3.358-7.5,7.5v82.337c-1.384-0.747-2.846-1.397-4.377-1.939   l-20.704-7.333v-88.388c0-4.142-3.358-7.5-7.5-7.5s-7.5,3.358-7.5,7.5v83.075l-25.08-8.883V93.005c0-4.142-3.358-7.5-7.5-7.5   s-7.5,3.358-7.5,7.5v82.908l-25.081-8.883V78.309c0-4.142-3.358-7.5-7.5-7.5s-7.5,3.358-7.5,7.5v83.409l-25.081-8.883V64.113   c0-4.142-3.358-7.5-7.5-7.5s-7.5,3.358-7.5,7.5v83.409l-25.081-8.883V50.085c0-4.142-3.358-7.5-7.5-7.5s-7.5,3.358-7.5,7.5v83.242   l-25.08-8.883V35.556c0-4.142-3.358-7.5-7.5-7.5s-7.5,3.358-7.5,7.5v83.576l-25.081-8.883V21.528c0-4.142-3.358-7.5-7.5-7.5   s-7.5,3.358-7.5,7.5v83.409l-25.08-8.883V7.5c0-4.142-3.358-7.5-7.5-7.5s-7.5,3.358-7.5,7.5v83.242l-6.028-2.135   c-3.904-1.383-8.191,0.662-9.574,4.566c-1.383,3.905,0.662,8.191,4.566,9.574l322.295,114.146   c7.351,2.603,9.875,8.993,9.787,14.105c-0.088,5.112-2.832,11.411-10.268,13.759l-15.215,4.805v-10.598c0-4.142-3.358-7.5-7.5-7.5   s-7.5,3.358-7.5,7.5v15.335l-25.08,7.92v-36.907c0-4.142-3.358-7.5-7.5-7.5s-7.5,3.358-7.5,7.5v41.644l-25.081,7.92v-63.968   c0-4.142-3.358-7.5-7.5-7.5s-7.5,3.358-7.5,7.5v68.705l-25.081,7.92v-91.154c0-4.142-3.358-7.5-7.5-7.5s-7.5,3.358-7.5,7.5v95.891   l-25.081,7.92V182.518c0-4.142-3.358-7.5-7.5-7.5s-7.5,3.358-7.5,7.5v122.762c-9.961,4.792-16.546,14.239-17.542,25.59   c-1.136,12.943,5.315,24.717,16.834,30.727l102.449,53.452c4.863,2.537,8.055,7.112,8.757,12.552s-1.222,10.675-5.28,14.365   l-10.057,9.143v-14.746c0-4.142-3.358-7.5-7.5-7.5s-7.5,3.358-7.5,7.5v28.382l-25.081,22.8v-70.723c0-4.142-3.358-7.5-7.5-7.5   s-7.5,3.358-7.5,7.5V504.5c0,0.061,0.008,0.112,0.009,0.171c0.003,0.141,0.011,0.282,0.022,0.423   c0.006,0.068,0.011,0.138,0.02,0.204c0.163,1.528,0.787,3.02,1.9,4.244c1.48,1.628,3.512,2.455,5.552,2.455   c1.8,0,3.606-0.644,5.042-1.95l62.682-56.984c7.623-6.93,11.386-17.167,10.066-27.385c-1.319-10.218-7.561-19.164-16.695-23.929   l-13.519-7.053v-70.895c0-4.142-3.358-7.5-7.5-7.5s-7.5,3.358-7.5,7.5v63.068l-25.081-13.086v-37.291c0-4.142-3.358-7.5-7.5-7.5   s-7.5,3.358-7.5,7.5v29.464l-33.85-17.661c-7.223-3.768-9.297-10.796-8.831-16.118c0.467-5.321,3.733-11.88,11.501-14.333   l186.152-58.785c12.38-3.909,20.525-14.823,20.749-27.804C432.067,229.413,431.917,227.613,431.636,225.857z"/>
</g>















</svg>
