<?xml version="1.0" encoding="iso-8859-1"?>
<!-- Generator: Adobe Illustrator 19.0.0, SVG Export Plug-In . SVG Version: 6.00 Build 0)  -->
<svg xmlns="http://www.w3.org/2000/svg" xmlns:xlink="http://www.w3.org/1999/xlink" version="1.1" id="Capa_1" x="0px" y="0px" viewBox="0 0 512 512" style="enable-background:new 0 0 512 512;" xml:space="preserve" width="512" height="512">
<g>
	<g>
		<polygon style="fill:#FF8086;" points="256,91.669 256,155.798 344.177,123.734   "/>
		<polygon style="fill:#E5646E;" points="280.048,147.053 280.048,100.414 256,91.669 256,155.798   "/>
		<path style="fill:#DBEAFF;" d="M256,203.895c-128.388,0-232.468,104.079-232.468,232.468h464.935    C488.468,307.974,384.388,203.895,256,203.895z"/>
		<path style="fill:#C3DDFF;" d="M23.532,436.363h112.226c0-128.389,53.834-232.468,120.242-232.468    C127.612,203.895,23.532,307.974,23.532,436.363z"/>
		<path style="fill:#C3DDFF;" d="M256,340.169c-53.126,0-96.194,43.067-96.194,96.194h192.387    C352.194,383.236,309.126,340.169,256,340.169z"/>
		<path style="fill:#8BB3EA;" d="M256,372.234c-35.418,0-64.129,28.711-64.129,64.129h128.258    C320.129,400.945,291.418,372.234,256,372.234z"/>
		<path style="fill:#A4CCFF;" d="M256,396.282c-22.136,0-40.081,17.945-40.081,40.081h80.161    C296.081,414.227,278.136,396.282,256,396.282z"/>
	</g>
	<path d="M504.5,428.863h-8.66c-1.869-61.286-26.606-118.631-70.157-162.183c-43.551-43.551-100.897-68.288-162.183-70.157v-35.472   l83.24-30.269c2.964-1.078,4.937-3.895,4.937-7.048s-1.973-5.971-4.937-7.048L263.5,86.417V75.637c0-4.142-3.358-7.5-7.5-7.5   s-7.5,3.358-7.5,7.5v120.886c-61.286,1.869-118.632,26.605-162.183,70.157C42.766,310.231,18.03,367.577,16.16,428.863H7.5   c-4.142,0-7.5,3.358-7.5,7.5s3.358,7.5,7.5,7.5h497c4.142,0,7.5-3.358,7.5-7.5S508.642,428.863,504.5,428.863z M256,364.734   c-36.963,0-67.473,28.145-71.235,64.129h-17.139c3.821-45.409,41.994-81.193,88.373-81.193s84.552,35.785,88.373,81.193h-17.139   C323.473,392.878,292.963,364.734,256,364.734z M312.117,428.863H199.883c3.683-27.691,27.436-49.129,56.117-49.129   S308.434,401.172,312.117,428.863z M56.249,332.669c6.022-11.567,13.076-22.638,21.119-33.097h112.073   c-2.352,10.493-4.438,21.563-6.217,33.097H56.249z M37.923,380.766c2.869-11.336,6.625-22.393,11.217-33.097h35.964   c-3.273,10.759-5.963,21.833-8.008,33.097H37.923z M380.541,284.572h-4.302c-4.142,0-7.5,3.358-7.5,7.5c0,4.143,3.358,7.5,7.5,7.5   h58.393c8.043,10.459,15.097,21.53,21.119,33.097H328.776c-1.779-11.534-3.865-22.604-6.217-33.097h21.618   c4.142,0,7.5-3.357,7.5-7.5c0-4.142-3.358-7.5-7.5-7.5H263.5v-33.097h88.616C362.491,261.076,372.018,272.169,380.541,284.572z    M309.672,347.669h101.512c3.459,10.713,6.299,21.804,8.46,33.097h-76.151C334.914,367.313,323.322,355.96,309.672,347.669z    M434.89,380.766c-2.042-11.254-4.719-22.338-7.992-33.097h35.962c4.592,10.704,8.348,21.761,11.217,33.097H434.89z    M301.608,236.476c-4.827-9.75-9.746-17.248-14.586-22.956c25.445,3.489,49.865,11.258,72.409,22.956H301.608z M284.65,236.476   h-57.3c9.207-16.253,19.209-25.08,28.65-25.08C265.441,211.396,275.443,220.223,284.65,236.476z M210.389,236.476h-57.821   c22.553-11.703,46.983-19.474,72.439-22.96C219.132,220.458,214.262,228.666,210.389,236.476z M159.886,251.476H248.5v33.097   H131.464C139.985,272.172,149.504,261.082,159.886,251.476z M204.819,299.572h102.363c2.427,10.43,4.567,21.52,6.404,33.097   h-115.17C200.252,321.092,202.392,310.002,204.819,299.572z M351.412,395.766h125.91c1.966,10.846,3.144,21.9,3.509,33.097H359.42   C358.582,417.195,355.807,406.056,351.412,395.766z M422.035,284.572H398.47c-7.564-12.09-15.986-23.17-25.164-33.097h10.948   c10.907,7.6,21.225,16.214,30.822,25.812C417.459,279.67,419.773,282.104,422.035,284.572z M322.231,123.734L263.5,145.091v-42.714   L322.231,123.734z M127.746,251.476h10.955c-9.183,9.931-17.612,21-25.179,33.097H89.965c2.262-2.469,4.576-4.902,6.959-7.285   C106.521,267.689,116.84,259.076,127.746,251.476z M34.678,395.766h60.999c4.142,0,7.5-3.358,7.5-7.5s-3.358-7.5-7.5-7.5H92.37   c2.162-11.297,4.983-22.382,8.443-33.097h101.515c-13.65,8.291-25.242,19.644-33.821,33.097h-40.768c-4.142,0-7.5,3.358-7.5,7.5   s3.358,7.5,7.5,7.5h32.849c-4.395,10.29-7.17,21.429-8.008,33.097H31.169C31.534,417.666,32.712,406.612,34.678,395.766z"/>
</g>















</svg>
