<?xml version="1.0" encoding="iso-8859-1"?>
<!-- Generator: Adobe Illustrator 19.0.0, SVG Export Plug-In . SVG Version: 6.00 Build 0)  -->
<svg xmlns="http://www.w3.org/2000/svg" xmlns:xlink="http://www.w3.org/1999/xlink" version="1.1" id="Capa_1" x="0px" y="0px" viewBox="0 0 512 512" style="enable-background:new 0 0 512 512;" xml:space="preserve" width="512" height="512">
<g>
	<g>
		<circle style="fill:#ECEAEC;" cx="47.581" cy="183.855" r="40.081"/>
		<circle style="fill:#DAD8DB;" cx="47.581" cy="183.855" r="20.04"/>
		<path style="fill:#C8C5C9;" d="M464.419,288.065l-16.246-43.323c-4.693-12.515-16.657-20.806-30.023-20.806H111.399    c-4.87,0-9.477-2.214-12.519-6.017l-22.438-28.047c-3.043-3.803-7.649-6.017-12.519-6.017H39.565l33.209,59.776    C77.015,251.265,85.062,256,93.795,256h113.777c5.232,0,10.134,2.552,13.134,6.838l22.605,32.293    c18.001,25.715,47.416,41.03,78.806,41.03l140.941,0c13.022,0,24.694-9.751,25.375-22.755    C489.16,299.537,478.129,288.065,464.419,288.065z"/>
		<path style="fill:#FFE07D;" d="M220.706,262.838l22.605,32.293c18.001,25.715,47.416,41.03,78.806,41.03h140.941    c13.022,0,24.695-9.751,25.375-22.755c0.727-13.869-10.304-25.342-24.014-25.342L452.395,256H207.572    C212.804,256,217.706,258.552,220.706,262.838z"/>
		<path style="fill:#9B959D;" d="M360.21,191.871H276.04c-7.569,0-14.697,3.564-19.239,9.619l-9.619,12.826    c-4.542,6.056-11.669,9.619-19.239,9.619h148.298v-16.032C376.242,199.048,369.063,191.871,360.21,191.871z"/>
		<path style="fill:#A4CCFF;" d="M344.177,288.065h-32.065c-8.854,0-16.032-7.178-16.032-16.032v0    c0-8.854,7.178-16.032,16.032-16.032h32.065c8.854,0,16.032,7.178,16.032,16.032v0    C360.21,280.887,353.032,288.065,344.177,288.065z"/>
		<circle style="fill:#5D5360;" cx="296.081" cy="352.194" r="16.032"/>
		<path style="fill:#A4CCFF;" d="M392.274,272.032c0,8.854,7.178,16.032,16.032,16.032h56.113L452.395,256h-44.089    C399.453,256,392.274,263.178,392.274,272.032z"/>
		<path style="fill:#FFD064;" d="M220.706,262.838l22.605,32.293c18.001,25.715,47.417,41.03,78.806,41.03h140.941    c13.022,0,24.695-9.751,25.375-22.755c0.022-0.442-0.066-0.856-0.067-1.293h-1.46H325.959c-20.907,0-40.547-10.226-52.536-27.353    L253.291,256h-45.717h-0.002l0,0C212.804,256,217.706,258.552,220.706,262.838z"/>
		<circle style="fill:#5D5360;" cx="440.371" cy="352.194" r="16.032"/>
	</g>
	<path d="M504.5,152.307H119.726c-4.142,0-7.5,3.358-7.5,7.5s3.358,7.5,7.5,7.5h192.903v17.064h-36.588   c-9.878,0-19.313,4.717-25.239,12.619l-9.62,12.826c-3.108,4.145-8.058,6.62-13.239,6.62H107.298l-24.999-31.25   c-4.49-5.612-11.188-8.831-18.375-8.831H39.564c-2.657,0-5.116,1.406-6.464,3.697c-1.348,2.29-1.383,5.123-0.092,7.446   l16.05,28.889c-0.492,0.022-0.984,0.049-1.477,0.049C29.616,216.436,15,201.82,15,183.855s14.616-32.581,32.581-32.581   c8.928,0,17.259,3.541,23.458,9.97c2.875,2.982,7.623,3.068,10.604,0.193s3.069-7.623,0.194-10.604   c-9.052-9.389-21.218-14.559-34.257-14.559C21.345,136.274,0,157.619,0,183.855s21.345,47.581,47.581,47.581   c3.143,0,6.266-0.314,9.326-0.922l9.311,16.759c5.56,10.009,16.127,16.228,27.578,16.228h118.219l25.152,35.932   c11.001,15.716,25.988,27.832,43.069,35.378c-4.721,4.307-7.688,10.505-7.688,17.383c0,12.976,10.557,23.532,23.532,23.532   s23.532-10.557,23.532-23.532c0-3.044-0.588-5.953-1.645-8.626c1.379,0.055,2.761,0.093,4.148,0.093h96.331   c-1.034,2.647-1.608,5.523-1.608,8.532c0,12.976,10.557,23.532,23.532,23.532s23.532-10.557,23.532-23.532   c0-3.009-0.574-5.885-1.608-8.532h2.124c17.396,0,31.548-14.152,31.548-31.548c0-15.564-11.331-28.523-26.176-31.081   l-14.596-38.924c-5.759-15.355-20.646-25.672-37.045-25.672h-34.409v-8.532c0-12.976-10.557-23.532-23.532-23.532h-32.581v-17.064   H504.5c4.142,0,7.5-3.358,7.5-7.5S508.642,152.307,504.5,152.307z M296.081,360.726c-4.705,0-8.532-3.828-8.532-8.532   s3.828-8.532,8.532-8.532s8.532,3.828,8.532,8.532S300.785,360.726,296.081,360.726z M448.903,352.193   c0,4.705-3.828,8.532-8.532,8.532s-8.532-3.828-8.532-8.532s3.828-8.532,8.532-8.532S448.903,347.489,448.903,352.193z    M408.307,280.564c-4.705,0-8.532-3.828-8.532-8.532s3.828-8.532,8.532-8.532h8.532v17.064H408.307z M431.839,263.5h15.359   l6.399,17.064h-21.758V263.5z M368.742,207.903v8.532H296.08c-4.142,0-7.5,3.358-7.5,7.5s3.358,7.5,7.5,7.5H418.15   c10.182,0,19.425,6.405,23,15.939l0.422,1.125h-33.266c-12.976,0-23.532,10.557-23.532,23.532s10.557,23.532,23.532,23.532h56.088   c0.009,0,0.017,0.002,0.026,0.002c0.007,0,0.013-0.001,0.02-0.001c9.115,0.012,16.527,7.429,16.527,16.547   c0,9.125-7.423,16.548-16.548,16.548H322.116c-28.916,0-56.079-14.143-72.661-37.831L230.324,263.5h59.864   c-1.034,2.647-1.608,5.523-1.608,8.532c0,12.976,10.557,23.532,23.532,23.532h32.064c12.976,0,23.532-10.557,23.532-23.532   S357.153,248.5,344.177,248.5H93.795c-6.006,0-11.549-3.262-14.466-8.512l-27.019-48.633h11.612c2.606,0,5.035,1.167,6.663,3.202   l27.251,34.064c1.423,1.779,3.578,2.815,5.856,2.815h160.32c4.142,0,7.5-3.358,7.5-7.5s-3.358-7.5-7.5-7.5h-9.046l7.834-10.445   c3.108-4.145,8.058-6.619,13.239-6.619h84.169C364.914,199.371,368.742,203.199,368.742,207.903z M344.177,263.5   c4.705,0,8.532,3.828,8.532,8.532s-3.828,8.532-8.532,8.532h-8.532V263.5H344.177z M320.645,280.564h-8.532   c-4.705,0-8.532-3.828-8.532-8.532s3.828-8.532,8.532-8.532h8.532V280.564z"/>
</g>















</svg>
