<?xml version="1.0" encoding="iso-8859-1"?>
<!-- Generator: Adobe Illustrator 19.0.0, SVG Export Plug-In . SVG Version: 6.00 Build 0)  -->
<svg xmlns="http://www.w3.org/2000/svg" xmlns:xlink="http://www.w3.org/1999/xlink" version="1.1" id="Capa_1" x="0px" y="0px" viewBox="0 0 512.001 512.001" style="enable-background:new 0 0 512.001 512.001;" xml:space="preserve" width="512" height="512">
<g>
	<g>
		<path style="fill:#DBEAFF;" d="M245.86,340.17h76.835c5.575,0,10.3-4.102,11.082-9.622l25.686-181.21    c0.784-5.534-6.621-8.116-9.448-3.294l-108.921,185.81C238.937,335.535,241.592,340.17,245.86,340.17z"/>
		<path style="fill:#C3DDFF;" d="M328.176,324.138c-26.212,0-42.519-28.462-29.264-51.075l56.732-96.78l3.819-26.945    c0.784-5.534-6.621-8.116-9.448-3.294l-108.92,185.81c-2.159,3.682,0.497,8.317,4.765,8.317h76.834    c5.575,0,10.3-4.103,11.082-9.622l0.909-6.41H328.176z"/>
		<path style="fill:#DBEAFF;" d="M475.228,356.202H426.22c-6.194,0-10.048-6.726-6.916-12.07l74.752-127.521    c2.257-3.851,8.172-1.789,7.546,2.631l-18.437,130.069C482.604,353.264,479.22,356.202,475.228,356.202z"/>
		<path style="fill:#DBEAFF;" d="M402.251,356.202H366.11c-3.316,0-5.378-3.6-3.702-6.461l54.749-93.398    c2.094-3.572,7.579-1.659,6.998,2.44l-12.673,89.403C410.831,352.785,406.895,356.202,402.251,356.202z"/>
		<g>
			<path style="fill:#DBEAFF;" d="M127.086,354.791c-15.288-9.555-32.953-14.621-50.981-14.621H7.5v48.097h187.321     c-8.657-1.383-17.043-4.237-24.691-8.649L127.086,354.791z"/>
		</g>
		<path style="fill:#C3DDFF;" d="M484.46,340.17c-18.611,0-30.19-20.209-20.778-36.264l34.185-58.316l3.735-26.347    c0.626-4.42-5.288-6.482-7.546-2.631l-74.752,127.521c-3.133,5.344,0.721,12.07,6.916,12.07h49.008    c3.993,0,7.377-2.938,7.937-6.891L484.46,340.17L484.46,340.17z"/>
		<path style="fill:#C3DDFF;" d="M412.619,340.17c-13.198,0-21.409-14.331-14.735-25.717l24.242-41.355l2.029-14.314    c0.581-4.099-4.905-6.012-6.998-2.44l-54.749,93.397c-1.677,2.861,0.386,6.461,3.702,6.461h36.141c4.644,0,8.58-3.417,9.232-8.015    L412.619,340.17L412.619,340.17z"/>
		<circle style="fill:#DBEAFF;" cx="223.935" cy="171.831" r="32.065"/>
	</g>
	<g>
		<path d="M7.5,243.46h216.436c30.656,0,55.597-24.94,55.597-55.597s-24.94-55.597-55.597-55.597    c-21.816,0-39.564,17.749-39.564,39.564s17.749,39.564,39.564,39.564c12.976,0,23.532-10.557,23.532-23.532    s-10.557-23.532-23.532-23.532c-4.142,0-7.5,3.358-7.5,7.5s3.358,7.5,7.5,7.5c4.705,0,8.532,3.828,8.532,8.532    s-3.828,8.532-8.532,8.532c-13.545,0-24.564-11.02-24.564-24.564s11.02-24.564,24.564-24.564    c22.385,0,40.597,18.212,40.597,40.597c0,22.385-18.211,40.596-40.597,40.596H7.5c-4.142,0-7.5,3.358-7.5,7.5    S3.358,243.46,7.5,243.46z"/>
		<path d="M71.629,211.396h96.194c4.142,0,7.5-3.358,7.5-7.5s-3.358-7.5-7.5-7.5H71.629c-4.142,0-7.5,3.358-7.5,7.5    S67.487,211.396,71.629,211.396z"/>
		<path d="M199.887,292.589c-4.142,0-7.5,3.358-7.5,7.5s3.358,7.5,7.5,7.5c12.976,0,23.532-10.557,23.532-23.532    s-10.557-23.532-23.532-23.532H47.581c-4.142,0-7.5,3.358-7.5,7.5s3.358,7.5,7.5,7.5h152.307c4.705,0,8.532,3.828,8.532,8.532    S204.592,292.589,199.887,292.589z"/>
		<path d="M504.5,380.767h-57.809l6.211-17.064h29.286c3.735,0,6.901-2.749,7.426-6.447l22.312-157.408    c0.503-3.547-1.573-6.955-4.957-8.135c-3.384-1.181-7.128,0.199-8.939,3.289l-75.52,128.831l11.76-82.961    c0.503-3.547-1.573-6.955-4.957-8.135c-3.384-1.181-7.128,0.199-8.939,3.289l-68.223,116.383    c-1.359,2.319-1.374,5.189-0.037,7.521c1.336,2.333,3.819,3.771,6.507,3.771h16.699l-6.211,17.064h-91.587l12.046-33.097h42.845    c3.735,0,6.901-2.749,7.426-6.447l2.272-16.03c0.582-4.101-2.272-7.897-6.373-8.479c-4.103-0.583-7.897,2.272-8.479,6.373    l-1.358,9.583h-30.874l2.172-5.967c1.417-3.892-0.59-8.196-4.483-9.613c-3.89-1.416-8.196,0.59-9.613,4.483l-4.039,11.097H249.31    l101.019-172.332L331.806,291.02c-0.582,4.101,2.272,7.897,6.373,8.479c4.104,0.585,7.897-2.272,8.479-6.373l23.861-168.338    c0.503-3.547-1.574-6.955-4.957-8.135c-3.384-1.179-7.128,0.199-8.939,3.289L229.75,336.377c-1.359,2.319-1.374,5.189-0.037,7.521    c1.336,2.333,3.819,3.771,6.507,3.771h37.385l-12.046,33.097h-56.595c-17.568,0-34.581-5.151-49.199-14.896l-23.678-15.785    c-17.089-11.394-36.979-17.416-57.519-17.416H7.5c-4.142,0-7.5,3.358-7.5,7.5s3.358,7.5,7.5,7.5h67.068    c17.568,0,34.581,5.151,49.199,14.896l23.678,15.785c1.256,0.837,2.532,1.636,3.817,2.416H7.5c-4.142,0-7.5,3.358-7.5,7.5    s3.358,7.5,7.5,7.5h497c4.142,0,7.5-3.358,7.5-7.5S508.642,380.767,504.5,380.767z M491.736,235.399l-16.06,113.303h-17.315    l1.641-4.51c1.417-3.892-0.59-8.196-4.483-9.613c-3.893-1.417-8.196,0.59-9.613,4.483l-3.509,9.64h-17.08L491.736,235.399z     M414.08,276.424l-10.245,72.278h-32.124L414.08,276.424z M391.283,363.702h45.656l-6.211,17.064h-45.656L391.283,363.702z"/>
		<path d="M111.709,179.331h40.081c4.142,0,7.5-3.358,7.5-7.5s-3.358-7.5-7.5-7.5h-40.081c-4.142,0-7.5,3.358-7.5,7.5    S107.567,179.331,111.709,179.331z"/>
		<path d="M392.274,179.331h56.113c4.142,0,7.5-3.358,7.5-7.5s-3.358-7.5-7.5-7.5h-56.113c-4.142,0-7.5,3.358-7.5,7.5    S388.132,179.331,392.274,179.331z"/>
		<path d="M392.274,211.396h16.032c4.142,0,7.5-3.358,7.5-7.5s-3.358-7.5-7.5-7.5h-16.032c-4.142,0-7.5,3.358-7.5,7.5    S388.132,211.396,392.274,211.396z"/>
	</g>
</g>















</svg>
