<?xml version="1.0" encoding="iso-8859-1"?>
<!-- Generator: Adobe Illustrator 19.0.0, SVG Export Plug-In . SVG Version: 6.00 Build 0)  -->
<svg xmlns="http://www.w3.org/2000/svg" xmlns:xlink="http://www.w3.org/1999/xlink" version="1.1" id="Capa_1" x="0px" y="0px" viewBox="0 0 512 512" style="enable-background:new 0 0 512 512;" xml:space="preserve" width="512" height="512">
<g>
	<g>
		<path style="fill:#C38C66;" d="M480.827,431.988l1.254,15.983c0.346,4.414-2.951,8.272-7.365,8.618L41.554,490.798    c-4.414,0.346-8.272-2.951-8.618-7.365l-1.253-15.983c-0.346-4.414,2.951-8.272,7.365-8.618l433.161-34.208    C476.622,424.277,480.481,427.575,480.827,431.988z"/>
		<path style="fill:#D19A6E;" d="M32.936,431.988l-1.253,15.983c-0.346,4.414,2.951,8.272,7.365,8.618l433.161,34.208    c4.414,0.346,8.272-2.951,8.618-7.365l1.254-15.983c0.346-4.414-2.951-8.272-7.365-8.618L41.554,424.623    C37.141,424.277,33.282,427.575,32.936,431.988z"/>
		<path style="fill:#FFEAA8;" d="M347.112,230.004c-1.427-3.171-5.396-4.224-8.177-2.137l-26.822,20.117    c-10.146-60.872-38.526-109.589-50.582-128.159c-2.268-3.493-7.528-3.209-9.291,0.564    c-33.418,71.485-104.079,90.245-104.391,175.044c-0.066,17.933,3.859,33.639,3.859,33.639c7.953,28.68,27.44,52.523,53.137,66.321    c3.323,1.784,6.553-2.351,4.239-5.33c-8.396-10.811-13.204-24.593-13.204-39.372c0-44.914,38.278-54.741,57.468-96.406    c1.415-3.072,5.469-3.766,7.878-1.391c13.838,13.642,50.387,54.095,50.387,100.803c0,17.234-7.797,30.848-17.9,40.646    c-2.681,2.6,0.37,7.127,3.818,5.693c39.155-16.285,66.688-54.896,66.688-99.947C364.218,285.048,357.369,252.796,347.112,230.004z    "/>
		<rect x="7.5" y="472.435" style="fill:#B57F5F;" width="497" height="32.065"/>
		<path style="fill:#FFD064;" d="M308.105,275.539c-25.623-34.492-36.707-67.985-40.759-83.185    c-0.891-3.344-5.111-4.217-7.344-1.573c-35.629,42.207-141.165,112.082-62.758,200.024c2.481,1.607,4.985,3.183,7.6,4.587    c3.323,1.784,6.553-2.351,4.239-5.33c-8.396-10.811-13.204-24.593-13.204-39.372c0-44.929,38.302-54.747,57.486-96.445    c1.405-3.054,5.436-3.74,7.831-1.381c13.816,13.614,50.416,54.091,50.416,100.832c0,17.199-7.766,30.792-17.838,40.585    c-2.844,2.765,0.114,7.269,3.775,5.746c8.135-3.386,15.73-7.784,22.719-12.955C337.052,368.208,348.829,330.36,308.105,275.539z"/>
	</g>
	<g>
		<path d="M504.5,464.935h-14.672l-3.231-41.079c-0.318-4.129-3.914-7.215-8.055-6.9l-106.354,8.213l2.746-5.492    c1.853-3.705,0.351-8.21-3.354-10.062c-3.705-1.853-8.21-0.351-10.062,3.354l-6.774,13.547l-98.175,7.581l-117.237-9.053    l-21.591-29.211c-2.461-3.331-7.158-4.036-10.489-1.573c-3.331,2.462-4.035,7.158-1.573,10.489l13.872,18.768l-84.955-6.56    c-4.126-0.32-7.736,2.77-8.055,6.9l-2.469,31.97c-0.153,1.983,0.488,3.946,1.782,5.457c1.294,1.51,3.135,2.445,5.118,2.598    l13.658,1.055H7.5c-4.142,0-7.5,3.358-7.5,7.5V504.5c0,4.142,3.358,7.5,7.5,7.5h497c4.142,0,7.5-3.358,7.5-7.5v-32.064    C512,468.293,508.642,464.935,504.5,464.935z M472.219,432.489l1.314,17.014l-8.727,0.674l-110.823-8.558L472.219,432.489z     M497,497H15v-17.064h289.097c4.142,0,7.5-3.358,7.5-7.5s-3.358-7.5-7.5-7.5h-64.643L39.604,449.503l1.314-17.014l410.819,31.724    c0.342,0.272,0.708,0.513,1.094,0.723H336.163c-4.142,0-7.5,3.358-7.5,7.5s3.358,7.5,7.5,7.5H497V497z"/>
		<path d="M293.269,161.484c-1.656-3.797-6.077-5.533-9.873-3.876c-3.797,1.656-5.532,6.077-3.876,9.873    c8.083,18.531,19.019,47.772,25.214,81.845c0.465,2.557,2.221,4.691,4.641,5.641c2.42,0.949,5.159,0.578,7.238-0.982    l24.711-18.533c9.509,22.165,15.394,51.649,15.394,64.638c0,55.536-45.182,100.718-100.718,100.718    c-0.965,0-1.924-0.033-2.884-0.06c-29.433-1.24-49.737-21.472-49.737-50.056c0-23.639,11.625-36.005,26.343-51.663    c9.696-10.315,20.467-21.772,28.636-37.884c12.85,14.277,38.518,47.842,43.801,92.925c0.482,4.113,4.202,7.059,8.322,6.576    c4.114-0.482,7.058-4.208,6.576-8.322c-7.758-66.198-54.098-108.183-56.067-109.938c-1.839-1.64-4.367-2.271-6.762-1.688    s-4.351,2.304-5.232,4.605c-7.317,19.105-18.952,31.482-30.203,43.452c-14.953,15.906-30.414,32.354-30.414,61.937    c0,10.797,2.338,20.741,6.581,29.444c-17.07-13.003-30.018-31.404-36.025-53.067c-1.106-3.992-5.241-6.33-9.231-5.223    c-3.992,1.106-6.33,5.24-5.223,9.231c13.834,49.888,59.693,84.73,111.52,84.73c63.807,0,115.718-51.911,115.718-115.718    c0-18.685-8.934-56.706-20.891-79.623c-1.019-1.952-2.843-3.357-4.989-3.845c-2.146-0.488-4.399-0.007-6.16,1.314l-22.543,16.908    C310.514,204.438,300.723,178.572,293.269,161.484z"/>
		<path d="M147.633,302.929c0.074,0.002,0.146,0.003,0.219,0.003c4.042,0,7.376-3.218,7.493-7.285    c1.378-48.151,24.915-73.232,52.168-102.272c17.906-19.08,36.344-38.727,49.919-66.427c2.491,3.786,5.416,8.41,8.465,13.607    c2.096,3.573,6.692,4.769,10.264,2.673c3.573-2.096,4.77-6.691,2.673-10.264c-8.807-15.01-16.511-25.323-16.834-25.754    c-1.626-2.169-4.299-3.294-6.984-2.937c-2.688,0.355-4.974,2.133-5.98,4.65c-12.748,31.869-32.937,53.382-52.461,74.187    c-28.122,29.966-54.683,58.27-56.225,112.107C140.233,299.358,143.493,302.811,147.633,302.929z"/>
		<path d="M318.292,182.677c0.977,3.246,3.955,5.34,7.179,5.34c0.716,0,1.444-0.104,2.165-0.32c3.966-1.194,6.213-5.377,5.02-9.344    c-10.004-33.231-22.174-56.942-32.911-77.862c-15.351-29.909-27.475-53.534-28.229-93.134c-0.079-4.141-3.487-7.423-7.641-7.355    c-4.142,0.079-7.435,3.5-7.356,7.642c0.82,43.073,14.288,69.313,29.882,99.697C296.844,127.689,308.681,150.754,318.292,182.677z"/>
		<path d="M188.865,158.288c1.889,0,3.78-0.709,5.238-2.133c1.803-1.759,44.179-43.648,47.336-92.054    c0.27-4.134-2.862-7.703-6.996-7.972c-4.146-0.277-7.703,2.863-7.972,6.996c-2.778,42.603-42.445,81.904-42.85,82.3    c-2.96,2.894-3.016,7.64-0.124,10.602C184.968,157.532,186.916,158.288,188.865,158.288z"/>
	</g>
</g>















</svg>
