<?xml version="1.0" encoding="iso-8859-1"?>
<!-- Generator: Adobe Illustrator 19.0.0, SVG Export Plug-In . SVG Version: 6.00 Build 0)  -->
<svg xmlns="http://www.w3.org/2000/svg" xmlns:xlink="http://www.w3.org/1999/xlink" version="1.1" id="Capa_1" x="0px" y="0px" viewBox="0 0 512 512" style="enable-background:new 0 0 512 512;" xml:space="preserve" width="512" height="512">
<g>
	<g>
		<ellipse style="fill:#DBEAFF;" cx="424.339" cy="352.194" rx="80.161" ry="40.081"/>
		<path style="fill:#8BB3EA;" d="M424.339,344.177c-32.863,0-61.072,9.898-73.447,24.048c12.375,14.15,40.583,24.048,73.447,24.048    s61.072-9.898,73.447-24.048C485.411,354.076,457.202,344.177,424.339,344.177z"/>
		<path style="fill:#739AD6;" d="M424.339,368.226c22.341,0,42.53,4.579,57.067,11.951c6.772-3.457,12.447-7.454,16.38-11.951    c-12.375-14.15-40.583-24.048-73.447-24.048s-61.072,9.898-73.447,24.048c3.933,4.497,9.608,8.494,16.38,11.951    C381.809,372.804,401.997,368.226,424.339,368.226z"/>
		<path style="fill:#ECBD83;" d="M23.532,151.79h88.177c4.427,0,8.016-3.589,8.016-8.016v-16.032c0-4.427-3.589-8.016-8.016-8.016    H23.532c-8.854,0-16.032,7.178-16.032,16.032v0C7.5,144.612,14.678,151.79,23.532,151.79z"/>
		<path style="fill:#5D5360;" d="M111.71,215.919h32.065c4.427,0,8.016-3.589,8.016-8.016v-16.032c0-4.427-3.589-8.016-8.016-8.016    H111.71c-4.427,0-8.016,3.589-8.016,8.016v16.032C103.694,212.33,107.282,215.919,111.71,215.919z"/>
		<path style="fill:#6F6571;" d="M23.532,151.79h16.032v-32.065H23.532c-8.854,0-16.032,7.178-16.032,16.032v0    C7.5,144.612,14.678,151.79,23.532,151.79z"/>
	</g>
	<path d="M484.375,317.144c-14.357-7.179-32.789-11.484-52.537-12.357V143.258h24.564c4.142,0,7.5-3.358,7.5-7.5s-3.358-7.5-7.5-7.5   H127.226v-0.517c0-8.556-6.96-15.516-15.516-15.516H23.532C10.557,112.226,0,122.782,0,135.758   c0,12.976,10.557,23.532,23.532,23.532h88.177c0.174,0,0.343-0.02,0.516-0.026v17.091h-0.516c-8.556,0-15.516,6.96-15.516,15.516   v16.032c0,8.556,6.96,15.516,15.516,15.516h32.065c8.556,0,15.516-6.96,15.516-15.516v-16.032c0-1.49-0.223-2.927-0.617-4.292   l9.757-9.757c1.611-1.611,3.753-2.499,6.033-2.499h9.392c4.142,0,7.5-3.358,7.5-7.5s-3.358-7.5-7.5-7.5h-9.392   c-6.286,0-12.196,2.448-16.64,6.893l-9.757,9.757c-1.365-0.394-2.802-0.617-4.292-0.617h-16.549v-32.581v-0.516h81.194l0,8.532   c0,4.143,3.358,7.5,7.5,7.5c4.143,0,7.5-3.358,7.5-7.5l0-8.532h57.145v8.532c0,4.142,3.358,7.5,7.5,7.5s7.5-3.358,7.5-7.5v-8.532   h57.145v8.532c0,4.142,3.358,7.5,7.5,7.5s7.5-3.358,7.5-7.5v-8.532h49.129v161.528c-19.747,0.874-38.18,5.179-52.537,12.357   c-17.814,8.907-27.625,21.354-27.625,35.049c0,13.695,9.811,26.143,27.625,35.05c16.162,8.081,37.483,12.531,60.037,12.531   c22.553,0,43.875-4.45,60.037-12.531c17.814-8.907,27.625-21.354,27.625-35.05C512,338.499,502.189,326.051,484.375,317.144z    M144.291,191.871v16.032c0,0.285-0.231,0.516-0.516,0.516h-32.065c-0.285,0-0.516-0.231-0.516-0.516v-16.032   c0-0.285,0.231-0.516,0.516-0.516h32.065C144.059,191.355,144.291,191.586,144.291,191.871z M15,135.758   c0-4.705,3.828-8.532,8.532-8.532h8.532v17.065h-8.532C18.828,144.291,15,140.463,15,135.758z M111.709,144.291H47.064v-17.065   h64.645c0.285,0,0.516,0.231,0.516,0.516v16.033C112.226,144.059,111.994,144.291,111.709,144.291z M371.01,330.561   c12.362-6.181,28.419-9.93,45.829-10.768v17.057c-26.217,1.164-49.722,8.388-64.39,19.704c-0.51-1.459-0.772-2.917-0.772-4.361   C351.677,344.588,358.724,336.704,371.01,330.561z M477.667,373.827c-14.119,7.06-33.058,10.948-53.328,10.948   c-27.853,0-50.204-7.267-62.433-16.587c11.987-9.147,32.345-15.214,54.933-16.323v0.329c0,4.142,3.358,7.5,7.5,7.5   s7.5-3.358,7.5-7.5v-32.398C470.602,321.654,497,337.7,497,352.193c0,1.45-0.26,2.91-0.76,4.366   c-9.437-7.269-22.699-12.98-38.237-16.375c-4.05-0.881-8.044,1.68-8.928,5.727c-0.884,4.047,1.68,8.044,5.727,8.928   c13.099,2.862,24.384,7.621,31.994,13.385C484.196,370.2,481.15,372.085,477.667,373.827z"/>
</g>















</svg>
