<?xml version="1.0" encoding="iso-8859-1"?>
<!-- Generator: Adobe Illustrator 19.0.0, SVG Export Plug-In . SVG Version: 6.00 Build 0)  -->
<svg xmlns="http://www.w3.org/2000/svg" xmlns:xlink="http://www.w3.org/1999/xlink" version="1.1" id="Capa_1" x="0px" y="0px" viewBox="0 0 512 512" style="enable-background:new 0 0 512 512;" xml:space="preserve" width="512" height="512">
<g>
	<g>
		<path style="fill:#FFE07D;" d="M23.532,207.903c-8.854,0-16.032,7.178-16.032,16.032v0c0,8.854,7.178,16.032,16.032,16.032    h288.581v-32.065H23.532z"/>
		<rect x="119.726" y="207.904" style="fill:#6F6571;" width="160.323" height="32.065"/>
		<path style="fill:#FFC250;" d="M23.532,239.968l-13.864,62.39c-1.114,5.006,2.697,9.755,7.824,9.755h30.088l16.032-72.145H23.532z    "/>
	</g>
	<path d="M504.5,216.436h-14.262l-46.513-23.256c-3.705-1.853-8.21-0.351-10.062,3.354c-1.853,3.705-0.351,8.21,3.354,10.062   l19.68,9.84H319.613v-16.548c0-4.142-3.358-7.5-7.5-7.5s-7.5,3.358-7.5,7.5v0.516H127.226v-0.516c0-4.142-3.358-7.5-7.5-7.5   s-7.5,3.358-7.5,7.5v0.516H23.532C10.557,200.404,0,210.961,0,223.936c0,9.806,6.031,18.227,14.577,21.757l-12.23,55.038   c-1.027,4.618,0.083,9.384,3.043,13.075s7.372,5.808,12.104,5.808h38.104c4.142,0,7.5-3.358,7.5-7.5   c0-3.696-2.675-6.76-6.194-7.379l5.6-25.202h17.141c12.976,0,23.532-10.557,23.532-23.532v-8.532h53.415   c20.022,20.416,48.743,32.064,79.367,32.064c31.823,0,61.596-12.574,81.683-34.498l-0.006-0.006   c1.224-1.335,1.977-3.108,1.977-5.061v-8.532h137.085l-19.68,9.84c-3.705,1.852-5.207,6.357-3.354,10.062   c1.314,2.628,3.962,4.148,6.714,4.147c1.127,0,2.271-0.255,3.348-0.793l46.513-23.256H504.5c4.142,0,7.5-3.358,7.5-7.5   S508.642,216.436,504.5,216.436z M304.613,232.469h-17.064v-17.064h17.064V232.469z M23.532,215.404h88.693v17.064H23.66   c-0.01,0-0.02,0-0.03,0h-0.097c-4.705,0-8.532-3.828-8.532-8.532S18.828,215.404,23.532,215.404z M17.09,304.42   c-0.155-0.193-0.117-0.362-0.101-0.435l12.559-56.517h24.715l-12.699,57.145H17.493C17.419,304.614,17.246,304.614,17.09,304.42z    M88.177,256.001c0,4.705-3.828,8.532-8.532,8.532H65.837l3.792-17.064h18.548V256.001z M179.755,247.469h52.201   c4.142,0,7.5-3.358,7.5-7.5s-3.358-7.5-7.5-7.5h-104.73v-17.064h145.323v17.064h-8.534c-4.142,0-7.5,3.358-7.5,7.5   s3.358,7.5,7.5,7.5h28.15c-15.816,10.987-35.479,17.064-56.205,17.064C215.234,264.533,195.57,258.455,179.755,247.469z"/>
</g>















</svg>
