<?xml version="1.0" encoding="iso-8859-1"?>
<!-- Generator: Adobe Illustrator 19.0.0, SVG Export Plug-In . SVG Version: 6.00 Build 0)  -->
<svg xmlns="http://www.w3.org/2000/svg" xmlns:xlink="http://www.w3.org/1999/xlink" version="1.1" id="Capa_1" x="0px" y="0px" viewBox="0 0 512 512" style="enable-background:new 0 0 512 512;" xml:space="preserve" width="512" height="512">
<g>
	<g>
		<path style="fill:#4B3F4E;" d="M67.621,332.153c2.285,0,4.574,0.442,6.997,1.35l1.716,0.559l111.829,44.876l-0.051,0.28l6.43,2.29    c7.992,2.847,13.362,10.394,13.362,18.782c0,11.05-8.99,20.04-20.04,20.04H27.54c-11.051,0-20.04-8.99-20.04-20.04    c0-4.253,1.397-8.372,4.041-11.912l0.463-0.636l38.693-46.586l0.183-0.047l1.641-1.905    C56.437,334.657,61.801,332.153,67.621,332.153"/>
		<path style="fill:#FFA95F;" d="M296.081,300.089h144.29c4.427,0,8.016-3.589,8.016-8.016v-64.129c0-4.427-3.589-8.016-8.016-8.016    h-144.29V300.089z"/>
		<polygon style="fill:#FF8B5A;" points="296.081,300.089 344.177,300.089 333.246,219.927 296.081,219.927   "/>
		<path style="fill:#5D5360;" d="M39.565,300.089v16.032c0,8.854,7.178,16.032,16.032,16.032h352.71    c8.854,0,16.032-7.178,16.032-16.032v-16.032H39.565z"/>
		<path style="fill:#FFA95F;" d="M297.026,130.667c-0.542-3.972-3.934-6.933-7.942-6.933H31.548c-4.427,0-8.016,3.589-8.016,8.016    v160.323c0,4.427,3.589,8.016,8.016,8.016h288.581L297.026,130.667z"/>
		<path style="fill:#8BB3EA;" d="M191.871,195.879H63.613c-4.427,0-8.016-3.589-8.016-8.016v-16.032    c0-4.427,3.589-8.016,8.016-8.016h128.258c4.427,0,8.016,3.589,8.016,8.016v16.032    C199.887,192.29,196.298,195.879,191.871,195.879z"/>
		<path style="fill:#DAD8DB;" d="M448.387,195.879l-15.174,0c-7.986,0-15.388-5.457-16.671-13.34    c-1.634-10.044,6.076-18.725,15.813-18.725h16.032V195.879z"/>
		<circle style="fill:#5D5360;" cx="107.702" cy="400.29" r="20.04"/>
		<circle style="fill:#5D5360;" cx="27.54" cy="400.29" r="20.04"/>
		<circle style="fill:#5D5360;" cx="187.863" cy="400.29" r="20.04"/>
		<circle style="fill:#5D5360;" cx="67.621" cy="352.194" r="20.04"/>
		<path style="fill:#FF8B5A;" d="M71.629,276.04c-13.282,0-24.048-10.767-24.048-24.048V123.734H31.548    c-4.427,0-8.016,3.589-8.016,8.016v160.323c0,4.427,3.589,8.016,8.016,8.016h288.581l-2.186-24.048H71.629z"/>
		<path style="fill:#A4CCFF;" d="M239.968,219.927h69.23l-7.652-56.113h-61.578c-4.427,0-8.016,3.589-8.016,8.016v40.081    C231.952,216.338,235.54,219.927,239.968,219.927z"/>
		<path style="fill:#4B3F4E;" d="M364.218,332.153c2.285,0,4.574,0.442,6.996,1.35l1.716,0.559l111.829,44.876l-0.051,0.28    l6.43,2.29c7.992,2.847,13.362,10.394,13.362,18.782c0,11.05-8.99,20.04-20.04,20.04H324.137c-11.051,0-20.04-8.99-20.04-20.04    c0-4.253,1.397-8.372,4.041-11.912l0.463-0.636l38.693-46.586l0.183-0.047l1.641-1.905    C353.034,334.657,358.397,332.153,364.218,332.153"/>
		<circle style="fill:#5D5360;" cx="404.298" cy="400.29" r="20.04"/>
		<circle style="fill:#5D5360;" cx="324.137" cy="400.29" r="20.04"/>
		<circle style="fill:#5D5360;" cx="484.46" cy="400.29" r="20.04"/>
		<circle style="fill:#5D5360;" cx="364.218" cy="352.194" r="20.04"/>
		<path style="fill:#8BB3EA;" d="M301.547,163.815h-61.579c-4.427,0-8.016,3.589-8.016,8.016v16.032h72.873L301.547,163.815z"/>
	</g>
	<g>
		<path d="M492.425,373.929l-85.41-34.276h1.292c12.976,0,23.532-10.557,23.532-23.532v-8.532h8.532    c8.556,0,15.516-6.96,15.516-15.516v-64.129c0-8.556-6.96-15.516-15.516-15.516h-0.516v-9.048h8.532c4.142,0,7.5-3.358,7.5-7.5    v-32.064c0-4.142-3.358-7.5-7.5-7.5h-16.032c-12.976,0-23.532,10.557-23.532,23.532c0,10.353,6.724,19.16,16.032,22.3v10.281    H315.744l-11.287-82.773c-1.043-7.65-7.652-13.42-15.374-13.42h-9.551V99.169h8.532c4.142,0,7.5-3.358,7.5-7.5s-3.358-7.5-7.5-7.5    H31.548c-4.142,0-7.5,3.358-7.5,7.5s3.358,7.5,7.5,7.5h8.532v17.064h-8.532c-8.556,0-15.516,6.96-15.516,15.516v160.323    c0,8.556,6.96,15.516,15.516,15.516h0.516v8.532c0,8.97,5.046,16.781,12.448,20.751l-37.02,44.565    C2.852,386.369,0,393.001,0,400.291c0,15.186,12.354,27.54,27.541,27.54h160.322c15.186,0,27.541-12.354,27.541-27.54    c0-12.417-8.261-22.936-19.575-26.361l-85.41-34.276h228.38l-34.706,41.78c-4.643,4.932-7.496,11.566-7.496,18.857    c0,15.186,12.354,27.54,27.541,27.54h160.322c15.186,0,27.541-12.354,27.541-27.54C512,387.874,503.739,377.354,492.425,373.929z     M432.355,171.314h8.532v17.064h-8.532c-4.705,0-8.532-3.828-8.532-8.532S427.65,171.314,432.355,171.314z M459.953,412.831    h-31.147c1.934-3.764,3.033-8.025,3.033-12.54c0-15.186-12.354-27.541-27.541-27.541c-15.186,0-27.54,12.354-27.54,27.541    c0,4.515,1.099,8.776,3.033,12.54h-31.147c1.934-3.764,3.033-8.025,3.033-12.54c0-13.09-9.183-24.069-21.443-26.852l8.661-10.426    c4.213,9.822,13.976,16.721,25.323,16.721c15.186,0,27.541-12.354,27.541-27.541c0-0.86-0.045-1.709-0.122-2.549l74.667,29.964    c-5.746,5.051-9.383,12.447-9.383,20.682C456.919,404.806,458.019,409.066,459.953,412.831z M391.758,400.291    c0-6.915,5.625-12.541,12.54-12.541c6.915,0,12.541,5.625,12.541,12.541c0,6.915-5.625,12.54-12.541,12.54    C397.384,412.831,391.758,407.205,391.758,400.291z M376.758,352.193c0,6.915-5.625,12.541-12.541,12.541    s-12.541-5.625-12.541-12.541c0-6.915,5.625-12.54,12.541-12.54S376.758,345.279,376.758,352.193z M300.605,212.427h-60.638    c-0.285,0-0.516-0.231-0.516-0.516v-40.081c0-0.285,0.231-0.516,0.516-0.516h55.031L300.605,212.427z M264.532,116.234h-97.226    V99.169h97.226V116.234z M55.081,99.169h97.226v17.064H55.081V99.169z M31.032,292.073v-56.629h8.536c4.142,0,7.5-3.358,7.5-7.5    s-3.358-7.5-7.5-7.5h-8.536V131.75c0-0.285,0.231-0.516,0.516-0.516h257.535c0.257,0,0.477,0.192,0.511,0.446l3.359,24.634    h-52.986c-8.556,0-15.516,6.96-15.516,15.516v40.081c0,8.556,6.96,15.516,15.516,15.516h62.683l8.886,65.162H207.387v-56.629    c0-8.556-6.96-15.516-15.516-15.516H71.629c-4.142,0-7.5,3.358-7.5,7.5s3.358,7.5,7.5,7.5h120.242    c0.285,0,0.516,0.231,0.516,0.516v56.629H31.548C31.264,292.589,31.032,292.357,31.032,292.073z M336.158,307.589    c4.142,0,7.5-3.358,7.5-7.5s-3.358-7.5-7.5-7.5h-9.483l-4.513-33.097h13.999c4.142,0,7.5-3.358,7.5-7.5s-3.358-7.5-7.5-7.5    h-16.044l-2.327-17.064h122.581c0.285,0,0.516,0.231,0.516,0.516v64.129c0,0.285-0.231,0.516-0.516,0.516h-72.148    c-4.142,0-7.5,3.358-7.5,7.5s3.358,7.5,7.5,7.5h48.616v8.532c0,4.705-3.828,8.532-8.532,8.532H55.597    c-4.705,0-8.532-3.828-8.532-8.532v-8.532H336.158z M163.356,412.831h-31.147c1.934-3.764,3.033-8.025,3.033-12.54    c0-15.186-12.354-27.541-27.54-27.541c-15.186,0-27.541,12.354-27.541,27.541c0,4.515,1.099,8.776,3.033,12.54H52.047    c1.934-3.764,3.033-8.025,3.033-12.54c0-13.091-9.183-24.069-21.444-26.852l8.661-10.426c4.213,9.822,13.976,16.721,25.323,16.721    c15.186,0,27.54-12.354,27.54-27.541c0-0.86-0.045-1.709-0.123-2.549l74.667,29.965c-5.746,5.051-9.383,12.447-9.383,20.682    C160.323,404.806,161.422,409.066,163.356,412.831z M95.161,400.291c0-6.915,5.625-12.541,12.541-12.541    c6.915,0,12.54,5.625,12.54,12.541c0,6.915-5.625,12.54-12.54,12.54C100.787,412.831,95.161,407.205,95.161,400.291z     M80.161,352.193c0,6.915-5.625,12.541-12.54,12.541c-6.915,0-12.541-5.625-12.541-12.541c0-6.915,5.625-12.54,12.541-12.54    C74.536,339.653,80.161,345.279,80.161,352.193z M15,400.291c0-6.915,5.625-12.541,12.541-12.541    c6.915,0,12.54,5.625,12.54,12.541c0,6.915-5.625,12.54-12.54,12.54C20.625,412.831,15,407.205,15,400.291z M187.863,412.831    c-6.915,0-12.54-5.625-12.54-12.54c0-6.915,5.625-12.541,12.54-12.541c6.915,0,12.541,5.625,12.541,12.541    C200.403,407.205,194.778,412.831,187.863,412.831z M311.597,400.291c0-6.915,5.625-12.541,12.541-12.541    c6.915,0,12.54,5.625,12.54,12.541c0,6.915-5.625,12.54-12.54,12.54C317.222,412.831,311.597,407.205,311.597,400.291z     M484.459,412.831c-6.915,0-12.54-5.625-12.54-12.54c0-6.915,5.625-12.541,12.54-12.541c6.915,0,12.541,5.625,12.541,12.541    C497,407.205,491.375,412.831,484.459,412.831z"/>
		<path d="M63.613,203.379h128.258c8.556,0,15.516-6.96,15.516-15.516v-16.032c0-8.556-6.96-15.516-15.516-15.516H63.613    c-8.556,0-15.516,6.96-15.516,15.516v16.032C48.097,196.418,55.057,203.379,63.613,203.379z M192.387,171.831v16.032    c0,0.285-0.231,0.516-0.516,0.516h-56.629v-17.064h56.629C192.156,171.314,192.387,171.546,192.387,171.831z M63.097,171.831    c0-0.285,0.231-0.516,0.516-0.516h56.629v17.064H63.613c-0.285,0-0.516-0.231-0.516-0.516V171.831z"/>
		<path d="M368.226,259.492h16.033c4.142,0,7.5-3.358,7.5-7.5s-3.358-7.5-7.5-7.5h-16.033c-4.142,0-7.5,3.358-7.5,7.5    S364.083,259.492,368.226,259.492z"/>
	</g>
</g>















</svg>
