<?xml version="1.0" encoding="iso-8859-1"?>
<!-- Generator: Adobe Illustrator 19.0.0, SVG Export Plug-In . SVG Version: 6.00 Build 0)  -->
<svg xmlns="http://www.w3.org/2000/svg" xmlns:xlink="http://www.w3.org/1999/xlink" version="1.1" id="Capa_1" x="0px" y="0px" viewBox="0 0 512 512" style="enable-background:new 0 0 512 512;" xml:space="preserve" width="512" height="512">
<g>
	<g>
		<path style="fill:#C3DDFF;" d="M415.153,423.614L256,339.357l82.991-82.991l84.257,159.153    C426.007,420.731,420.365,426.373,415.153,423.614z"/>
		<path style="fill:#A4CCFF;" d="M297.496,297.861l124.694,124.694c-1.717,1.717-4.431,2.438-7.037,1.058L256,339.357    L297.496,297.861z"/>
		<path style="fill:#A4CCFF;" d="M88.752,415.518l84.257-159.153L256,339.357L96.847,423.614    C91.635,426.373,85.993,420.731,88.752,415.518z"/>
		<path style="fill:#8BB3EA;" d="M214.505,297.862L89.811,422.555c-1.717-1.717-2.438-4.431-1.058-7.037l84.257-159.153    L214.505,297.862z"/>
		<path style="fill:#DBEAFF;" d="M415.153,88.752L256,173.009L338.991,256l84.257-159.153    C426.007,91.635,420.365,85.993,415.153,88.752z"/>
		<path style="fill:#C3DDFF;" d="M297.496,214.505L422.189,89.811c-1.717-1.717-4.431-2.438-7.037-1.058L256,173.009    L297.496,214.505z"/>
		<path style="fill:#C3DDFF;" d="M88.752,96.847L173.009,256L256,173.009L96.847,88.752C91.635,85.993,85.993,91.635,88.752,96.847z    "/>
		<path style="fill:#A4CCFF;" d="M214.505,214.504L89.811,89.811c-1.717,1.717-2.438,4.431-1.058,7.037L173.009,256L214.505,214.504    z"/>
		<path style="fill:#C3DDFF;" d="M316.333,201.118l169.741,49.508c5.374,1.567,5.374,9.181,0,10.748l-169.741,49.508    c-2.629,0.767-4.684,2.822-5.451,5.451l-49.508,169.741c-1.567,5.374-9.181,5.374-10.748,0l-49.508-169.741    c-0.767-2.629-2.822-4.684-5.451-5.451L25.926,261.374c-5.374-1.567-5.374-9.181,0-10.748l169.741-49.508    c2.629-0.767,4.684-2.822,5.451-5.451l49.508-169.741c1.567-5.374,9.181-5.374,10.748,0l49.508,169.741    C311.649,198.296,313.704,200.351,316.333,201.118z"/>
		<path style="fill:#DBEAFF;" d="M310.882,195.667L261.374,25.926c-0.783-2.687-3.079-4.031-5.374-4.031V256l56.909-56.909    C311.971,198.152,311.266,196.981,310.882,195.667z"/>
		<path style="fill:#A4CCFF;" d="M201.118,195.667l49.508-169.741c0.783-2.687,3.079-4.031,5.374-4.031V256l-56.909-56.909    C200.029,198.152,200.734,196.981,201.118,195.667z"/>
		<path style="fill:#C3DDFF;" d="M316.333,201.118l169.741,49.508c2.687,0.783,4.031,3.079,4.031,5.374H256l56.909-56.909    C313.848,200.029,315.019,200.735,316.333,201.118z"/>
		<path style="fill:#8BB3EA;" d="M316.333,310.882l169.741-49.508c2.687-0.783,4.031-3.079,4.031-5.374H256l56.909,56.909    C313.848,311.971,315.019,311.266,316.333,310.882z"/>
		<path style="fill:#8BB3EA;" d="M201.118,316.333l49.508,169.741c0.783,2.687,3.079,4.031,5.374,4.031V256l-56.909,56.909    C200.029,313.848,200.734,315.019,201.118,316.333z"/>
		<path style="fill:#8BB3EA;" d="M195.667,201.118L25.926,250.626c-2.687,0.783-4.031,3.079-4.031,5.374H256l-56.909-56.909    C198.152,200.029,196.981,200.735,195.667,201.118z"/>
		<path style="fill:#A4CCFF;" d="M195.667,310.882L25.926,261.374c-2.687-0.783-4.031-3.079-4.031-5.374H256l-56.909,56.909    C198.152,311.971,196.981,311.266,195.667,310.882z"/>
	</g>
	<path d="M506.6,248.8l-134.537-39.24l66.921-126.406c1.541-2.91,1.003-6.484-1.325-8.813s-5.902-2.866-8.813-1.325L302.44,139.937   L263.2,5.4C262.267,2.2,259.333,0,256,0s-6.267,2.2-7.2,5.4l-39.24,134.537L83.154,73.017c-2.911-1.54-6.484-1.003-8.813,1.325   s-2.866,5.902-1.325,8.813l66.921,126.406L5.4,248.8C2.2,249.733,0,252.667,0,256s2.2,6.267,5.4,7.2l134.537,39.24L73.017,428.846   c-1.541,2.91-1.003,6.484,1.325,8.813c1.442,1.442,3.361,2.197,5.306,2.197c1.195,0,2.399-0.285,3.507-0.872l126.406-66.921   L248.8,506.6c0.934,3.2,3.867,5.4,7.2,5.4s6.267-2.2,7.2-5.4l39.24-134.537l126.406,66.921c1.108,0.586,2.312,0.872,3.507,0.872   c1.944,0,3.864-0.755,5.306-2.197c2.328-2.328,2.866-5.902,1.325-8.813L372.063,302.44L506.6,263.2c3.2-0.934,5.4-3.867,5.4-7.2   S509.8,249.733,506.6,248.8z M314.276,303.669L274.106,263.5H452L314.276,303.669z M263.5,451.999V274.106l40.169,40.169   L263.5,451.999z M208.331,314.276l40.169-40.169v177.893L208.331,314.276z M60,263.5h43.695c4.142,0,7.5-3.358,7.5-7.5   s-3.358-7.5-7.5-7.5H60l137.724-40.169l40.169,40.169H135.759c-4.142,0-7.5,3.358-7.5,7.5s3.358,7.5,7.5,7.5h102.135   l-40.169,40.169L60,263.5z M248.5,60v177.893l-40.169-40.169L248.5,60z M303.669,197.724L263.5,237.894V60L303.669,197.724z    M452,248.5H274.106l40.169-40.169L452,248.5z M391.783,109.611l-58.253,58.253c-2.929,2.929-2.929,7.678,0,10.606   c1.464,1.464,3.384,2.197,5.303,2.197s3.839-0.732,5.303-2.197l58.253-58.253l-45.029,85.055l-39.199-11.433l-11.433-39.199   L391.783,109.611z M196.234,185.627l-76.017-76.017l85.055,45.029L196.234,185.627z M109.611,120.217l76.017,76.017l-30.988,9.038   L109.611,120.217z M120.217,402.389l56.75-56.75c2.929-2.929,2.929-7.678,0-10.606c-2.929-2.929-7.678-2.929-10.606,0l-56.75,56.75   l45.029-85.055l39.199,11.433l11.433,39.199L120.217,402.389z M315.766,326.373l76.017,76.017l-85.055-45.029L315.766,326.373z    M402.389,391.783l-76.017-76.017l30.988-9.038L402.389,391.783z"/>
</g>















</svg>
