<?xml version="1.0" encoding="iso-8859-1"?>
<!-- Generator: Adobe Illustrator 19.0.0, SVG Export Plug-In . SVG Version: 6.00 Build 0)  -->
<svg xmlns="http://www.w3.org/2000/svg" xmlns:xlink="http://www.w3.org/1999/xlink" version="1.1" id="Capa_1" x="0px" y="0px" viewBox="0 0 512 512" style="enable-background:new 0 0 512 512;" xml:space="preserve" width="512" height="512">
<g>
	<g>
		<g>
			<path style="fill:#CCF49F;" d="M231.952,215.919h-16.032c-8.854,0-16.032-7.178-16.032-16.032l0-85.706     c0-38.426-28.998-71.978-67.344-74.461C90.525,37,55.597,70.276,55.597,111.71v88.177c0,8.854-7.178,16.032-16.032,16.032H23.532     v80.161h16.033c8.854,0,16.031,7.177,16.031,16.031l0,85.707c0,38.426,28.998,71.978,67.344,74.461     c42.019,2.72,76.947-30.555,76.947-71.989v-88.177c0-8.854,7.178-16.032,16.032-16.032h16.032V215.919z"/>
			<path style="fill:#FDFFF7;" d="M127.742,272.032L127.742,272.032c-22.136,0-40.081-17.945-40.081-40.081V111.71     c0-22.136,17.945-40.081,40.081-40.081h0c22.136,0,40.081,17.945,40.081,40.081v120.242     C167.823,254.088,149.878,272.032,127.742,272.032z"/>
			<rect x="87.661" y="151.79" style="fill:#5D5360;" width="80.161" height="64.129"/>
			<circle style="fill:#6F6571;" cx="127.742" cy="151.79" r="16.032"/>
			<g>
				<path style="fill:#B3E59F;" d="M143.495,447.915c-36.832-4.184-63.308-36.894-63.308-73.963l0-315.929      c-14.735,13.209-24.59,32.341-24.59,53.687v88.177c0,8.854-7.178,16.032-16.032,16.032H23.532v80.161h16.033      c8.854,0,16.031,7.177,16.031,16.031l0,85.707c0,37.168,27.06,70.123,64.007,74.17c29.435,3.224,55.728-11.32,69.698-34.206      C176.19,445.792,160.391,449.834,143.495,447.915z"/>
			</g>
		</g>
		<g>
			<path style="fill:#CCF49F;" d="M488.468,215.919h-16.032c-8.854,0-16.032-7.178-16.032-16.032l0-85.706     c0-38.426-28.998-71.978-67.344-74.461c-42.019-2.72-76.947,30.556-76.947,71.989v88.177c0,8.854-7.178,16.032-16.032,16.032     h-16.032v80.161h16.033c8.854,0,16.031,7.177,16.031,16.031l0,85.707c0,38.426,28.998,71.978,67.344,74.461     c42.019,2.72,76.947-30.555,76.947-71.989v-88.177c0-8.854,7.178-16.032,16.032-16.032h16.032V215.919z"/>
			<path style="fill:#FDFFF7;" d="M384.258,272.032L384.258,272.032c-22.136,0-40.081-17.945-40.081-40.081V111.71     c0-22.136,17.945-40.081,40.081-40.081h0c22.136,0,40.081,17.945,40.081,40.081v120.242     C424.339,254.088,406.394,272.032,384.258,272.032z"/>
			<rect x="344.177" y="151.79" style="fill:#5D5360;" width="80.161" height="64.129"/>
			<circle style="fill:#6F6571;" cx="384.258" cy="151.79" r="16.032"/>
			<g>
				<path style="fill:#B3E59F;" d="M400.011,447.915c-36.832-4.184-63.308-36.894-63.308-73.963V58.023      c-14.735,13.209-24.59,32.341-24.59,53.687v88.177c0,8.854-7.178,16.032-16.032,16.032h-16.032v80.161h16.033      c8.854,0,16.031,7.177,16.031,16.031l0,85.707c0,37.168,27.06,70.123,64.007,74.17c29.435,3.224,55.727-11.32,69.698-34.206      C432.707,445.792,416.907,449.834,400.011,447.915z"/>
			</g>
		</g>
	</g>
	<g>
		<path d="M127.742,0C66.145,0,16.032,50.113,16.032,111.709v288.581C16.032,461.887,66.145,512,127.741,512c0,0,0,0,0,0h0h0    c61.597,0,111.709-50.113,111.709-111.709V111.709C239.452,50.113,189.339,0,127.742,0z M224.163,104.209h-17.139    c-3.562-37.941-33.841-68.22-71.782-71.781V15.289C182.601,18.938,220.513,56.85,224.163,104.209z M207.387,392.791v-80.678    c0-4.705,3.828-8.532,8.532-8.532h8.532v89.21H207.387z M127.742,464.936c-35.646,0-64.645-29-64.645-64.645v-88.177    c0-12.975-10.556-23.532-23.531-23.532l-8.534,0v-65.161h8.532c12.976,0,23.532-10.557,23.532-23.532v-88.178    c0-35.646,29-64.645,64.646-64.645s64.645,29,64.645,64.645v88.178c0,12.976,10.557,23.532,23.532,23.532h8.532v65.161h-8.532    c-12.976,0-23.532,10.557-23.532,23.532v88.178C192.387,435.936,163.387,464.936,127.742,464.936z M31.032,392.791v-89.21l8.533,0    c4.705,0,8.532,3.828,8.532,8.532v80.677H31.032z M48.097,119.209v80.678c0,4.705-3.828,8.532-8.532,8.532h-8.532v-89.21H48.097z     M224.452,119.209v89.21h-8.532c-4.705,0-8.532-3.828-8.532-8.532v-80.678H224.452z M120.242,15.289v17.139    c-37.941,3.562-68.22,33.841-71.781,71.781H31.321C34.971,56.851,72.883,18.939,120.242,15.289z M31.321,407.791H48.46    c3.562,37.94,33.841,68.219,71.781,71.781v17.14C72.883,493.062,34.971,455.149,31.321,407.791z M135.242,496.711v-17.139    c37.941-3.561,68.22-33.841,71.782-71.781h17.139C220.513,455.15,182.601,493.062,135.242,496.711z"/>
		<path d="M175.323,223.419h0.516c4.142,0,7.5-3.358,7.5-7.5s-3.358-7.5-7.5-7.5h-0.516v-49.129h0.516c4.142,0,7.5-3.358,7.5-7.5    s-3.358-7.5-7.5-7.5h-0.516v-32.581c0-26.236-21.345-47.581-47.581-47.581c-26.236,0-47.581,21.345-47.581,47.581v8.018    c0,4.142,3.358,7.5,7.5,7.5s7.5-3.358,7.5-7.5v-8.018c0-17.965,14.616-32.581,32.581-32.581c17.965,0,32.581,14.616,32.581,32.581    v32.581h-10.281c-3.139-9.308-11.946-16.032-22.3-16.032c-10.354,0-19.16,6.724-22.3,16.032H79.645c-4.142,0-7.5,3.358-7.5,7.5    s3.358,7.5,7.5,7.5h0.516v49.129h-0.516c-4.142,0-7.5,3.358-7.5,7.5s3.358,7.5,7.5,7.5h0.516v8.532    c0,26.236,21.345,47.581,47.581,47.581c26.236,0,47.581-21.345,47.581-47.581V223.419z M127.742,143.258    c4.705,0,8.533,3.828,8.533,8.532s-3.828,8.532-8.533,8.532c-4.705,0-8.532-3.828-8.532-8.532S123.037,143.258,127.742,143.258z     M95.161,159.291h10.281c3.139,9.308,11.946,16.032,22.3,16.032c10.354,0,19.161-6.724,22.3-16.032h10.281v49.129H95.161V159.291z     M127.742,264.532c-17.965,0-32.581-14.616-32.581-32.581v-8.532h65.162v8.532C160.323,249.917,145.707,264.532,127.742,264.532z"/>
		<path d="M384.258,0L384.258,0L384.258,0L384.258,0c-61.597,0-111.71,50.113-111.71,111.709v288.581    c0,61.597,50.113,111.709,111.71,111.709c61.597,0,111.709-50.113,111.709-111.709V111.709C495.968,50.113,445.855,0,384.258,0z     M463.903,392.791v-80.678c0-4.705,3.828-8.532,8.532-8.532h8.532v89.21H463.903z M384.258,464.936    c-35.646,0-64.645-29-64.645-64.645v-88.177c0-12.975-10.556-23.532-23.531-23.532l-8.534,0v-65.161h8.532    c12.976,0,23.532-10.557,23.532-23.532v-88.178c0-35.646,29-64.645,64.646-64.645s64.645,29,64.645,64.645v88.178    c0,12.976,10.557,23.532,23.532,23.532h8.532v65.161h-8.532c-12.976,0-23.532,10.557-23.532,23.532v88.178    C448.903,435.936,419.903,464.936,384.258,464.936z M287.548,392.791v-89.21l8.533,0c4.705,0,8.532,3.828,8.532,8.532v80.677    H287.548z M304.613,119.209v80.678c0,4.705-3.828,8.532-8.532,8.532h-8.532v-89.21H304.613z M480.968,119.209v89.21h-8.532    c-4.705,0-8.532-3.828-8.532-8.532v-80.678H480.968z M480.679,104.209H463.54c-3.562-37.94-33.841-68.219-71.781-71.781v-17.14    C439.117,18.938,477.029,56.851,480.679,104.209z M376.758,15.289v17.139c-37.941,3.561-68.22,33.841-71.782,71.781h-17.139    C291.487,56.851,329.399,18.938,376.758,15.289z M287.837,407.791h17.139c3.562,37.941,33.841,68.22,71.782,71.781v17.139    C329.399,493.062,291.487,455.15,287.837,407.791z M391.758,496.711v-17.139c37.941-3.562,68.22-33.841,71.781-71.781h17.139    C477.029,455.149,439.117,493.062,391.758,496.711z"/>
		<path d="M431.839,223.419h0.516c4.142,0,7.5-3.358,7.5-7.5s-3.358-7.5-7.5-7.5h-0.516v-49.129h0.516c4.142,0,7.5-3.358,7.5-7.5    s-3.358-7.5-7.5-7.5h-0.516v-32.581c0-26.236-21.345-47.581-47.581-47.581c-26.236,0-47.581,21.345-47.581,47.581v8.018    c0,4.142,3.358,7.5,7.5,7.5s7.5-3.358,7.5-7.5v-8.018c0-17.965,14.616-32.581,32.581-32.581c17.965,0,32.581,14.616,32.581,32.581    v32.581h-10.281c-3.139-9.308-11.946-16.032-22.3-16.032c-10.354,0-19.161,6.724-22.3,16.032h-25.797c-4.142,0-7.5,3.358-7.5,7.5    s3.358,7.5,7.5,7.5h0.516v49.129h-0.516c-4.142,0-7.5,3.358-7.5,7.5s3.358,7.5,7.5,7.5h0.516v8.532    c0,26.236,21.345,47.581,47.581,47.581c26.236,0,47.581-21.345,47.581-47.581V223.419z M384.258,143.258    c4.705,0,8.532,3.828,8.532,8.532s-3.828,8.532-8.532,8.532c-4.705,0-8.533-3.828-8.533-8.532S379.553,143.258,384.258,143.258z     M351.677,159.291h10.281c3.139,9.308,11.946,16.032,22.3,16.032c10.353,0,19.16-6.724,22.3-16.032h10.281v49.129h-65.162V159.291    z M384.258,264.532c-17.965,0-32.581-14.616-32.581-32.581v-8.532h65.162v8.532C416.839,249.917,402.223,264.532,384.258,264.532z    "/>
	</g>
</g>















</svg>
