<?xml version="1.0" encoding="iso-8859-1"?>
<!-- Generator: Adobe Illustrator 19.0.0, SVG Export Plug-In . SVG Version: 6.00 Build 0)  -->
<svg xmlns="http://www.w3.org/2000/svg" xmlns:xlink="http://www.w3.org/1999/xlink" version="1.1" id="Capa_1" x="0px" y="0px" viewBox="0 0 512 512" style="enable-background:new 0 0 512 512;" xml:space="preserve" width="512" height="512">
<g>
	<g>
		<polygon style="fill:#FF8086;" points="304.097,159.806 344.177,175.839 344.177,143.774   "/>
		<rect x="239.968" y="183.855" style="fill:#A4CCFF;" width="32.065" height="88.177"/>
		<rect x="239.968" y="183.855" style="fill:#8BB3EA;" width="32.065" height="24.048"/>
		<rect x="135.758" y="256" style="fill:#DAD8DB;" width="184.371" height="56.113"/>
		<rect x="304.097" y="223.935" style="fill:#ECEAEC;" width="96.194" height="80.161"/>
		<path style="fill:#A4CCFF;" d="M39.565,296.081l40.081,72.145l362.096,6.97c18.689-14.676,30.695-37.477,30.695-63.082v-16.032    H39.565z"/>
		<path style="fill:#B6B1B7;" d="M167.823,215.919c-8.854,0-16.032,7.178-16.032,16.032V256h32.065v-24.048    C183.855,223.097,176.677,215.919,167.823,215.919z"/>
		<path style="fill:#C3DDFF;" d="M471.968,320.712c0.262-2.643,0.468-5.887,0.468-8.599v-16.032H39.565l13.361,24.632H471.968z"/>
	</g>
	<g>
		<path d="M504.5,360.726c-13.617,0-20.821,2.321-27.178,4.37c-5.185,1.67-9.779,3.143-18.015,3.539    c13.261-15.663,20.629-35.505,20.629-56.521v-16.033c0-4.142-3.358-7.5-7.5-7.5h-64.645v-57.145h0.516c4.142,0,7.5-3.358,7.5-7.5    s-3.358-7.5-7.5-7.5h-56.629v-80.678c0-4.142-3.358-7.5-7.5-7.5s-7.5,3.358-7.5,7.5v2.938l-35.366,14.146    c-2.847,1.139-4.714,3.896-4.714,6.964c0,3.066,1.867,5.824,4.714,6.963l35.366,14.146v35.519h-32.581c-4.142,0-7.5,3.358-7.5,7.5    V248.5h-17.064v-57.146h0.516c4.142,0,7.5-3.357,7.5-7.5c0-4.142-3.358-7.5-7.5-7.5h-48.097c-4.142,0-7.5,3.358-7.5,7.5    c0,4.143,3.358,7.5,7.5,7.5h0.516V248.5h-41.113v-16.548c0-12.976-10.557-23.532-23.532-23.532s-23.532,10.557-23.532,23.532    V248.5h-8.532c-4.142,0-7.5,3.358-7.5,7.5v32.581H39.564c-2.657,0-5.116,1.406-6.464,3.697c-1.348,2.29-1.383,5.123-0.092,7.445    l37.698,67.857c-3.546,0.708-7.747,1.162-13.562,1.162c-11.23,0-16.461-1.689-22.518-3.646    c-6.344-2.049-13.535-4.371-27.127-4.371c-4.142,0-7.5,3.358-7.5,7.5c0,4.143,3.358,7.5,7.5,7.5    c11.23,0,16.461,1.689,22.518,3.646c6.344,2.049,13.535,4.371,27.127,4.371c13.598,0,20.792-2.322,27.139-4.371    c6.06-1.956,11.294-3.646,22.531-3.646c11.243,0,16.479,1.689,22.543,3.646c6.349,2.048,13.545,4.371,27.148,4.371    s20.799-2.322,27.148-4.371c6.063-1.957,11.3-3.646,22.543-3.646s16.479,1.689,22.543,3.646    c6.349,2.048,13.545,4.371,27.148,4.371c13.606,0,20.804-2.322,27.155-4.37c6.065-1.957,11.304-3.646,22.55-3.646    c11.239,0,16.474,1.689,22.536,3.646c6.348,2.049,13.542,4.371,27.142,4.371c13.609,0,20.81-2.322,27.162-4.37    c6.067-1.957,11.308-3.646,22.559-3.646c11.26,0,16.505,1.69,22.577,3.647c6.356,2.048,13.561,4.37,27.178,4.37    s20.821-2.321,27.178-4.37c6.072-1.957,11.317-3.647,22.577-3.647c4.142,0,7.5-3.357,7.5-7.5    C512,364.084,508.642,360.726,504.5,360.726z M324.291,159.807l12.386-4.955v9.909L324.291,159.807z M311.597,231.436h81.194    V248.5h-8.532c-4.142,0-7.5,3.358-7.5,7.5s3.358,7.5,7.5,7.5h8.532v25.081h-81.194V231.436z M247.468,191.354h17.064V248.5    h-17.064V191.354z M159.291,231.952c0-4.705,3.828-8.532,8.532-8.532s8.532,3.828,8.532,8.532V248.5h-17.064V231.952z     M404.99,360.726c-13.609,0-20.81,2.322-27.162,4.37c-6.067,1.957-11.308,3.646-22.559,3.646c-11.239,0-16.474-1.689-22.536-3.646    c-6.348-2.049-13.542-4.371-27.142-4.371c-13.605,0-20.804,2.322-27.154,4.37c-6.065,1.957-11.304,3.646-22.55,3.646    c-11.243,0-16.479-1.689-22.543-3.646c-6.349-2.048-13.546-4.371-27.148-4.371c-13.603,0-20.799,2.322-27.148,4.371    c-6.063,1.957-11.3,3.646-22.542,3.646s-16.479-1.689-22.542-3.646c-6.349-2.048-13.545-4.371-27.148-4.371    c-9.687,0-16.117,1.18-21.313,2.599l-33.19-59.744h99.477c4.142,0,7.5-3.358,7.5-7.5s-3.358-7.5-7.5-7.5h-8.529V263.5h153.338    v25.081H183.853c-4.142,0-7.5,3.358-7.5,7.5s3.358,7.5,7.5,7.5h281.083v8.533c0,21.376-9.198,41.287-25.337,55.131    c-2.642-0.61-4.971-1.356-7.43-2.149C425.812,363.047,418.607,360.726,404.99,360.726z"/>
		<path d="M119.726,320.646h-16.032c-4.142,0-7.5,3.357-7.5,7.5c0,4.142,3.358,7.5,7.5,7.5h16.032c4.142,0,7.5-3.358,7.5-7.5    C127.226,324.003,123.868,320.646,119.726,320.646z"/>
		<path d="M167.823,320.646h-16.032c-4.142,0-7.5,3.357-7.5,7.5c0,4.142,3.358,7.5,7.5,7.5h16.032c4.142,0,7.5-3.358,7.5-7.5    C175.323,324.003,171.965,320.646,167.823,320.646z"/>
		<path d="M215.919,320.646h-16.032c-4.142,0-7.5,3.357-7.5,7.5c0,4.142,3.358,7.5,7.5,7.5h16.032c4.142,0,7.5-3.358,7.5-7.5    C223.419,324.003,220.062,320.646,215.919,320.646z"/>
		<path d="M336.161,263.5h16.032c4.142,0,7.5-3.358,7.5-7.5s-3.358-7.5-7.5-7.5h-16.032c-4.142,0-7.5,3.358-7.5,7.5    S332.019,263.5,336.161,263.5z"/>
	</g>
</g>















</svg>
