<?xml version="1.0" encoding="iso-8859-1"?>
<!-- Generator: Adobe Illustrator 19.0.0, SVG Export Plug-In . SVG Version: 6.00 Build 0)  -->
<svg xmlns="http://www.w3.org/2000/svg" xmlns:xlink="http://www.w3.org/1999/xlink" version="1.1" id="Capa_1" x="0px" y="0px" viewBox="0 0 512 512" style="enable-background:new 0 0 512 512;" xml:space="preserve" width="512" height="512">
<g>
	<g>
		<path style="fill:#A4CCFF;" d="M295.399,7.5H88.343c-9.116,0-16.398,7.591-16.019,16.7l15.337,368.075h208.419L311.417,24.2    C311.797,15.091,304.515,7.5,295.399,7.5z"/>
		<path style="fill:#8BB3EA;" d="M119.726,7.5H88.343c-9.116,0-16.398,7.591-16.019,16.7l15.337,368.075h31.383L103.708,24.2    C103.328,15.091,110.61,7.5,119.726,7.5z"/>
		<path style="fill:#5D5360;" d="M252.386,360.21c-21.418,0-40.894-12.182-50.315-31.271l-0.354-0.794h-25.879v-48.097h4.454    l-0.003-0.007l-13.688-30.798c-9.006-20.264-29.102-33.323-51.277-33.323H80.313l7.348,176.355h208.419l1.336-32.065H252.386z"/>
		<path style="fill:#C8C5C9;" d="M99.357,504.5h67.818c5.292,0,10.383-1.846,14.578-5.072c6.107-4.697,16.129-10.96,26.149-10.96    c10.02,0,20.04,6.263,26.146,10.96c4.195,3.227,9.286,5.073,14.579,5.073h55.468c52.171,0,94.155-6.791,117.115-11.533    c11.182-2.31,19.16-12.133,19.16-23.552v-29.044c0-26.563-21.534-48.097-48.097-48.097H87.661L75.55,477.051    C73.481,491.538,84.722,504.5,99.357,504.5z"/>
		<path style="fill:#5D5360;" d="M440.371,469.415v-13.768c-26.928,7.082-74.924,16.789-136.274,16.789h-47.588    c-3.075,0-6.1-0.842-8.657-2.548c-10.275-6.854-24.264-13.484-39.949-13.484s-29.677,6.63-39.952,13.484    c-2.557,1.706-5.583,2.548-8.657,2.548H76.21l-0.66,4.615c-2.07,14.487,9.172,27.449,23.807,27.449h67.819    c5.292,0,10.383-1.846,14.578-5.072c6.107-4.697,16.129-10.96,26.149-10.96c10.02,0,20.04,6.263,26.146,10.96    c4.195,3.227,9.286,5.073,14.579,5.073h55.469c52.171,0,94.155-6.791,117.115-11.533    C432.394,490.657,440.371,480.833,440.371,469.415z"/>
		<polygon style="fill:#4B3F4E;" points="80.313,215.919 87.661,392.274 119.044,392.274 111.696,215.919   "/>
		<path style="fill:#4B3F4E;" d="M87.661,288.065c-4.427,0-8.016,3.589-8.016,8.016v16.032c0,4.427,3.589,8.016,8.016,8.016h88.177    v-32.065H87.661z"/>
		<path style="fill:#5D5360;" d="M296.081,288.065h-88.177v32.065h88.177c4.427,0,8.016-3.589,8.016-8.016v-16.032    C304.097,291.653,300.508,288.065,296.081,288.065z"/>
		<path style="fill:#4B3F4E;" d="M80.262,127.742c-4.767,0-8.633,3.589-8.633,8.016v16.032c0,4.427,3.865,8.016,8.633,8.016h94.961    v-32.065H80.262z"/>
		<path style="fill:#5D5360;" d="M303.48,127.742H208.52v32.065h94.961c4.767,0,8.633-3.589,8.633-8.016v-16.032    C312.113,131.331,308.248,127.742,303.48,127.742z"/>
		<path style="fill:#4B3F4E;" d="M119.044,472.435H76.21l-0.659,4.614c-2.07,14.488,9.171,27.45,23.807,27.45h67.819    c5.292,0,10.383-1.846,14.578-5.072c6.107-4.697,16.129-10.96,26.149-10.96h-72.827    C126.222,488.468,119.044,481.29,119.044,472.435L119.044,472.435z"/>
		<polygon style="fill:#B6B1B7;" points="119.044,472.435 119.044,392.274 87.661,392.274 76.21,472.435   "/>
	</g>
	<path d="M392.274,384.774H303.9l2.548-61.151c3.152-2.842,5.149-6.943,5.149-11.511v-16.032c0-3.765-1.35-7.219-3.589-9.909   l5.073-121.755c3.946-2.816,6.531-7.42,6.531-12.626v-16.032c0-4.432-1.878-8.426-4.868-11.256l4.166-99.99   c0.269-6.466-2.05-12.599-6.53-17.27C307.901,2.572,301.87,0,295.399,0H88.343C81.872,0,75.84,2.572,71.36,7.242   c-4.479,4.67-6.798,10.804-6.529,17.27l4.166,99.99c-2.99,2.83-4.868,6.824-4.868,11.256v16.032c0,5.206,2.586,9.811,6.532,12.627   l5.073,121.754c-2.239,2.69-3.589,6.144-3.589,9.909v16.032c0,4.569,1.997,8.67,5.149,11.512l2.844,68.273L68.125,475.99   c-1.294,9.059,1.403,18.219,7.398,25.132S90.207,512,99.357,512h67.818c6.793,0,13.595-2.354,19.15-6.627   c7.887-6.065,15.55-9.405,21.578-9.405c6.028,0,13.689,3.34,21.574,9.405c5.557,4.273,12.358,6.627,19.151,6.627h55.468   c51.28,0,92.817-6.356,118.632-11.688c14.568-3.009,25.143-16.003,25.143-30.896v-29.044   C447.871,409.715,422.931,384.774,392.274,384.774z M94.855,384.774l-2.381-57.146h77.807c2.649,4.774,7.738,8.016,13.574,8.016   h13.297c11.306,19.871,32.129,32.064,55.234,32.064h37.212l-0.711,17.065H94.855z M304.097,135.242   c0.285,0,0.516,0.232,0.516,0.517v16.032c0,0.285-0.231,0.516-0.516,0.516h-88.693v-17.065H304.097z M200.403,159.807   c0,0.285-0.231,0.516-0.516,0.516h-16.032c-0.285,0-0.516-0.231-0.516-0.516v-32.065c0-0.285,0.231-0.516,0.516-0.516h16.032   c0.285,0,0.516,0.231,0.516,0.516V159.807z M168.339,152.307H79.645c-0.285,0-0.516-0.231-0.516-0.516v-16.032   c0-0.285,0.231-0.517,0.516-0.517h88.694V152.307z M170.281,167.307c2.649,4.774,7.738,8.016,13.574,8.016h16.032   c5.836,0,10.925-3.242,13.574-8.016h84.487l-4.719,113.258h-79.768c-2.649-4.774-7.738-8.016-13.574-8.016h-14.721l-11.712-26.352   c-10.199-22.949-33.017-37.777-58.13-37.777H87.507l-1.713-41.113H170.281z M290.223,352.709h-37.837   c-16.794,0-32.012-8.429-40.893-22.317c0.75-0.847,1.416-1.768,1.968-2.763h77.807L290.223,352.709z M87.661,312.629   c-0.285,0-0.516-0.231-0.516-0.516v-16.032c0-0.285,0.231-0.516,0.516-0.516h80.678v17.064H87.661z M170.281,280.564H90.513   l-2.381-57.145h27.192c19.191,0,36.628,11.332,44.423,28.869l11.749,26.434C171.052,279.308,170.64,279.918,170.281,280.564z    M183.339,288.064c0-0.285,0.231-0.516,0.516-0.516h16.032c0.285,0,0.516,0.231,0.516,0.516v32.064   c0,0.285-0.231,0.516-0.516,0.516h-16.032c-0.285,0-0.516-0.231-0.516-0.516V288.064z M296.081,295.564   c0.285,0,0.516,0.231,0.516,0.516v16.032c0,0.285-0.231,0.516-0.516,0.516h-80.677v-17.064H296.081z M82.186,17.626   C83.81,15.933,85.997,15,88.343,15h207.056c2.346,0,4.533,0.933,6.157,2.625c1.624,1.694,2.465,3.917,2.367,6.262l-0.341,8.177   h-15.518c-4.142,0-7.5,3.358-7.5,7.5s3.358,7.5,7.5,7.5h14.893l-3.049,73.177h-86.448c-2.649-4.774-7.738-8.016-13.574-8.016   h-16.032c-5.836,0-10.925,3.242-13.574,8.016H83.833l-3.049-73.177h175.219c4.142,0,7.5-3.358,7.5-7.5s-3.358-7.5-7.5-7.5H80.159   l-0.341-8.177C79.721,21.543,80.562,19.319,82.186,17.626z M419.694,485.622C399.121,489.871,356.747,497,304.097,497h-55.468   c-3.555,0-7.015-1.216-10.006-3.517c-7.422-5.71-18.777-12.516-30.719-12.516c-11.941,0-23.297,6.806-30.722,12.515   c-2.991,2.302-6.451,3.518-10.006,3.518H99.357c-4.8,0-9.356-2.08-12.501-5.706c-2.743-3.162-4.167-7.22-4.037-11.358H95.68   c4.142,0,7.5-3.358,7.5-7.5s-3.358-7.5-7.5-7.5H84.857l9.309-65.161h298.108c22.385,0,40.597,18.211,40.597,40.597v9.567   c-7.68,1.998-60.326,14.997-128.774,14.997h-47.588c-1.678,0-3.232-0.445-4.495-1.288c-14.667-9.784-29.507-14.745-44.11-14.745   c-14.605,0-29.447,4.961-44.115,14.745c-1.262,0.842-2.816,1.287-4.495,1.287h-31.551c-4.142,0-7.5,3.358-7.5,7.5   s3.358,7.5,7.5,7.5h31.551c4.651,0,9.083-1.317,12.819-3.809c12.159-8.111,24.201-12.224,35.791-12.224   c11.588,0,23.628,4.112,35.786,12.223c3.735,2.492,8.168,3.81,12.82,3.81h47.588c63.198,0,113.212-10.766,128.774-14.535v4.015   C432.871,477.229,427.33,484.045,419.694,485.622z"/>
</g>















</svg>
