<?xml version="1.0" encoding="iso-8859-1"?>
<!-- Generator: Adobe Illustrator 19.0.0, SVG Export Plug-In . SVG Version: 6.00 Build 0)  -->
<svg xmlns="http://www.w3.org/2000/svg" xmlns:xlink="http://www.w3.org/1999/xlink" version="1.1" id="Capa_1" x="0px" y="0px" viewBox="0 0 512 512" style="enable-background:new 0 0 512 512;" xml:space="preserve" width="512" height="512">
<g>
	<g>
		<polygon style="fill:#DBEAFF;" points="392.274,334.678 392.274,177.322 256,98.644 119.726,177.322 119.726,334.678 256,413.356       "/>
		<polygon style="fill:#C3DDFF;" points="318.48,292.073 318.48,219.927 256,183.855 193.52,219.927 193.52,292.073 256,328.145       "/>
	</g>
	<path d="M474.958,373.755l-39.857-23.011l37.261-9.984c4.001-1.072,6.375-5.185,5.304-9.186c-1.072-4.001-5.187-6.376-9.186-5.303   l-45.31,12.141V173.588l45.31,12.141c0.65,0.174,1.303,0.258,1.946,0.258c3.311,0,6.342-2.21,7.24-5.561   c1.072-4.001-1.302-8.114-5.304-9.186l-37.261-9.984l39.857-23.011c3.587-2.071,4.816-6.658,2.745-10.245   c-2.071-3.588-6.658-4.816-10.245-2.745l-39.857,23.011l9.984-37.262c1.072-4.001-1.303-8.114-5.304-9.186   c-3.995-1.071-8.113,1.302-9.186,5.303l-12.141,45.31l-142.74-82.411l33.169-33.169c2.929-2.929,2.929-7.678,0-10.606   c-2.929-2.929-7.678-2.929-10.606,0L263.5,53.522V7.5c0-4.142-3.358-7.5-7.5-7.5s-7.5,3.358-7.5,7.5v46.022l-27.277-27.277   c-2.929-2.929-7.678-2.929-10.606,0c-2.929,2.929-2.929,7.678,0,10.606l33.169,33.169l-142.74,82.411l-12.141-45.31   c-1.072-4.001-5.187-6.375-9.186-5.303c-4.001,1.072-6.375,5.185-5.304,9.186l9.984,37.262l-39.857-23.011   c-3.587-2.072-8.174-0.842-10.245,2.745c-2.071,3.587-0.842,8.174,2.745,10.245l39.857,23.011l-37.261,9.984   c-4.001,1.072-6.375,5.185-5.304,9.186c0.898,3.351,3.928,5.561,7.24,5.561c0.643,0,1.296-0.083,1.946-0.258l45.31-12.141v164.823   l-45.31-12.141c-3.995-1.071-8.113,1.302-9.186,5.303c-1.072,4.001,1.302,8.114,5.304,9.186l37.261,9.984l-39.857,23.011   c-3.587,2.071-4.816,6.658-2.745,10.245c1.389,2.406,3.91,3.751,6.502,3.751c1.272,0,2.562-0.324,3.743-1.006l39.857-23.011   l-9.984,37.262c-1.072,4.001,1.303,8.114,5.304,9.186c0.65,0.174,1.303,0.257,1.946,0.257c3.311,0,6.342-2.21,7.24-5.561   l12.141-45.31l142.74,82.411l-33.169,33.169c-2.929,2.929-2.929,7.677,0,10.606c2.929,2.929,7.678,2.929,10.606,0l27.277-27.277   V504.5c0,4.142,3.358,7.5,7.5,7.5s7.5-3.358,7.5-7.5v-46.022l27.277,27.277c1.464,1.465,3.384,2.197,5.303,2.197   s3.839-0.732,5.303-2.197c2.929-2.929,2.929-7.677,0-10.606l-33.169-33.169l142.74-82.411l12.141,45.31   c0.898,3.351,3.928,5.561,7.24,5.561c0.643,0,1.296-0.083,1.946-0.257c4.001-1.072,6.375-5.185,5.304-9.186l-9.984-37.262   l39.857,23.011c1.181,0.682,2.471,1.006,3.743,1.006c2.592,0,5.113-1.345,6.502-3.751   C479.774,380.413,478.545,375.826,474.958,373.755z M124.971,331.649c-2.071-3.588-6.658-4.816-10.245-2.745l-10.896,6.291V176.805   l63.318,36.557l-26.311,7.05c-4.001,1.072-6.375,5.185-5.304,9.186c0.898,3.351,3.928,5.561,7.24,5.561   c0.643,0,1.296-0.083,1.946-0.257l40.8-10.933l22.901,13.222v37.621l-22.901,13.222L144.718,277.1   c-3.996-1.071-8.113,1.302-9.186,5.304c-1.072,4.001,1.303,8.113,5.304,9.186l26.311,7.05l-25.677,14.825   c-3.587,2.071-4.816,6.658-2.745,10.245c1.389,2.406,3.91,3.751,6.502,3.751c1.272,0,2.562-0.324,3.743-1.006l25.677-14.824   l-7.05,26.311c-1.072,4.001,1.303,8.113,5.304,9.186c0.65,0.174,1.303,0.258,1.946,0.258c3.311,0,6.342-2.21,7.24-5.561   l10.932-40.8l22.901-13.222l32.581,18.811v26.443l-29.868,29.868c-2.929,2.929-2.929,7.677,0,10.606   c2.929,2.929,7.678,2.929,10.606,0l19.261-19.261v73.112l-137.17-79.195l10.896-6.291   C125.813,339.823,127.042,335.236,124.971,331.649z M385.779,181.072c1.389,2.406,3.91,3.751,6.502,3.751   c1.272,0,2.562-0.324,3.743-1.006l12.146-7.013v158.391l-63.318-36.557l26.311-7.05c4.001-1.072,6.375-5.185,5.304-9.186   c-1.072-4.001-5.186-6.376-9.186-5.304l-40.8,10.933l-22.901-13.222v-37.621l22.901-13.222l40.8,10.933   c0.65,0.174,1.303,0.257,1.946,0.257c3.311,0,6.342-2.21,7.24-5.561c1.072-4.001-1.303-8.113-5.304-9.186l-26.311-7.05   l22.567-13.029c3.587-2.071,4.816-6.658,2.745-10.245s-6.658-4.816-10.245-2.745l-22.566,13.029l7.05-26.312   c1.072-4.001-1.303-8.113-5.304-9.186c-3.996-1.071-8.113,1.302-9.186,5.303l-10.932,40.8l-22.9,13.222L263.5,205.389v-26.443   l29.868-29.868c2.929-2.929,2.929-7.677,0-10.606c-2.929-2.929-7.678-2.929-10.606,0L263.5,157.732V84.62l137.17,79.195   l-12.146,7.013C384.937,172.898,383.708,177.485,385.779,181.072z M271,256l17.581-10.15v20.301L271,256z M263.5,243.01v-20.301   l17.581,10.15L263.5,243.01z M248.5,243.01l-17.581-10.15l17.581-10.15V243.01z M241,256l-17.581,10.15V245.85L241,256z    M248.5,268.99v20.301l-17.581-10.15L248.5,268.99z M263.5,268.99l17.581,10.15l-17.581,10.15V268.99z M248.5,157.732   l-19.261-19.261c-2.929-2.929-7.678-2.929-10.606,0c-2.929,2.929-2.929,7.678,0,10.606l29.868,29.868v26.443l-32.581,18.811   l-22.901-13.222l-10.932-40.8c-1.072-4.001-5.186-6.376-9.186-5.303c-4.001,1.072-6.375,5.185-5.304,9.186l7.05,26.312   l-63.318-36.557L248.5,84.62V157.732z M263.5,354.268l19.261,19.261c1.464,1.464,3.384,2.196,5.303,2.196s3.839-0.732,5.303-2.196   c2.929-2.929,2.929-7.678,0-10.606L263.5,333.055v-26.443l32.581-18.811l22.901,13.222l10.932,40.8   c0.898,3.351,3.928,5.561,7.24,5.561c0.643,0,1.296-0.083,1.946-0.258c4.001-1.072,6.375-5.185,5.304-9.186l-7.05-26.312   l63.318,36.557L263.5,427.38V354.268z"/>
</g>















</svg>
