<?xml version="1.0" encoding="iso-8859-1"?>
<!-- Generator: Adobe Illustrator 19.0.0, SVG Export Plug-In . SVG Version: 6.00 Build 0)  -->
<svg xmlns="http://www.w3.org/2000/svg" xmlns:xlink="http://www.w3.org/1999/xlink" version="1.1" id="Capa_1" x="0px" y="0px" viewBox="0 0 512.001 512.001" style="enable-background:new 0 0 512.001 512.001;" xml:space="preserve" width="512" height="512">
<g>
	<g>
		<polygon style="fill:#DBEAFF;" points="148.128,327.566 116.808,345.649 116.808,381.814 148.128,399.897 179.448,381.814     179.448,345.649   "/>
		<polygon style="fill:#DBEAFF;" points="434.989,51.816 403.669,69.899 403.669,106.064 434.989,124.147 466.309,106.064     466.309,69.899   "/>
		<polygon style="fill:#DBEAFF;" points="202.801,98.413 181.308,110.823 181.308,135.64 202.801,148.049 224.294,135.64     224.294,110.823   "/>
		<polygon style="fill:#DBEAFF;" points="408.301,331.566 377.846,349.149 377.846,384.314 408.301,401.897 438.755,384.314     438.755,349.149   "/>
		<circle style="fill:#DBEAFF;" cx="312.294" cy="247.566" r="24"/>
		<circle style="fill:#DBEAFF;" cx="24.294" cy="487.566" r="22.327"/>
	</g>
	<g>
		<path d="M220.788,397.97l-9.559-5.519v-56.133l9.559-5.519c3.587-2.071,4.816-6.658,2.745-10.245    c-2.071-3.587-6.658-4.816-10.245-2.745l-9.559,5.519l-48.613-28.067v-11.038c0-4.142-3.358-7.5-7.5-7.5s-7.5,3.358-7.5,7.5    v11.038l-48.613,28.067l-9.559-5.519c-3.588-2.072-8.174-0.842-10.245,2.745c-2.071,3.587-0.842,8.174,2.745,10.245l9.559,5.519    v56.133l-9.559,5.519c-3.587,2.071-4.816,6.658-2.745,10.245c1.389,2.406,3.91,3.751,6.502,3.751c1.272,0,2.562-0.324,3.743-1.006    l9.559-5.519l48.613,28.067v11.038c0,4.142,3.358,7.5,7.5,7.5s7.5-3.358,7.5-7.5v-11.038l48.613-28.067l9.559,5.519    c1.181,0.682,2.471,1.006,3.743,1.006c2.592,0,5.113-1.346,6.502-3.751C225.605,404.628,224.376,400.041,220.788,397.97z     M188.729,331.988l-0.61,0.352c-3.587,2.071-4.816,6.658-2.745,10.245c1.389,2.406,3.91,3.751,6.502,3.751    c1.272,0,2.562-0.324,3.743-1.006l0.61-0.352v38.813l-33.613-19.406l6.542-3.777c3.587-2.071,4.816-6.658,2.745-10.245    s-6.659-4.816-10.245-2.745l-6.542,3.777v-38.813L188.729,331.988z M140.116,312.581v38.813l-33.613-19.406L140.116,312.581z     M99.004,344.978l33.613,19.406l-33.613,19.406V344.978z M106.503,396.781l33.613-19.406v38.813L106.503,396.781z     M155.116,416.188v-38.813l33.613,19.406L155.116,416.188z"/>
		<path d="M508.25,121.248l-9.559-5.519V59.595l9.559-5.519c3.587-2.071,4.816-6.658,2.745-10.245    c-2.071-3.588-6.659-4.816-10.245-2.745l-9.559,5.519l-48.613-28.067V7.501c0-4.142-3.358-7.5-7.5-7.5s-7.5,3.358-7.5,7.5v11.038    l-48.613,28.067l-9.559-5.519c-3.588-2.072-8.174-0.842-10.245,2.745c-2.071,3.587-0.842,8.174,2.745,10.245l9.559,5.519v56.133    l-9.559,5.519c-3.587,2.071-4.816,6.658-2.745,10.245c1.389,2.406,3.91,3.751,6.502,3.751c1.272,0,2.562-0.324,3.743-1.006    l9.559-5.519l48.613,28.066v11.038c0,4.143,3.358,7.5,7.5,7.5s7.5-3.357,7.5-7.5v-11.038l48.613-28.066l9.559,5.519    c1.181,0.682,2.471,1.006,3.743,1.006c2.592,0,5.113-1.345,6.502-3.751C513.067,127.906,511.838,123.319,508.25,121.248z     M483.692,107.069l-33.613-19.407l33.613-19.406V107.069z M476.192,55.265l-33.613,19.407V35.859L476.192,55.265z M427.578,35.859    v38.813l-33.613-19.406L427.578,35.859z M386.465,68.256l33.613,19.406l-33.613,19.407V68.256z M393.966,120.059l33.613-19.406    v38.813L393.966,120.059z M442.578,139.465v-38.813l33.613,19.407L442.578,139.465z"/>
		<path d="M246.093,139.891l-14.654-8.46v-16.37l14.654-8.46c3.587-2.071,4.816-6.658,2.745-10.246    c-2.071-3.587-6.658-4.816-10.245-2.745l-14.654,8.46l-14.176-8.185V76.965c0-4.142-3.358-7.5-7.5-7.5s-7.5,3.358-7.5,7.5v16.921    l-14.177,8.185l-14.654-8.46c-3.587-2.072-8.174-0.842-10.245,2.745c-2.071,3.587-0.842,8.174,2.745,10.245l14.654,8.46v16.37    l-14.654,8.46c-3.587,2.071-4.816,6.658-2.745,10.245c1.389,2.406,3.91,3.751,6.502,3.751c1.272,0,2.562-0.324,3.743-1.006    l14.654-8.46l14.177,8.185v16.921c0,4.142,3.358,7.5,7.5,7.5s7.5-3.358,7.5-7.5v-16.921l14.177-8.185l14.654,8.46    c1.181,0.682,2.471,1.006,3.743,1.006c2.592,0,5.113-1.345,6.502-3.751C250.91,146.55,249.681,141.963,246.093,139.891z     M188.086,115.061l14.177-8.186l14.177,8.186v16.37l-14.177,8.185l-14.177-8.185V115.061z"/>
		<path d="M454.882,339.52c-2.071-3.587-6.658-4.816-10.245-2.745l-28.831,16.646V320.13c0-4.142-3.358-7.5-7.5-7.5    s-7.5,3.358-7.5,7.5v33.291l-28.831-16.646c-3.587-2.072-8.174-0.842-10.245,2.745c-2.071,3.587-0.842,8.174,2.745,10.245    l28.831,16.646l-28.831,16.646c-3.587,2.071-4.816,6.658-2.745,10.245c1.389,2.406,3.91,3.751,6.502,3.751    c1.272,0,2.562-0.324,3.743-1.006l28.831-16.646v33.291c0,4.142,3.358,7.5,7.5,7.5s7.5-3.358,7.5-7.5v-33.291l28.831,16.646    c1.181,0.682,2.471,1.006,3.743,1.006c2.592,0,5.113-1.345,6.502-3.751c2.071-3.587,0.842-8.174-2.745-10.245l-28.831-16.646    l28.831-16.646C455.725,347.694,456.954,343.107,454.882,339.52z"/>
		<path d="M336.161,240.485h-16.548v-16.548c0-4.142-3.358-7.5-7.5-7.5s-7.5,3.358-7.5,7.5v16.548h-16.548    c-4.142,0-7.5,3.358-7.5,7.5s3.358,7.5,7.5,7.5h16.548v16.548c0,4.142,3.358,7.5,7.5,7.5s7.5-3.358,7.5-7.5v-16.548h16.548    c4.142,0,7.5-3.358,7.5-7.5S340.303,240.485,336.161,240.485z"/>
		<path d="M44.868,467.133c-2.929-2.929-7.678-2.929-10.606,0l-10.729,10.729l-10.729-10.729c-2.929-2.929-7.678-2.929-10.606,0    c-2.929,2.929-2.929,7.677,0,10.606l10.729,10.729L2.197,499.198c-2.929,2.929-2.929,7.677,0,10.606    c1.464,1.465,3.384,2.197,5.303,2.197s3.839-0.732,5.303-2.197l10.729-10.729l10.729,10.729c1.464,1.465,3.384,2.197,5.303,2.197    s3.839-0.732,5.303-2.197c2.929-2.929,2.929-7.677,0-10.606l-10.729-10.729l10.729-10.729    C47.797,474.811,47.797,470.062,44.868,467.133z"/>
		<path d="M98.39,229.24c1.464,1.464,3.384,2.197,5.303,2.197s3.839-0.732,5.303-2.197l2.713-2.713l2.713,2.713    c1.464,1.464,3.384,2.197,5.303,2.197s3.839-0.732,5.303-2.197c2.929-2.929,2.929-7.677,0-10.606l-2.713-2.713l2.713-2.713    c2.929-2.929,2.929-7.677,0-10.606c-2.929-2.929-7.678-2.929-10.606,0l-2.713,2.713l-2.713-2.713    c-2.929-2.929-7.678-2.929-10.606,0c-2.929,2.929-2.929,7.677,0,10.606l2.713,2.713l-2.713,2.713    C95.461,221.562,95.461,226.31,98.39,229.24z"/>
		<path d="M288.065,440.888h-8.532v-8.533c0-4.142-3.358-7.5-7.5-7.5s-7.5,3.358-7.5,7.5v8.533H256c-4.142,0-7.5,3.358-7.5,7.5    s3.358,7.5,7.5,7.5h8.532v8.532c0,4.142,3.358,7.5,7.5,7.5s7.5-3.358,7.5-7.5v-8.532h8.532c4.142,0,7.5-3.358,7.5-7.5    S292.207,440.888,288.065,440.888z"/>
	</g>
</g>















</svg>
