<?xml version="1.0" encoding="iso-8859-1"?>
<!-- Generator: Adobe Illustrator 19.0.0, SVG Export Plug-In . SVG Version: 6.00 Build 0)  -->
<svg xmlns="http://www.w3.org/2000/svg" xmlns:xlink="http://www.w3.org/1999/xlink" version="1.1" id="Capa_1" x="0px" y="0px" viewBox="0 0 512 512" style="enable-background:new 0 0 512 512;" xml:space="preserve" width="512" height="512">
<g>
	<g>
		<path style="fill:#DBEAFF;" d="M296.081,223.935h-48.097c-8.854,0-16.032-7.178-16.032-16.032v0    c0-8.854,7.178-16.032,16.032-16.032h48.097c8.854,0,16.032,7.178,16.032,16.032v0    C312.113,216.758,304.935,223.935,296.081,223.935z"/>
		<path style="fill:#DBEAFF;" d="M264.016,352.194h-16.032c-8.854,0-16.032-7.178-16.032-16.032v0    c0-8.854,7.178-16.032,16.032-16.032h16.032c8.854,0,16.032,7.178,16.032,16.032v0    C280.048,345.016,272.871,352.194,264.016,352.194z"/>
		<path style="fill:#DBEAFF;" d="M272.032,288.065H79.645c-8.854,0-16.032-7.178-16.032-16.032v0    c0-8.854,7.178-16.032,16.032-16.032h192.387c8.854,0,16.032,7.178,16.032,16.032v0    C288.065,280.887,280.887,288.065,272.032,288.065z"/>
		<circle style="fill:#DBEAFF;" cx="424.339" cy="159.806" r="64.129"/>
		<circle style="fill:#C3DDFF;" cx="424.339" cy="159.806" r="32.065"/>
		<circle style="fill:#DBEAFF;" cx="360.21" cy="368.226" r="48.097"/>
		<circle style="fill:#C3DDFF;" cx="360.21" cy="368.226" r="16.032"/>
	</g>
	<g>
		<path d="M424.339,88.178c-39.496,0-71.629,32.132-71.629,71.629c0,39.496,32.133,71.629,71.629,71.629    c30.656,0,55.597-24.94,55.597-55.597s-24.94-55.597-55.597-55.597c-21.816,0-39.564,17.748-39.564,39.564    c0,21.815,17.749,39.564,39.564,39.564c12.976,0,23.532-10.557,23.532-23.532c0-12.976-10.557-23.532-23.532-23.532    c-4.142,0-7.5,3.357-7.5,7.5c0,4.142,3.358,7.5,7.5,7.5c4.705,0,8.532,3.827,8.532,8.532c0,4.704-3.828,8.532-8.532,8.532    c-13.545,0-24.564-11.02-24.564-24.564s11.02-24.564,24.564-24.564c22.385,0,40.597,18.211,40.597,40.597    c0,22.385-18.211,40.597-40.597,40.597c-31.225,0-56.629-25.404-56.629-56.629c0-31.226,25.404-56.629,56.629-56.629    c40.065,0,72.661,32.596,72.661,72.661S464.404,248.5,424.339,248.5h-32.066c-4.142,0-7.5,3.358-7.5,7.5s3.358,7.5,7.5,7.5h32.066    c48.336,0,87.661-39.325,87.661-87.661C512,127.502,472.675,88.178,424.339,88.178z"/>
		<path d="M7.5,263.5h352.707c4.142,0,7.5-3.358,7.5-7.5s-3.358-7.5-7.5-7.5H7.5c-4.142,0-7.5,3.358-7.5,7.5S3.358,263.5,7.5,263.5z    "/>
		<path d="M360.21,280.564H7.5c-4.142,0-7.5,3.358-7.5,7.5s3.358,7.5,7.5,7.5h352.71c31.225,0,56.629,25.404,56.629,56.629    c0,31.226-25.404,56.629-56.629,56.629c-22.385,0-40.596-18.211-40.596-40.597c0-22.385,18.211-40.597,40.597-40.597    c13.545,0,24.564,11.02,24.564,24.564s-11.02,24.564-24.564,24.564c-4.705,0-8.532-3.827-8.532-8.532    c0-4.704,3.828-8.532,8.532-8.532c4.142,0,7.5-3.357,7.5-7.5c0-4.142-3.358-7.5-7.5-7.5c-12.976,0-23.532,10.557-23.532,23.532    c0,12.976,10.557,23.532,23.532,23.532c21.816,0,39.564-17.748,39.564-39.564c0-21.815-17.749-39.564-39.565-39.564    c-30.656,0-55.596,24.941-55.596,55.597c0,30.656,24.94,55.596,55.597,55.596c39.496,0,71.629-32.132,71.629-71.629    C431.839,312.697,399.706,280.564,360.21,280.564z"/>
		<path d="M143.774,231.436h200.403c4.142,0,7.5-3.358,7.5-7.5s-3.358-7.5-7.5-7.5H143.774c-4.142,0-7.5,3.358-7.5,7.5    S139.632,231.436,143.774,231.436z"/>
		<path d="M248.5,191.871c0,4.142,3.358,7.5,7.5,7.5h72.145c4.142,0,7.5-3.358,7.5-7.5c0-4.143-3.358-7.5-7.5-7.5H256    C251.858,184.371,248.5,187.729,248.5,191.871z"/>
		<path d="M288.064,312.629h-80.161c-4.142,0-7.5,3.358-7.5,7.5c0,4.143,3.358,7.5,7.5,7.5h80.161c4.142,0,7.5-3.357,7.5-7.5    C295.564,315.987,292.207,312.629,288.064,312.629z"/>
		<path d="M280.048,344.693H256c-4.142,0-7.5,3.358-7.5,7.5c0,4.143,3.358,7.5,7.5,7.5h24.048c4.142,0,7.5-3.357,7.5-7.5    C287.548,348.052,284.19,344.693,280.048,344.693z"/>
		<path d="M234.665,141.062c1.464,1.464,3.384,2.196,5.303,2.196s3.839-0.732,5.303-2.196l6.721-6.721l6.721,6.721    c1.464,1.464,3.384,2.196,5.303,2.196s3.839-0.732,5.303-2.196c2.929-2.929,2.929-7.678,0-10.606l-6.721-6.721l6.721-6.721    c2.929-2.929,2.929-7.677,0-10.606c-2.929-2.929-7.678-2.929-10.606,0l-6.721,6.721l-6.721-6.721    c-2.929-2.929-7.678-2.929-10.606,0c-2.929,2.929-2.929,7.678,0,10.606l6.721,6.721l-6.721,6.721    C231.735,133.384,231.735,138.132,234.665,141.062z"/>
		<path d="M167.823,344.693h-8.532v-8.532c0-4.142-3.358-7.5-7.5-7.5s-7.5,3.358-7.5,7.5v8.532h-8.532c-4.142,0-7.5,3.358-7.5,7.5    c0,4.143,3.358,7.5,7.5,7.5h8.532v8.532c0,4.143,3.358,7.5,7.5,7.5s7.5-3.357,7.5-7.5v-8.532h8.532c4.142,0,7.5-3.357,7.5-7.5    C175.323,348.052,171.965,344.693,167.823,344.693z"/>
		<path d="M175.839,183.339h0.516v0.516c0,4.143,3.358,7.5,7.5,7.5s7.5-3.357,7.5-7.5v-0.516h0.516c4.142,0,7.5-3.358,7.5-7.5    c0-4.143-3.358-7.5-7.5-7.5h-0.516v-0.517c0-4.142-3.358-7.5-7.5-7.5s-7.5,3.358-7.5,7.5v0.517h-0.516c-4.142,0-7.5,3.357-7.5,7.5    C168.339,179.98,171.697,183.339,175.839,183.339z"/>
	</g>
</g>















</svg>
