<?xml version="1.0" encoding="iso-8859-1"?>
<!-- Generator: Adobe Illustrator 19.0.0, SVG Export Plug-In . SVG Version: 6.00 Build 0)  -->
<svg xmlns="http://www.w3.org/2000/svg" xmlns:xlink="http://www.w3.org/1999/xlink" version="1.1" id="Capa_1" x="0px" y="0px" viewBox="0 0 512 512" style="enable-background:new 0 0 512 512;" xml:space="preserve" width="512" height="512">
<g>
	<g>
		<path style="fill:#ECBD83;" d="M264.015,219.925h-67.861c-13.128,0-25.839-4.603-35.924-13.006l-16.882-14.069    c-10.085-8.404-22.796-13.006-35.924-13.006H23.532v16.032c0,30.99,25.123,56.113,56.113,56.113h216.434    C296.079,234.28,281.724,219.925,264.015,219.925z"/>
		<path style="fill:#F6D190;" d="M490.062,220.009c-8.885-0.9-16.666,5.55-17.551,14.357c-0.266,2.685-7.499,65.726-88.255,65.726    H39.564c-8.854,0-16.032,7.178-16.032,16.032s7.178,16.032,16.032,16.032h344.692c87.566,0,116.891-61.878,120.163-94.596    C505.3,228.749,498.873,220.889,490.062,220.009z"/>
		<path style="fill:#E2A975;" d="M25.887,211.909h141.52c-2.493-1.49-4.921-3.11-7.177-4.99l-16.882-14.069    c-10.085-8.404-22.796-13.006-35.924-13.006H23.532v16.032C23.532,201.452,24.373,206.826,25.887,211.909z"/>
	</g>
	<path d="M490.819,212.547c-6.293-0.639-12.431,1.211-17.292,5.205c-4.838,3.974-7.849,9.608-8.478,15.874   c-0.062,0.624-0.546,4.891-2.515,10.864H302.857c-3.516-18.241-19.591-32.064-38.842-32.064h-67.862   c-11.35,0-22.402-4.001-31.121-11.268l-16.883-14.068c-11.409-9.508-25.872-14.745-40.724-14.745H7.5c-4.142,0-7.5,3.358-7.5,7.5   s3.358,7.5,7.5,7.5h8.532v8.532c0,32.538,24.56,59.431,56.113,63.156v33.559l-32.581,0c-12.976,0-23.532,10.557-23.532,23.532   s10.557,23.532,23.532,23.532h344.692c92.934,0,124.12-66.295,127.626-101.351C513.172,225.392,503.719,213.836,490.819,212.547z    M175.322,292.589v-33.1h73.177v33.098L175.322,292.589z M31.032,187.344h76.394c11.35,0,22.402,4.001,31.121,11.268l6.956,5.797   H31.797c-0.493-2.772-0.765-5.62-0.765-8.532V187.344z M37.127,219.409h128.15c9.395,5.211,20.029,8.016,30.877,8.016h67.862   c10.931,0,20.216,7.176,23.394,17.064H79.645C61.373,244.489,45.43,234.351,37.127,219.409z M87.145,259.489h73.177v33.1   l-73.177,0.001V259.489z M496.957,236.814c-3.039,30.383-30.504,87.842-112.7,87.842H39.564c-4.705,0-8.532-3.828-8.532-8.532   s3.828-8.532,8.532-8.532l304.611-0.005c4.142,0,7.5-3.358,7.5-7.5s-3.358-7.5-7.5-7.5l-80.677,0.001v-33.098h191.967   c-10.009,15.853-30.295,33.102-71.209,33.102h-8.013c-4.142,0-7.5,3.358-7.5,7.5s3.358,7.5,7.5,7.5h8.013   c87.515,0,95.425-69.525,95.718-72.476c0.229-2.283,1.321-4.333,3.073-5.772c1.752-1.439,3.978-2.104,6.269-1.871   C493.997,227.94,497.424,232.13,496.957,236.814z"/>
</g>















</svg>
